G04 #@! TF.GenerationSoftware,KiCad,Pcbnew,8.0.2*
G04 #@! TF.CreationDate,2024-05-11T11:11:32-04:00*
G04 #@! TF.ProjectId,T41-2_Power,5434312d-325f-4506-9f77-65722e6b6963,rev?*
G04 #@! TF.SameCoordinates,Original*
G04 #@! TF.FileFunction,Copper,L2,Bot*
G04 #@! TF.FilePolarity,Positive*
%FSLAX46Y46*%
G04 Gerber Fmt 4.6, Leading zero omitted, Abs format (unit mm)*
G04 Created by KiCad (PCBNEW 8.0.2) date 2024-05-11 11:11:32*
%MOMM*%
%LPD*%
G01*
G04 APERTURE LIST*
G04 Aperture macros list*
%AMRoundRect*
0 Rectangle with rounded corners*
0 $1 Rounding radius*
0 $2 $3 $4 $5 $6 $7 $8 $9 X,Y pos of 4 corners*
0 Add a 4 corners polygon primitive as box body*
4,1,4,$2,$3,$4,$5,$6,$7,$8,$9,$2,$3,0*
0 Add four circle primitives for the rounded corners*
1,1,$1+$1,$2,$3*
1,1,$1+$1,$4,$5*
1,1,$1+$1,$6,$7*
1,1,$1+$1,$8,$9*
0 Add four rect primitives between the rounded corners*
20,1,$1+$1,$2,$3,$4,$5,0*
20,1,$1+$1,$4,$5,$6,$7,0*
20,1,$1+$1,$6,$7,$8,$9,0*
20,1,$1+$1,$8,$9,$2,$3,0*%
G04 Aperture macros list end*
G04 #@! TA.AperFunction,ComponentPad*
%ADD10R,1.800000X1.800000*%
G04 #@! TD*
G04 #@! TA.AperFunction,ComponentPad*
%ADD11C,1.800000*%
G04 #@! TD*
G04 #@! TA.AperFunction,ComponentPad*
%ADD12R,2.400000X2.400000*%
G04 #@! TD*
G04 #@! TA.AperFunction,ComponentPad*
%ADD13C,2.400000*%
G04 #@! TD*
G04 #@! TA.AperFunction,ComponentPad*
%ADD14RoundRect,0.250000X-0.600000X-0.600000X0.600000X-0.600000X0.600000X0.600000X-0.600000X0.600000X0*%
G04 #@! TD*
G04 #@! TA.AperFunction,ComponentPad*
%ADD15C,1.700000*%
G04 #@! TD*
G04 #@! TA.AperFunction,SMDPad,CuDef*
%ADD16R,1.470000X2.770000*%
G04 #@! TD*
G04 #@! TA.AperFunction,ViaPad*
%ADD17C,1.000000*%
G04 #@! TD*
G04 #@! TA.AperFunction,Conductor*
%ADD18C,1.000000*%
G04 #@! TD*
G04 #@! TA.AperFunction,Conductor*
%ADD19C,0.500000*%
G04 #@! TD*
G04 APERTURE END LIST*
D10*
X138100000Y-102250000D03*
D11*
X135560000Y-102250000D03*
X133020000Y-102250000D03*
D10*
X141280000Y-112450000D03*
D11*
X138740000Y-112450000D03*
X136200000Y-112450000D03*
D12*
X106250000Y-70500000D03*
D13*
X106250000Y-75500000D03*
D14*
X104000000Y-97220000D03*
D15*
X106540000Y-97220000D03*
X104000000Y-99760000D03*
X106540000Y-99760000D03*
X104000000Y-102300000D03*
X106540000Y-102300000D03*
X104000000Y-104840000D03*
X106540000Y-104840000D03*
X104000000Y-107380000D03*
X106540000Y-107380000D03*
X104000000Y-109920000D03*
X106540000Y-109920000D03*
X104000000Y-112460000D03*
X106540000Y-112460000D03*
X104000000Y-115000000D03*
X106540000Y-115000000D03*
D12*
X106250000Y-82000000D03*
D13*
X106250000Y-87000000D03*
D12*
X163550000Y-91800000D03*
D13*
X163550000Y-86800000D03*
D16*
X120750000Y-74040000D03*
X120750000Y-70460000D03*
X115500000Y-75500000D03*
X115500000Y-79080000D03*
D17*
X155350000Y-95300000D03*
X153500000Y-89200000D03*
X156900000Y-84900000D03*
X147100000Y-88450000D03*
X147150000Y-85150000D03*
X148750000Y-85550000D03*
X148750000Y-88050000D03*
X148750000Y-86800000D03*
X125050000Y-104100000D03*
X127450000Y-104100000D03*
X126250000Y-104100000D03*
X168250000Y-72750000D03*
X124000000Y-84000000D03*
X137000000Y-98000000D03*
X118000000Y-90500000D03*
X131250000Y-74750000D03*
X130250000Y-117500000D03*
X118200000Y-68800000D03*
X102250000Y-70250000D03*
X122700000Y-76300000D03*
X110750000Y-98000000D03*
X129500000Y-99000000D03*
X154500000Y-100500000D03*
X124000000Y-108750000D03*
X112000000Y-80100000D03*
X134700000Y-114200000D03*
X168000000Y-97000000D03*
X118400000Y-76200000D03*
X140650000Y-102800000D03*
X142900000Y-114300000D03*
X137000000Y-94500000D03*
X144000000Y-96250000D03*
X126750000Y-72000000D03*
X138750000Y-115250000D03*
X115250000Y-121500000D03*
X155250000Y-67750000D03*
X168250000Y-121750000D03*
X118300000Y-72100000D03*
X146500000Y-110250000D03*
X124000000Y-98000000D03*
X121500000Y-79900000D03*
X133750000Y-99250000D03*
X147000000Y-93000000D03*
X115250000Y-98500000D03*
X128750000Y-108750000D03*
X128300000Y-93900000D03*
X114000000Y-67500000D03*
X147750000Y-117500000D03*
X137500000Y-104500000D03*
X132900000Y-104650000D03*
X102000000Y-122000000D03*
X138750000Y-109500000D03*
X135500000Y-86650000D03*
X122500000Y-121500000D03*
X110300000Y-83800000D03*
X135750000Y-91000000D03*
X110500000Y-90900000D03*
X126750000Y-67500000D03*
X124750000Y-94250000D03*
D18*
X148750000Y-86800000D02*
X137650000Y-86800000D01*
X137650000Y-86800000D02*
X126250000Y-98200000D01*
X126250000Y-98200000D02*
X126250000Y-104100000D01*
X148750000Y-86800000D02*
X148750000Y-88050000D01*
X148750000Y-86800000D02*
X148750000Y-85550000D01*
X125050000Y-104100000D02*
X126250000Y-104100000D01*
X127450000Y-104100000D02*
X126250000Y-104100000D01*
D19*
X104000000Y-112460000D02*
X106540000Y-112460000D01*
X104000000Y-107380000D02*
X106540000Y-107380000D01*
X108250000Y-91000000D02*
X120750000Y-78500000D01*
X106540000Y-99760000D02*
X108250000Y-98050000D01*
X108250000Y-98050000D02*
X108250000Y-91000000D01*
X120750000Y-78500000D02*
X120750000Y-74040000D01*
X102500000Y-95000000D02*
X115500000Y-82000000D01*
X115500000Y-82000000D02*
X115500000Y-79080000D01*
X104000000Y-99760000D02*
X102500000Y-98260000D01*
X102500000Y-98260000D02*
X102500000Y-95000000D01*
X120710000Y-70500000D02*
X120750000Y-70460000D01*
X120750000Y-70460000D02*
X106290000Y-70460000D01*
X106290000Y-70460000D02*
X106250000Y-70500000D01*
X105700000Y-75500000D02*
X105700000Y-75550000D01*
X115500000Y-75500000D02*
X106250000Y-75500000D01*
G04 #@! TA.AperFunction,Conductor*
G36*
X105419338Y-113230185D02*
G01*
X105453873Y-113263376D01*
X105501505Y-113331401D01*
X105668599Y-113498495D01*
X105851366Y-113626470D01*
X105854594Y-113628730D01*
X105898218Y-113683307D01*
X105905411Y-113752806D01*
X105873889Y-113815160D01*
X105854593Y-113831880D01*
X105778626Y-113885072D01*
X105778625Y-113885072D01*
X106410590Y-114517037D01*
X106347007Y-114534075D01*
X106232993Y-114599901D01*
X106139901Y-114692993D01*
X106074075Y-114807007D01*
X106057037Y-114870590D01*
X105425072Y-114238625D01*
X105425072Y-114238626D01*
X105371574Y-114315030D01*
X105316998Y-114358655D01*
X105247499Y-114365849D01*
X105185144Y-114334326D01*
X105168424Y-114315030D01*
X105114925Y-114238626D01*
X105114925Y-114238625D01*
X104482962Y-114870589D01*
X104465925Y-114807007D01*
X104400099Y-114692993D01*
X104307007Y-114599901D01*
X104192993Y-114534075D01*
X104129410Y-114517037D01*
X104761373Y-113885073D01*
X104761373Y-113885072D01*
X104685405Y-113831880D01*
X104641780Y-113777304D01*
X104634586Y-113707805D01*
X104666108Y-113645451D01*
X104685399Y-113628734D01*
X104871401Y-113498495D01*
X105038495Y-113331401D01*
X105086127Y-113263376D01*
X105140704Y-113219751D01*
X105187701Y-113210500D01*
X105352299Y-113210500D01*
X105419338Y-113230185D01*
G37*
G04 #@! TD.AperFunction*
G04 #@! TA.AperFunction,Conductor*
G36*
X106074075Y-110112993D02*
G01*
X106139901Y-110227007D01*
X106232993Y-110320099D01*
X106347007Y-110385925D01*
X106410590Y-110402962D01*
X105778625Y-111034925D01*
X105854594Y-111088119D01*
X105898219Y-111142696D01*
X105905413Y-111212194D01*
X105873890Y-111274549D01*
X105854595Y-111291269D01*
X105668594Y-111421508D01*
X105501506Y-111588596D01*
X105453874Y-111656623D01*
X105399297Y-111700248D01*
X105352299Y-111709500D01*
X105187701Y-111709500D01*
X105120662Y-111689815D01*
X105086126Y-111656623D01*
X105038494Y-111588597D01*
X104871402Y-111421506D01*
X104871401Y-111421505D01*
X104685405Y-111291269D01*
X104641781Y-111236692D01*
X104634588Y-111167193D01*
X104666110Y-111104839D01*
X104685405Y-111088119D01*
X104761373Y-111034925D01*
X104129409Y-110402962D01*
X104192993Y-110385925D01*
X104307007Y-110320099D01*
X104400099Y-110227007D01*
X104465925Y-110112993D01*
X104482962Y-110049410D01*
X105114925Y-110681373D01*
X105168425Y-110604968D01*
X105223002Y-110561344D01*
X105292501Y-110554151D01*
X105354855Y-110585673D01*
X105371576Y-110604969D01*
X105425073Y-110681372D01*
X106057037Y-110049409D01*
X106074075Y-110112993D01*
G37*
G04 #@! TD.AperFunction*
G04 #@! TA.AperFunction,Conductor*
G36*
X105419338Y-108150185D02*
G01*
X105453873Y-108183376D01*
X105501505Y-108251401D01*
X105668599Y-108418495D01*
X105854594Y-108548730D01*
X105898218Y-108603307D01*
X105905411Y-108672806D01*
X105873889Y-108735160D01*
X105854593Y-108751880D01*
X105778626Y-108805072D01*
X105778625Y-108805072D01*
X106410590Y-109437037D01*
X106347007Y-109454075D01*
X106232993Y-109519901D01*
X106139901Y-109612993D01*
X106074075Y-109727007D01*
X106057037Y-109790590D01*
X105425072Y-109158625D01*
X105425072Y-109158626D01*
X105371574Y-109235030D01*
X105316998Y-109278655D01*
X105247499Y-109285849D01*
X105185144Y-109254326D01*
X105168424Y-109235030D01*
X105114925Y-109158626D01*
X105114925Y-109158625D01*
X104482962Y-109790589D01*
X104465925Y-109727007D01*
X104400099Y-109612993D01*
X104307007Y-109519901D01*
X104192993Y-109454075D01*
X104129410Y-109437037D01*
X104761373Y-108805073D01*
X104761373Y-108805072D01*
X104685405Y-108751880D01*
X104641780Y-108697304D01*
X104634586Y-108627805D01*
X104666108Y-108565451D01*
X104685399Y-108548734D01*
X104871401Y-108418495D01*
X105038495Y-108251401D01*
X105086127Y-108183376D01*
X105140704Y-108139751D01*
X105187701Y-108130500D01*
X105352299Y-108130500D01*
X105419338Y-108150185D01*
G37*
G04 #@! TD.AperFunction*
G04 #@! TA.AperFunction,Conductor*
G36*
X106074075Y-105032993D02*
G01*
X106139901Y-105147007D01*
X106232993Y-105240099D01*
X106347007Y-105305925D01*
X106410590Y-105322962D01*
X105778625Y-105954925D01*
X105854594Y-106008119D01*
X105898219Y-106062696D01*
X105905413Y-106132194D01*
X105873890Y-106194549D01*
X105854595Y-106211269D01*
X105668594Y-106341508D01*
X105501506Y-106508596D01*
X105453874Y-106576623D01*
X105399297Y-106620248D01*
X105352299Y-106629500D01*
X105187701Y-106629500D01*
X105120662Y-106609815D01*
X105086126Y-106576623D01*
X105038494Y-106508597D01*
X104871402Y-106341506D01*
X104871401Y-106341505D01*
X104685405Y-106211269D01*
X104641781Y-106156692D01*
X104634588Y-106087193D01*
X104666110Y-106024839D01*
X104685405Y-106008119D01*
X104761373Y-105954925D01*
X104129409Y-105322962D01*
X104192993Y-105305925D01*
X104307007Y-105240099D01*
X104400099Y-105147007D01*
X104465925Y-105032993D01*
X104482962Y-104969410D01*
X105114925Y-105601373D01*
X105168425Y-105524968D01*
X105223002Y-105481344D01*
X105292501Y-105474151D01*
X105354855Y-105505673D01*
X105371576Y-105524969D01*
X105425073Y-105601372D01*
X106057037Y-104969409D01*
X106074075Y-105032993D01*
G37*
G04 #@! TD.AperFunction*
G04 #@! TA.AperFunction,Conductor*
G36*
X105354855Y-102966546D02*
G01*
X105371575Y-102985842D01*
X105501500Y-103171395D01*
X105501505Y-103171401D01*
X105668599Y-103338495D01*
X105845288Y-103462214D01*
X105854594Y-103468730D01*
X105898218Y-103523307D01*
X105905411Y-103592806D01*
X105873889Y-103655160D01*
X105854593Y-103671880D01*
X105778626Y-103725072D01*
X105778625Y-103725072D01*
X106410590Y-104357037D01*
X106347007Y-104374075D01*
X106232993Y-104439901D01*
X106139901Y-104532993D01*
X106074075Y-104647007D01*
X106057037Y-104710590D01*
X105425072Y-104078625D01*
X105425072Y-104078626D01*
X105371574Y-104155030D01*
X105316998Y-104198655D01*
X105247499Y-104205849D01*
X105185144Y-104174326D01*
X105168424Y-104155030D01*
X105114925Y-104078626D01*
X105114925Y-104078625D01*
X104482962Y-104710589D01*
X104465925Y-104647007D01*
X104400099Y-104532993D01*
X104307007Y-104439901D01*
X104192993Y-104374075D01*
X104129410Y-104357037D01*
X104761373Y-103725073D01*
X104761373Y-103725072D01*
X104685405Y-103671880D01*
X104641780Y-103617304D01*
X104634586Y-103547805D01*
X104666108Y-103485451D01*
X104685399Y-103468734D01*
X104871401Y-103338495D01*
X105038495Y-103171401D01*
X105168425Y-102985842D01*
X105223002Y-102942217D01*
X105292500Y-102935023D01*
X105354855Y-102966546D01*
G37*
G04 #@! TD.AperFunction*
G04 #@! TA.AperFunction,Conductor*
G36*
X169442539Y-66520185D02*
G01*
X169488294Y-66572989D01*
X169499500Y-66624500D01*
X169499500Y-129375500D01*
X169479815Y-129442539D01*
X169427011Y-129488294D01*
X169375500Y-129499500D01*
X100624500Y-129499500D01*
X100557461Y-129479815D01*
X100511706Y-129427011D01*
X100500500Y-129375500D01*
X100500500Y-126000000D01*
X101258430Y-126000000D01*
X101278418Y-126330454D01*
X101278418Y-126330459D01*
X101278419Y-126330460D01*
X101338095Y-126656101D01*
X101338096Y-126656105D01*
X101338097Y-126656109D01*
X101436581Y-126972155D01*
X101436585Y-126972166D01*
X101436586Y-126972169D01*
X101436588Y-126972174D01*
X101572460Y-127274071D01*
X101743732Y-127557389D01*
X101743737Y-127557397D01*
X101947907Y-127818000D01*
X102181999Y-128052092D01*
X102442602Y-128256262D01*
X102442607Y-128256265D01*
X102442611Y-128256268D01*
X102725929Y-128427540D01*
X103027826Y-128563412D01*
X103027836Y-128563415D01*
X103027844Y-128563418D01*
X103238541Y-128629074D01*
X103343899Y-128661905D01*
X103669540Y-128721581D01*
X104000000Y-128741570D01*
X104330460Y-128721581D01*
X104656101Y-128661905D01*
X104972174Y-128563412D01*
X105274071Y-128427540D01*
X105557389Y-128256268D01*
X105817997Y-128052095D01*
X106052095Y-127817997D01*
X106237039Y-127581933D01*
X106256262Y-127557397D01*
X106256262Y-127557395D01*
X106256268Y-127557389D01*
X106427540Y-127274071D01*
X106563412Y-126972174D01*
X106661905Y-126656101D01*
X106721581Y-126330460D01*
X106741570Y-126000000D01*
X106727291Y-125763933D01*
X163258430Y-125763933D01*
X163278418Y-126094387D01*
X163278418Y-126094392D01*
X163278419Y-126094393D01*
X163338095Y-126420034D01*
X163338096Y-126420038D01*
X163338097Y-126420042D01*
X163436581Y-126736088D01*
X163436585Y-126736099D01*
X163436586Y-126736102D01*
X163436588Y-126736107D01*
X163572460Y-127038004D01*
X163715165Y-127274066D01*
X163743737Y-127321330D01*
X163947907Y-127581933D01*
X164181999Y-127816025D01*
X164442602Y-128020195D01*
X164442607Y-128020198D01*
X164442611Y-128020201D01*
X164725929Y-128191473D01*
X165027826Y-128327345D01*
X165027836Y-128327348D01*
X165027844Y-128327351D01*
X165238541Y-128393007D01*
X165343899Y-128425838D01*
X165669540Y-128485514D01*
X166000000Y-128505503D01*
X166330460Y-128485514D01*
X166656101Y-128425838D01*
X166972174Y-128327345D01*
X167274071Y-128191473D01*
X167557389Y-128020201D01*
X167817997Y-127816028D01*
X168052095Y-127581930D01*
X168256268Y-127321322D01*
X168427540Y-127038004D01*
X168563412Y-126736107D01*
X168661905Y-126420034D01*
X168721581Y-126094393D01*
X168741570Y-125763933D01*
X168721581Y-125433473D01*
X168661905Y-125107832D01*
X168563412Y-124791759D01*
X168427540Y-124489862D01*
X168256268Y-124206544D01*
X168256265Y-124206540D01*
X168256262Y-124206535D01*
X168052092Y-123945932D01*
X167818000Y-123711840D01*
X167557397Y-123507670D01*
X167439813Y-123436588D01*
X167274071Y-123336393D01*
X166972174Y-123200521D01*
X166972169Y-123200519D01*
X166972166Y-123200518D01*
X166972155Y-123200514D01*
X166656109Y-123102030D01*
X166656105Y-123102029D01*
X166656101Y-123102028D01*
X166330460Y-123042352D01*
X166330459Y-123042351D01*
X166330454Y-123042351D01*
X166000000Y-123022363D01*
X165669545Y-123042351D01*
X165669540Y-123042352D01*
X165343899Y-123102028D01*
X165343896Y-123102028D01*
X165343890Y-123102030D01*
X165027844Y-123200514D01*
X165027833Y-123200518D01*
X165027827Y-123200520D01*
X165027826Y-123200521D01*
X164725929Y-123336393D01*
X164634774Y-123391497D01*
X164442602Y-123507670D01*
X164181999Y-123711840D01*
X163947907Y-123945932D01*
X163743737Y-124206535D01*
X163572459Y-124489864D01*
X163572458Y-124489866D01*
X163436585Y-124791766D01*
X163436581Y-124791777D01*
X163338097Y-125107823D01*
X163278418Y-125433478D01*
X163258430Y-125763933D01*
X106727291Y-125763933D01*
X106721581Y-125669540D01*
X106661905Y-125343899D01*
X106563412Y-125027826D01*
X106427540Y-124725929D01*
X106256268Y-124442611D01*
X106256265Y-124442607D01*
X106256262Y-124442602D01*
X106052092Y-124181999D01*
X105818000Y-123947907D01*
X105557397Y-123743737D01*
X105504630Y-123711838D01*
X105274071Y-123572460D01*
X104972174Y-123436588D01*
X104972169Y-123436586D01*
X104972166Y-123436585D01*
X104972155Y-123436581D01*
X104656109Y-123338097D01*
X104656105Y-123338096D01*
X104656101Y-123338095D01*
X104330460Y-123278419D01*
X104330459Y-123278418D01*
X104330454Y-123278418D01*
X104000000Y-123258430D01*
X103669545Y-123278418D01*
X103669540Y-123278419D01*
X103343899Y-123338095D01*
X103343896Y-123338095D01*
X103343890Y-123338097D01*
X103027844Y-123436581D01*
X103027833Y-123436585D01*
X102725933Y-123572458D01*
X102725931Y-123572459D01*
X102442602Y-123743737D01*
X102181999Y-123947907D01*
X101947907Y-124181999D01*
X101743737Y-124442602D01*
X101572459Y-124725931D01*
X101572458Y-124725933D01*
X101436585Y-125027833D01*
X101436581Y-125027844D01*
X101338097Y-125343890D01*
X101338095Y-125343896D01*
X101338095Y-125343899D01*
X101289918Y-125606787D01*
X101278418Y-125669545D01*
X101258430Y-126000000D01*
X100500500Y-126000000D01*
X100500500Y-98333920D01*
X101749499Y-98333920D01*
X101778340Y-98478907D01*
X101778343Y-98478917D01*
X101834912Y-98615488D01*
X101834914Y-98615492D01*
X101834916Y-98615495D01*
X101846580Y-98632951D01*
X101917051Y-98738420D01*
X101917052Y-98738421D01*
X102627130Y-99448497D01*
X102660615Y-99509820D01*
X102662977Y-99546985D01*
X102644341Y-99759997D01*
X102644341Y-99760000D01*
X102664936Y-99995403D01*
X102664938Y-99995413D01*
X102726094Y-100223655D01*
X102726096Y-100223659D01*
X102726097Y-100223663D01*
X102730000Y-100232032D01*
X102825965Y-100437830D01*
X102825967Y-100437834D01*
X102934281Y-100592521D01*
X102961501Y-100631396D01*
X102961506Y-100631402D01*
X103128597Y-100798493D01*
X103128603Y-100798498D01*
X103314158Y-100928425D01*
X103357783Y-100983002D01*
X103364977Y-101052500D01*
X103333454Y-101114855D01*
X103314158Y-101131575D01*
X103128597Y-101261505D01*
X102961505Y-101428597D01*
X102825965Y-101622169D01*
X102825964Y-101622171D01*
X102726098Y-101836335D01*
X102726094Y-101836344D01*
X102664938Y-102064586D01*
X102664936Y-102064596D01*
X102644341Y-102299999D01*
X102644341Y-102300000D01*
X102664936Y-102535403D01*
X102664938Y-102535413D01*
X102726094Y-102763655D01*
X102726096Y-102763659D01*
X102726097Y-102763663D01*
X102730000Y-102772032D01*
X102825965Y-102977830D01*
X102825967Y-102977834D01*
X102930097Y-103126546D01*
X102961505Y-103171401D01*
X103128599Y-103338495D01*
X103305288Y-103462214D01*
X103314594Y-103468730D01*
X103358218Y-103523307D01*
X103365411Y-103592806D01*
X103333889Y-103655160D01*
X103314593Y-103671880D01*
X103238626Y-103725072D01*
X103238625Y-103725072D01*
X103870590Y-104357037D01*
X103807007Y-104374075D01*
X103692993Y-104439901D01*
X103599901Y-104532993D01*
X103534075Y-104647007D01*
X103517037Y-104710590D01*
X102885072Y-104078625D01*
X102826401Y-104162419D01*
X102726570Y-104376507D01*
X102726566Y-104376516D01*
X102665432Y-104604673D01*
X102665430Y-104604684D01*
X102644843Y-104839998D01*
X102644843Y-104840001D01*
X102665430Y-105075315D01*
X102665432Y-105075326D01*
X102726566Y-105303483D01*
X102726570Y-105303492D01*
X102826400Y-105517579D01*
X102826402Y-105517583D01*
X102885072Y-105601373D01*
X102885073Y-105601373D01*
X103517037Y-104969409D01*
X103534075Y-105032993D01*
X103599901Y-105147007D01*
X103692993Y-105240099D01*
X103807007Y-105305925D01*
X103870590Y-105322962D01*
X103238625Y-105954925D01*
X103314594Y-106008119D01*
X103358219Y-106062696D01*
X103365413Y-106132194D01*
X103333890Y-106194549D01*
X103314595Y-106211269D01*
X103128594Y-106341508D01*
X102961505Y-106508597D01*
X102825965Y-106702169D01*
X102825964Y-106702171D01*
X102726098Y-106916335D01*
X102726094Y-106916344D01*
X102664938Y-107144586D01*
X102664936Y-107144596D01*
X102644341Y-107379999D01*
X102644341Y-107380000D01*
X102664936Y-107615403D01*
X102664938Y-107615413D01*
X102726094Y-107843655D01*
X102726096Y-107843659D01*
X102726097Y-107843663D01*
X102825965Y-108057830D01*
X102825967Y-108057834D01*
X102913873Y-108183376D01*
X102961505Y-108251401D01*
X103128599Y-108418495D01*
X103314594Y-108548730D01*
X103358218Y-108603307D01*
X103365411Y-108672806D01*
X103333889Y-108735160D01*
X103314593Y-108751880D01*
X103238626Y-108805072D01*
X103238625Y-108805072D01*
X103870590Y-109437037D01*
X103807007Y-109454075D01*
X103692993Y-109519901D01*
X103599901Y-109612993D01*
X103534075Y-109727007D01*
X103517037Y-109790590D01*
X102885072Y-109158625D01*
X102826401Y-109242419D01*
X102726570Y-109456507D01*
X102726566Y-109456516D01*
X102665432Y-109684673D01*
X102665430Y-109684684D01*
X102644843Y-109919998D01*
X102644843Y-109920001D01*
X102665430Y-110155315D01*
X102665432Y-110155326D01*
X102726566Y-110383483D01*
X102726570Y-110383492D01*
X102826400Y-110597579D01*
X102826402Y-110597583D01*
X102885072Y-110681373D01*
X102885073Y-110681373D01*
X103517037Y-110049409D01*
X103534075Y-110112993D01*
X103599901Y-110227007D01*
X103692993Y-110320099D01*
X103807007Y-110385925D01*
X103870590Y-110402962D01*
X103238625Y-111034925D01*
X103314594Y-111088119D01*
X103358219Y-111142696D01*
X103365413Y-111212194D01*
X103333890Y-111274549D01*
X103314595Y-111291269D01*
X103128594Y-111421508D01*
X102961505Y-111588597D01*
X102825965Y-111782169D01*
X102825964Y-111782171D01*
X102726098Y-111996335D01*
X102726094Y-111996344D01*
X102664938Y-112224586D01*
X102664936Y-112224596D01*
X102644341Y-112459999D01*
X102644341Y-112460000D01*
X102664936Y-112695403D01*
X102664938Y-112695413D01*
X102726094Y-112923655D01*
X102726096Y-112923659D01*
X102726097Y-112923663D01*
X102765942Y-113009111D01*
X102825965Y-113137830D01*
X102825967Y-113137834D01*
X102913873Y-113263376D01*
X102961505Y-113331401D01*
X103128599Y-113498495D01*
X103311366Y-113626470D01*
X103314594Y-113628730D01*
X103358218Y-113683307D01*
X103365411Y-113752806D01*
X103333889Y-113815160D01*
X103314593Y-113831880D01*
X103238626Y-113885072D01*
X103238625Y-113885072D01*
X103870590Y-114517037D01*
X103807007Y-114534075D01*
X103692993Y-114599901D01*
X103599901Y-114692993D01*
X103534075Y-114807007D01*
X103517037Y-114870590D01*
X102885072Y-114238625D01*
X102826401Y-114322419D01*
X102726570Y-114536507D01*
X102726566Y-114536516D01*
X102665432Y-114764673D01*
X102665430Y-114764684D01*
X102644843Y-114999998D01*
X102644843Y-115000001D01*
X102665430Y-115235315D01*
X102665432Y-115235326D01*
X102726566Y-115463483D01*
X102726570Y-115463492D01*
X102826400Y-115677579D01*
X102826402Y-115677583D01*
X102885072Y-115761373D01*
X102885073Y-115761373D01*
X103517037Y-115129409D01*
X103534075Y-115192993D01*
X103599901Y-115307007D01*
X103692993Y-115400099D01*
X103807007Y-115465925D01*
X103870590Y-115482962D01*
X103238625Y-116114925D01*
X103322421Y-116173599D01*
X103536507Y-116273429D01*
X103536516Y-116273433D01*
X103764673Y-116334567D01*
X103764684Y-116334569D01*
X103999998Y-116355157D01*
X104000002Y-116355157D01*
X104235315Y-116334569D01*
X104235326Y-116334567D01*
X104463483Y-116273433D01*
X104463492Y-116273429D01*
X104677578Y-116173600D01*
X104677582Y-116173598D01*
X104761373Y-116114926D01*
X104761373Y-116114925D01*
X104129409Y-115482962D01*
X104192993Y-115465925D01*
X104307007Y-115400099D01*
X104400099Y-115307007D01*
X104465925Y-115192993D01*
X104482962Y-115129410D01*
X105114925Y-115761373D01*
X105168425Y-115684968D01*
X105223002Y-115641344D01*
X105292501Y-115634151D01*
X105354855Y-115665673D01*
X105371576Y-115684969D01*
X105425073Y-115761372D01*
X106057037Y-115129409D01*
X106074075Y-115192993D01*
X106139901Y-115307007D01*
X106232993Y-115400099D01*
X106347007Y-115465925D01*
X106410590Y-115482962D01*
X105778625Y-116114925D01*
X105862421Y-116173599D01*
X106076507Y-116273429D01*
X106076516Y-116273433D01*
X106304673Y-116334567D01*
X106304684Y-116334569D01*
X106539998Y-116355157D01*
X106540002Y-116355157D01*
X106775315Y-116334569D01*
X106775326Y-116334567D01*
X107003483Y-116273433D01*
X107003492Y-116273429D01*
X107217578Y-116173600D01*
X107217582Y-116173598D01*
X107301373Y-116114926D01*
X107301373Y-116114925D01*
X106669409Y-115482962D01*
X106732993Y-115465925D01*
X106847007Y-115400099D01*
X106940099Y-115307007D01*
X107005925Y-115192993D01*
X107022962Y-115129410D01*
X107654925Y-115761373D01*
X107654926Y-115761373D01*
X107713598Y-115677582D01*
X107713600Y-115677578D01*
X107813429Y-115463492D01*
X107813433Y-115463483D01*
X107874567Y-115235326D01*
X107874569Y-115235315D01*
X107895157Y-115000001D01*
X107895157Y-114999998D01*
X107874569Y-114764684D01*
X107874567Y-114764673D01*
X107813433Y-114536516D01*
X107813429Y-114536507D01*
X107713600Y-114322423D01*
X107713599Y-114322421D01*
X107654925Y-114238626D01*
X107654925Y-114238625D01*
X107022962Y-114870589D01*
X107005925Y-114807007D01*
X106940099Y-114692993D01*
X106847007Y-114599901D01*
X106732993Y-114534075D01*
X106669410Y-114517037D01*
X107301373Y-113885073D01*
X107301373Y-113885072D01*
X107225405Y-113831880D01*
X107181780Y-113777304D01*
X107174586Y-113707805D01*
X107206108Y-113645451D01*
X107225399Y-113628734D01*
X107411401Y-113498495D01*
X107578495Y-113331401D01*
X107714035Y-113137830D01*
X107813903Y-112923663D01*
X107875063Y-112695408D01*
X107895659Y-112460000D01*
X107894783Y-112449993D01*
X134794700Y-112449993D01*
X134794700Y-112450006D01*
X134813864Y-112681297D01*
X134813866Y-112681308D01*
X134870842Y-112906300D01*
X134964075Y-113118848D01*
X135091016Y-113313147D01*
X135091019Y-113313151D01*
X135091021Y-113313153D01*
X135248216Y-113483913D01*
X135248219Y-113483915D01*
X135248222Y-113483918D01*
X135431365Y-113626464D01*
X135431371Y-113626468D01*
X135431374Y-113626470D01*
X135581185Y-113707544D01*
X135634652Y-113736479D01*
X135635497Y-113736936D01*
X135681725Y-113752806D01*
X135855015Y-113812297D01*
X135855017Y-113812297D01*
X135855019Y-113812298D01*
X136083951Y-113850500D01*
X136083952Y-113850500D01*
X136316048Y-113850500D01*
X136316049Y-113850500D01*
X136544981Y-113812298D01*
X136764503Y-113736936D01*
X136968626Y-113626470D01*
X136969170Y-113626047D01*
X137133045Y-113498498D01*
X137151784Y-113483913D01*
X137308979Y-113313153D01*
X137366490Y-113225124D01*
X137419635Y-113179769D01*
X137488866Y-113170345D01*
X137552202Y-113199846D01*
X137574107Y-113225125D01*
X137588812Y-113247633D01*
X138175387Y-112661058D01*
X138180889Y-112681591D01*
X138259881Y-112818408D01*
X138371592Y-112930119D01*
X138508409Y-113009111D01*
X138528940Y-113014612D01*
X137941201Y-113602351D01*
X137971649Y-113626050D01*
X138175697Y-113736476D01*
X138175706Y-113736479D01*
X138395139Y-113811811D01*
X138623993Y-113850000D01*
X138856007Y-113850000D01*
X139084860Y-113811811D01*
X139304293Y-113736479D01*
X139304301Y-113736476D01*
X139508355Y-113626047D01*
X139538797Y-113602351D01*
X139538798Y-113602350D01*
X138951060Y-113014612D01*
X138971591Y-113009111D01*
X139108408Y-112930119D01*
X139220119Y-112818408D01*
X139299111Y-112681591D01*
X139304612Y-112661059D01*
X139843181Y-113199627D01*
X139876666Y-113260950D01*
X139879500Y-113287307D01*
X139879500Y-113397869D01*
X139879501Y-113397876D01*
X139885908Y-113457483D01*
X139936202Y-113592328D01*
X139936206Y-113592335D01*
X140022452Y-113707544D01*
X140022455Y-113707547D01*
X140137664Y-113793793D01*
X140137671Y-113793797D01*
X140272517Y-113844091D01*
X140272516Y-113844091D01*
X140279444Y-113844835D01*
X140332127Y-113850500D01*
X142227872Y-113850499D01*
X142287483Y-113844091D01*
X142422331Y-113793796D01*
X142537546Y-113707546D01*
X142623796Y-113592331D01*
X142674091Y-113457483D01*
X142680500Y-113397873D01*
X142680499Y-111502128D01*
X142674091Y-111442517D01*
X142666255Y-111421508D01*
X142623797Y-111307671D01*
X142623793Y-111307664D01*
X142537547Y-111192455D01*
X142537544Y-111192452D01*
X142422335Y-111106206D01*
X142422328Y-111106202D01*
X142287482Y-111055908D01*
X142287483Y-111055908D01*
X142227883Y-111049501D01*
X142227881Y-111049500D01*
X142227873Y-111049500D01*
X142227864Y-111049500D01*
X140332129Y-111049500D01*
X140332123Y-111049501D01*
X140272516Y-111055908D01*
X140137671Y-111106202D01*
X140137664Y-111106206D01*
X140022455Y-111192452D01*
X140022452Y-111192455D01*
X139936206Y-111307664D01*
X139936202Y-111307671D01*
X139885908Y-111442517D01*
X139879501Y-111502116D01*
X139879501Y-111502123D01*
X139879500Y-111502135D01*
X139879500Y-111612691D01*
X139859815Y-111679730D01*
X139843181Y-111700372D01*
X139304612Y-112238940D01*
X139299111Y-112218409D01*
X139220119Y-112081592D01*
X139108408Y-111969881D01*
X138971591Y-111890889D01*
X138951058Y-111885387D01*
X139538797Y-111297647D01*
X139538797Y-111297645D01*
X139508360Y-111273955D01*
X139508354Y-111273951D01*
X139304302Y-111163523D01*
X139304293Y-111163520D01*
X139084860Y-111088188D01*
X138856007Y-111050000D01*
X138623993Y-111050000D01*
X138395139Y-111088188D01*
X138175706Y-111163520D01*
X138175697Y-111163523D01*
X137971650Y-111273949D01*
X137941200Y-111297647D01*
X138528941Y-111885387D01*
X138508409Y-111890889D01*
X138371592Y-111969881D01*
X138259881Y-112081592D01*
X138180889Y-112218409D01*
X138175387Y-112238941D01*
X137588811Y-111652365D01*
X137574106Y-111674873D01*
X137520959Y-111720230D01*
X137451728Y-111729653D01*
X137388392Y-111700150D01*
X137366489Y-111674873D01*
X137308981Y-111586850D01*
X137308980Y-111586849D01*
X137308979Y-111586847D01*
X137151784Y-111416087D01*
X137151779Y-111416083D01*
X137151777Y-111416081D01*
X136968634Y-111273535D01*
X136968628Y-111273531D01*
X136764504Y-111163064D01*
X136764495Y-111163061D01*
X136544984Y-111087702D01*
X136354450Y-111055908D01*
X136316049Y-111049500D01*
X136083951Y-111049500D01*
X136045550Y-111055908D01*
X135855015Y-111087702D01*
X135635504Y-111163061D01*
X135635495Y-111163064D01*
X135431371Y-111273531D01*
X135431365Y-111273535D01*
X135248222Y-111416081D01*
X135248219Y-111416084D01*
X135248216Y-111416086D01*
X135248216Y-111416087D01*
X135223886Y-111442517D01*
X135091016Y-111586852D01*
X134964075Y-111781151D01*
X134870842Y-111993699D01*
X134813866Y-112218691D01*
X134813864Y-112218702D01*
X134794700Y-112449993D01*
X107894783Y-112449993D01*
X107875063Y-112224596D01*
X107875063Y-112224592D01*
X107813903Y-111996337D01*
X107714035Y-111782171D01*
X107663151Y-111709500D01*
X107578494Y-111588597D01*
X107411402Y-111421506D01*
X107411401Y-111421505D01*
X107225405Y-111291269D01*
X107181781Y-111236692D01*
X107174588Y-111167193D01*
X107206110Y-111104839D01*
X107225405Y-111088119D01*
X107301373Y-111034925D01*
X106669409Y-110402962D01*
X106732993Y-110385925D01*
X106847007Y-110320099D01*
X106940099Y-110227007D01*
X107005925Y-110112993D01*
X107022962Y-110049410D01*
X107654925Y-110681373D01*
X107654926Y-110681373D01*
X107713598Y-110597582D01*
X107713600Y-110597578D01*
X107813429Y-110383492D01*
X107813433Y-110383483D01*
X107874567Y-110155326D01*
X107874569Y-110155315D01*
X107895157Y-109920001D01*
X107895157Y-109919998D01*
X107874569Y-109684684D01*
X107874567Y-109684673D01*
X107813433Y-109456516D01*
X107813429Y-109456507D01*
X107713600Y-109242423D01*
X107713599Y-109242421D01*
X107654925Y-109158626D01*
X107654925Y-109158625D01*
X107022962Y-109790589D01*
X107005925Y-109727007D01*
X106940099Y-109612993D01*
X106847007Y-109519901D01*
X106732993Y-109454075D01*
X106669410Y-109437037D01*
X107301373Y-108805073D01*
X107301373Y-108805072D01*
X107225405Y-108751880D01*
X107181780Y-108697304D01*
X107174586Y-108627805D01*
X107206108Y-108565451D01*
X107225399Y-108548734D01*
X107411401Y-108418495D01*
X107578495Y-108251401D01*
X107714035Y-108057830D01*
X107813903Y-107843663D01*
X107875063Y-107615408D01*
X107895659Y-107380000D01*
X107875063Y-107144592D01*
X107813903Y-106916337D01*
X107714035Y-106702171D01*
X107663151Y-106629500D01*
X107578494Y-106508597D01*
X107411402Y-106341506D01*
X107411401Y-106341505D01*
X107225405Y-106211269D01*
X107181781Y-106156692D01*
X107174588Y-106087193D01*
X107206110Y-106024839D01*
X107225405Y-106008119D01*
X107301373Y-105954925D01*
X106669409Y-105322962D01*
X106732993Y-105305925D01*
X106847007Y-105240099D01*
X106940099Y-105147007D01*
X107005925Y-105032993D01*
X107022962Y-104969410D01*
X107654925Y-105601373D01*
X107654926Y-105601373D01*
X107713598Y-105517582D01*
X107713600Y-105517578D01*
X107813429Y-105303492D01*
X107813433Y-105303483D01*
X107874567Y-105075326D01*
X107874569Y-105075315D01*
X107895157Y-104840001D01*
X107895157Y-104839998D01*
X107874569Y-104604684D01*
X107874567Y-104604673D01*
X107813433Y-104376516D01*
X107813429Y-104376507D01*
X107713600Y-104162423D01*
X107713599Y-104162421D01*
X107669891Y-104099999D01*
X124044659Y-104099999D01*
X124048903Y-104143090D01*
X124049500Y-104155244D01*
X124049500Y-104198544D01*
X124057945Y-104241006D01*
X124059730Y-104253035D01*
X124063975Y-104296130D01*
X124063976Y-104296134D01*
X124076547Y-104337575D01*
X124079503Y-104349378D01*
X124087946Y-104391827D01*
X124087948Y-104391834D01*
X124104517Y-104431834D01*
X124108612Y-104443277D01*
X124121186Y-104484726D01*
X124121187Y-104484729D01*
X124141597Y-104522913D01*
X124146800Y-104533915D01*
X124163368Y-104573914D01*
X124163370Y-104573918D01*
X124187425Y-104609918D01*
X124193678Y-104620350D01*
X124204948Y-104641436D01*
X124214088Y-104658535D01*
X124214094Y-104658543D01*
X124241552Y-104692002D01*
X124248799Y-104701772D01*
X124272860Y-104737781D01*
X124272862Y-104737783D01*
X124272865Y-104737787D01*
X124303479Y-104768401D01*
X124311651Y-104777416D01*
X124339117Y-104810883D01*
X124372579Y-104838345D01*
X124372581Y-104838346D01*
X124381599Y-104846520D01*
X124412214Y-104877136D01*
X124412217Y-104877138D01*
X124412218Y-104877139D01*
X124448217Y-104901193D01*
X124448219Y-104901194D01*
X124457988Y-104908438D01*
X124491462Y-104935910D01*
X124529640Y-104956316D01*
X124540078Y-104962572D01*
X124547899Y-104967797D01*
X124576086Y-104986632D01*
X124616095Y-105003203D01*
X124627091Y-105008404D01*
X124665273Y-105028814D01*
X124706710Y-105041383D01*
X124718160Y-105045480D01*
X124758165Y-105062051D01*
X124800640Y-105070499D01*
X124812414Y-105073448D01*
X124853868Y-105086024D01*
X124896964Y-105090268D01*
X124908990Y-105092052D01*
X124939480Y-105098117D01*
X124951458Y-105100500D01*
X124951459Y-105100500D01*
X124994756Y-105100500D01*
X125006909Y-105101096D01*
X125050000Y-105105341D01*
X125093090Y-105101096D01*
X125105244Y-105100500D01*
X126151459Y-105100500D01*
X126194756Y-105100500D01*
X126206909Y-105101096D01*
X126250000Y-105105341D01*
X126293090Y-105101096D01*
X126305244Y-105100500D01*
X127394756Y-105100500D01*
X127406909Y-105101096D01*
X127450000Y-105105341D01*
X127493090Y-105101096D01*
X127505244Y-105100500D01*
X127548542Y-105100500D01*
X127564454Y-105097334D01*
X127591005Y-105092053D01*
X127603037Y-105090268D01*
X127646132Y-105086024D01*
X127687580Y-105073450D01*
X127699353Y-105070500D01*
X127741835Y-105062051D01*
X127781847Y-105045476D01*
X127793280Y-105041386D01*
X127834727Y-105028814D01*
X127872918Y-105008399D01*
X127883910Y-105003201D01*
X127923914Y-104986632D01*
X127959938Y-104962560D01*
X127970351Y-104956320D01*
X127996591Y-104942295D01*
X128008535Y-104935912D01*
X128008539Y-104935909D01*
X128042005Y-104908444D01*
X128051782Y-104901193D01*
X128087781Y-104877140D01*
X128087783Y-104877138D01*
X128087785Y-104877136D01*
X128118408Y-104846512D01*
X128127402Y-104838359D01*
X128160883Y-104810883D01*
X128188359Y-104777402D01*
X128196512Y-104768408D01*
X128227139Y-104737782D01*
X128251200Y-104701772D01*
X128258444Y-104692005D01*
X128285909Y-104658539D01*
X128285912Y-104658535D01*
X128292295Y-104646591D01*
X128306320Y-104620351D01*
X128312560Y-104609938D01*
X128336632Y-104573914D01*
X128353202Y-104533906D01*
X128358402Y-104522913D01*
X128378814Y-104484727D01*
X128391386Y-104443280D01*
X128395476Y-104431847D01*
X128412051Y-104391835D01*
X128420500Y-104349353D01*
X128423450Y-104337580D01*
X128436024Y-104296132D01*
X128440268Y-104253037D01*
X128442054Y-104240999D01*
X128450500Y-104198541D01*
X128450500Y-104155244D01*
X128451097Y-104143090D01*
X128455341Y-104100000D01*
X128451097Y-104056907D01*
X128450500Y-104044754D01*
X128450500Y-104001458D01*
X128448117Y-103989480D01*
X128442052Y-103958990D01*
X128440268Y-103946961D01*
X128436024Y-103903869D01*
X128436024Y-103903868D01*
X128423448Y-103862414D01*
X128420499Y-103850640D01*
X128412051Y-103808165D01*
X128395480Y-103768159D01*
X128391383Y-103756710D01*
X128378814Y-103715273D01*
X128358404Y-103677091D01*
X128353203Y-103666095D01*
X128336632Y-103626086D01*
X128312572Y-103590078D01*
X128306316Y-103579640D01*
X128285911Y-103541464D01*
X128285910Y-103541462D01*
X128258438Y-103507988D01*
X128251194Y-103498219D01*
X128227140Y-103462219D01*
X128227136Y-103462214D01*
X128196520Y-103431599D01*
X128188346Y-103422581D01*
X128160884Y-103389118D01*
X128127416Y-103361651D01*
X128118401Y-103353479D01*
X128087787Y-103322865D01*
X128087783Y-103322862D01*
X128087780Y-103322860D01*
X128071139Y-103311740D01*
X128051772Y-103298799D01*
X128042002Y-103291552D01*
X128008543Y-103264094D01*
X128008535Y-103264088D01*
X127991436Y-103254948D01*
X127970350Y-103243678D01*
X127959918Y-103237425D01*
X127923918Y-103213370D01*
X127923914Y-103213368D01*
X127883915Y-103196800D01*
X127872913Y-103191597D01*
X127834729Y-103171187D01*
X127834728Y-103171186D01*
X127834727Y-103171186D01*
X127793277Y-103158612D01*
X127781834Y-103154517D01*
X127741834Y-103137948D01*
X127741827Y-103137946D01*
X127699378Y-103129503D01*
X127687575Y-103126547D01*
X127646134Y-103113976D01*
X127646130Y-103113975D01*
X127603035Y-103109730D01*
X127591006Y-103107945D01*
X127548544Y-103099500D01*
X127548541Y-103099500D01*
X127505244Y-103099500D01*
X127493090Y-103098903D01*
X127450000Y-103094659D01*
X127406910Y-103098903D01*
X127394756Y-103099500D01*
X127374500Y-103099500D01*
X127307461Y-103079815D01*
X127261706Y-103027011D01*
X127250500Y-102975500D01*
X127250500Y-102249993D01*
X131614700Y-102249993D01*
X131614700Y-102250006D01*
X131633864Y-102481297D01*
X131633866Y-102481308D01*
X131690842Y-102706300D01*
X131784075Y-102918848D01*
X131911016Y-103113147D01*
X131911019Y-103113151D01*
X131911021Y-103113153D01*
X132068216Y-103283913D01*
X132068219Y-103283915D01*
X132068222Y-103283918D01*
X132251365Y-103426464D01*
X132251371Y-103426468D01*
X132251374Y-103426470D01*
X132393317Y-103503286D01*
X132454652Y-103536479D01*
X132455497Y-103536936D01*
X132563178Y-103573903D01*
X132675015Y-103612297D01*
X132675017Y-103612297D01*
X132675019Y-103612298D01*
X132903951Y-103650500D01*
X132903952Y-103650500D01*
X133136048Y-103650500D01*
X133136049Y-103650500D01*
X133364981Y-103612298D01*
X133584503Y-103536936D01*
X133788626Y-103426470D01*
X133789170Y-103426047D01*
X133921743Y-103322861D01*
X133971784Y-103283913D01*
X134128979Y-103113153D01*
X134186490Y-103025124D01*
X134239635Y-102979769D01*
X134308866Y-102970345D01*
X134372202Y-102999846D01*
X134394107Y-103025125D01*
X134408812Y-103047633D01*
X134995387Y-102461058D01*
X135000889Y-102481591D01*
X135079881Y-102618408D01*
X135191592Y-102730119D01*
X135328409Y-102809111D01*
X135348940Y-102814612D01*
X134761201Y-103402351D01*
X134791649Y-103426050D01*
X134995697Y-103536476D01*
X134995706Y-103536479D01*
X135215139Y-103611811D01*
X135443993Y-103650000D01*
X135676007Y-103650000D01*
X135904860Y-103611811D01*
X136124293Y-103536479D01*
X136124301Y-103536476D01*
X136328355Y-103426047D01*
X136358797Y-103402351D01*
X136358798Y-103402350D01*
X135771060Y-102814612D01*
X135791591Y-102809111D01*
X135928408Y-102730119D01*
X136040119Y-102618408D01*
X136119111Y-102481591D01*
X136124612Y-102461059D01*
X136663181Y-102999627D01*
X136696666Y-103060950D01*
X136699500Y-103087307D01*
X136699500Y-103197869D01*
X136699501Y-103197876D01*
X136705908Y-103257483D01*
X136756202Y-103392328D01*
X136756206Y-103392335D01*
X136842452Y-103507544D01*
X136842455Y-103507547D01*
X136957664Y-103593793D01*
X136957671Y-103593797D01*
X137092517Y-103644091D01*
X137092516Y-103644091D01*
X137099444Y-103644835D01*
X137152127Y-103650500D01*
X139047872Y-103650499D01*
X139107483Y-103644091D01*
X139242331Y-103593796D01*
X139357546Y-103507546D01*
X139443796Y-103392331D01*
X139494091Y-103257483D01*
X139500500Y-103197873D01*
X139500499Y-101302128D01*
X139494091Y-101242517D01*
X139484233Y-101216087D01*
X139443797Y-101107671D01*
X139443793Y-101107664D01*
X139357547Y-100992455D01*
X139357544Y-100992452D01*
X139242335Y-100906206D01*
X139242328Y-100906202D01*
X139107482Y-100855908D01*
X139107483Y-100855908D01*
X139047883Y-100849501D01*
X139047881Y-100849500D01*
X139047873Y-100849500D01*
X139047864Y-100849500D01*
X137152129Y-100849500D01*
X137152123Y-100849501D01*
X137092516Y-100855908D01*
X136957671Y-100906202D01*
X136957664Y-100906206D01*
X136842455Y-100992452D01*
X136842452Y-100992455D01*
X136756206Y-101107664D01*
X136756202Y-101107671D01*
X136705908Y-101242517D01*
X136703867Y-101261505D01*
X136699501Y-101302123D01*
X136699500Y-101302135D01*
X136699500Y-101412691D01*
X136679815Y-101479730D01*
X136663181Y-101500372D01*
X136124612Y-102038940D01*
X136119111Y-102018409D01*
X136040119Y-101881592D01*
X135928408Y-101769881D01*
X135791591Y-101690889D01*
X135771058Y-101685387D01*
X136358797Y-101097647D01*
X136358797Y-101097645D01*
X136328360Y-101073955D01*
X136328354Y-101073951D01*
X136124302Y-100963523D01*
X136124293Y-100963520D01*
X135904860Y-100888188D01*
X135676007Y-100850000D01*
X135443993Y-100850000D01*
X135215139Y-100888188D01*
X134995706Y-100963520D01*
X134995697Y-100963523D01*
X134791650Y-101073949D01*
X134761200Y-101097647D01*
X135348941Y-101685387D01*
X135328409Y-101690889D01*
X135191592Y-101769881D01*
X135079881Y-101881592D01*
X135000889Y-102018409D01*
X134995387Y-102038941D01*
X134408811Y-101452365D01*
X134394106Y-101474873D01*
X134340959Y-101520230D01*
X134271728Y-101529653D01*
X134208392Y-101500150D01*
X134186489Y-101474873D01*
X134128981Y-101386850D01*
X134128980Y-101386849D01*
X134128979Y-101386847D01*
X133971784Y-101216087D01*
X133971779Y-101216083D01*
X133971777Y-101216081D01*
X133788634Y-101073535D01*
X133788628Y-101073531D01*
X133584504Y-100963064D01*
X133584495Y-100963061D01*
X133364984Y-100887702D01*
X133174450Y-100855908D01*
X133136049Y-100849500D01*
X132903951Y-100849500D01*
X132865550Y-100855908D01*
X132675015Y-100887702D01*
X132455504Y-100963061D01*
X132455495Y-100963064D01*
X132251371Y-101073531D01*
X132251365Y-101073535D01*
X132068222Y-101216081D01*
X132068219Y-101216084D01*
X132068216Y-101216086D01*
X132068216Y-101216087D01*
X132043886Y-101242517D01*
X131911016Y-101386852D01*
X131784075Y-101581151D01*
X131690842Y-101793699D01*
X131633866Y-102018691D01*
X131633864Y-102018702D01*
X131614700Y-102249993D01*
X127250500Y-102249993D01*
X127250500Y-98665782D01*
X127270185Y-98598743D01*
X127286819Y-98578101D01*
X135312766Y-90552155D01*
X161850000Y-90552155D01*
X161850000Y-91550000D01*
X163001518Y-91550000D01*
X162990889Y-91568409D01*
X162950000Y-91721009D01*
X162950000Y-91878991D01*
X162990889Y-92031591D01*
X163001518Y-92050000D01*
X161850000Y-92050000D01*
X161850000Y-93047844D01*
X161856401Y-93107372D01*
X161856403Y-93107379D01*
X161906645Y-93242086D01*
X161906649Y-93242093D01*
X161992809Y-93357187D01*
X161992812Y-93357190D01*
X162107906Y-93443350D01*
X162107913Y-93443354D01*
X162242620Y-93493596D01*
X162242627Y-93493598D01*
X162302155Y-93499999D01*
X162302172Y-93500000D01*
X163300000Y-93500000D01*
X163300000Y-92348482D01*
X163318409Y-92359111D01*
X163471009Y-92400000D01*
X163628991Y-92400000D01*
X163781591Y-92359111D01*
X163800000Y-92348482D01*
X163800000Y-93500000D01*
X164797828Y-93500000D01*
X164797844Y-93499999D01*
X164857372Y-93493598D01*
X164857379Y-93493596D01*
X164992086Y-93443354D01*
X164992093Y-93443350D01*
X165107187Y-93357190D01*
X165107190Y-93357187D01*
X165193350Y-93242093D01*
X165193354Y-93242086D01*
X165243596Y-93107379D01*
X165243598Y-93107372D01*
X165249999Y-93047844D01*
X165250000Y-93047827D01*
X165250000Y-92050000D01*
X164098482Y-92050000D01*
X164109111Y-92031591D01*
X164150000Y-91878991D01*
X164150000Y-91721009D01*
X164109111Y-91568409D01*
X164098482Y-91550000D01*
X165250000Y-91550000D01*
X165250000Y-90552172D01*
X165249999Y-90552155D01*
X165243598Y-90492627D01*
X165243596Y-90492620D01*
X165193354Y-90357913D01*
X165193350Y-90357906D01*
X165107190Y-90242812D01*
X165107187Y-90242809D01*
X164992093Y-90156649D01*
X164992086Y-90156645D01*
X164857379Y-90106403D01*
X164857372Y-90106401D01*
X164797844Y-90100000D01*
X163800000Y-90100000D01*
X163800000Y-91251517D01*
X163781591Y-91240889D01*
X163628991Y-91200000D01*
X163471009Y-91200000D01*
X163318409Y-91240889D01*
X163300000Y-91251517D01*
X163300000Y-90100000D01*
X162302155Y-90100000D01*
X162242627Y-90106401D01*
X162242620Y-90106403D01*
X162107913Y-90156645D01*
X162107906Y-90156649D01*
X161992812Y-90242809D01*
X161992809Y-90242812D01*
X161906649Y-90357906D01*
X161906645Y-90357913D01*
X161856403Y-90492620D01*
X161856401Y-90492627D01*
X161850000Y-90552155D01*
X135312766Y-90552155D01*
X138028102Y-87836819D01*
X138089425Y-87803334D01*
X138115783Y-87800500D01*
X147625500Y-87800500D01*
X147692539Y-87820185D01*
X147738294Y-87872989D01*
X147749500Y-87924500D01*
X147749500Y-87994754D01*
X147748903Y-88006907D01*
X147744659Y-88049999D01*
X147748903Y-88093090D01*
X147749500Y-88105244D01*
X147749500Y-88148544D01*
X147757945Y-88191006D01*
X147759730Y-88203035D01*
X147763975Y-88246130D01*
X147763976Y-88246134D01*
X147776547Y-88287575D01*
X147779503Y-88299378D01*
X147787946Y-88341827D01*
X147787948Y-88341834D01*
X147804517Y-88381834D01*
X147808612Y-88393277D01*
X147821186Y-88434726D01*
X147821187Y-88434729D01*
X147841597Y-88472913D01*
X147846800Y-88483915D01*
X147863368Y-88523914D01*
X147863370Y-88523918D01*
X147887425Y-88559918D01*
X147893678Y-88570350D01*
X147902536Y-88586921D01*
X147914088Y-88608535D01*
X147914094Y-88608543D01*
X147941552Y-88642002D01*
X147948799Y-88651772D01*
X147972860Y-88687781D01*
X147972862Y-88687783D01*
X147972865Y-88687787D01*
X148003479Y-88718401D01*
X148011651Y-88727416D01*
X148039117Y-88760883D01*
X148072579Y-88788345D01*
X148072581Y-88788346D01*
X148081599Y-88796520D01*
X148112214Y-88827136D01*
X148112217Y-88827138D01*
X148112218Y-88827139D01*
X148148217Y-88851193D01*
X148148219Y-88851194D01*
X148157988Y-88858438D01*
X148191462Y-88885910D01*
X148229640Y-88906316D01*
X148240078Y-88912572D01*
X148247899Y-88917797D01*
X148276086Y-88936632D01*
X148316095Y-88953203D01*
X148327091Y-88958404D01*
X148365273Y-88978814D01*
X148406710Y-88991383D01*
X148418160Y-88995480D01*
X148458165Y-89012051D01*
X148500640Y-89020499D01*
X148512414Y-89023448D01*
X148553868Y-89036024D01*
X148596964Y-89040268D01*
X148608990Y-89042052D01*
X148639480Y-89048117D01*
X148651458Y-89050500D01*
X148651459Y-89050500D01*
X148694756Y-89050500D01*
X148706909Y-89051096D01*
X148750000Y-89055341D01*
X148793090Y-89051096D01*
X148805244Y-89050500D01*
X148848542Y-89050500D01*
X148864454Y-89047334D01*
X148891005Y-89042053D01*
X148903037Y-89040268D01*
X148946132Y-89036024D01*
X148987580Y-89023450D01*
X148999353Y-89020500D01*
X149041835Y-89012051D01*
X149081847Y-88995476D01*
X149093280Y-88991386D01*
X149134727Y-88978814D01*
X149172918Y-88958399D01*
X149183910Y-88953201D01*
X149223914Y-88936632D01*
X149259938Y-88912560D01*
X149270351Y-88906320D01*
X149296591Y-88892295D01*
X149308535Y-88885912D01*
X149308539Y-88885909D01*
X149342005Y-88858444D01*
X149351782Y-88851193D01*
X149387781Y-88827140D01*
X149387783Y-88827138D01*
X149387785Y-88827136D01*
X149418408Y-88796512D01*
X149427402Y-88788359D01*
X149460883Y-88760883D01*
X149488359Y-88727402D01*
X149496512Y-88718408D01*
X149527139Y-88687782D01*
X149551200Y-88651772D01*
X149558444Y-88642005D01*
X149585909Y-88608539D01*
X149585912Y-88608535D01*
X149597464Y-88586921D01*
X149606320Y-88570351D01*
X149612560Y-88559938D01*
X149636632Y-88523914D01*
X149653202Y-88483906D01*
X149658402Y-88472913D01*
X149678814Y-88434727D01*
X149691386Y-88393280D01*
X149695476Y-88381847D01*
X149712051Y-88341835D01*
X149720500Y-88299353D01*
X149723450Y-88287580D01*
X149736024Y-88246132D01*
X149740268Y-88203037D01*
X149742054Y-88190999D01*
X149750500Y-88148541D01*
X149750500Y-88105244D01*
X149751097Y-88093090D01*
X149755341Y-88050000D01*
X149751097Y-88006907D01*
X149750500Y-87994754D01*
X149750500Y-86855244D01*
X149751097Y-86843090D01*
X149755341Y-86800000D01*
X149755341Y-86799995D01*
X161844732Y-86799995D01*
X161844732Y-86800004D01*
X161863777Y-87054154D01*
X161863778Y-87054157D01*
X161920492Y-87302637D01*
X162013607Y-87539888D01*
X162141041Y-87760612D01*
X162299950Y-87959877D01*
X162486783Y-88133232D01*
X162697366Y-88276805D01*
X162697371Y-88276807D01*
X162697372Y-88276808D01*
X162697373Y-88276809D01*
X162744239Y-88299378D01*
X162926992Y-88387387D01*
X162926993Y-88387387D01*
X162926996Y-88387389D01*
X163170542Y-88462513D01*
X163422565Y-88500500D01*
X163677435Y-88500500D01*
X163929458Y-88462513D01*
X164173004Y-88387389D01*
X164402634Y-88276805D01*
X164613217Y-88133232D01*
X164800050Y-87959877D01*
X164958959Y-87760612D01*
X165086393Y-87539888D01*
X165179508Y-87302637D01*
X165236222Y-87054157D01*
X165255268Y-86800000D01*
X165251215Y-86745920D01*
X165236222Y-86545845D01*
X165212266Y-86440889D01*
X165179508Y-86297363D01*
X165086393Y-86060112D01*
X164958959Y-85839388D01*
X164800050Y-85640123D01*
X164613217Y-85466768D01*
X164402634Y-85323195D01*
X164402630Y-85323193D01*
X164402627Y-85323191D01*
X164402626Y-85323190D01*
X164173006Y-85212612D01*
X164173008Y-85212612D01*
X163929466Y-85137489D01*
X163929462Y-85137488D01*
X163929458Y-85137487D01*
X163808231Y-85119214D01*
X163677440Y-85099500D01*
X163677435Y-85099500D01*
X163422565Y-85099500D01*
X163422559Y-85099500D01*
X163275167Y-85121717D01*
X163170542Y-85137487D01*
X163170539Y-85137488D01*
X163170533Y-85137489D01*
X162926992Y-85212612D01*
X162697373Y-85323190D01*
X162697372Y-85323191D01*
X162486782Y-85466768D01*
X162299952Y-85640121D01*
X162299950Y-85640123D01*
X162141041Y-85839388D01*
X162013608Y-86060109D01*
X161920492Y-86297362D01*
X161920490Y-86297369D01*
X161863777Y-86545845D01*
X161844732Y-86799995D01*
X149755341Y-86799995D01*
X149751097Y-86756907D01*
X149750500Y-86744754D01*
X149750500Y-85605244D01*
X149751097Y-85593090D01*
X149755341Y-85550000D01*
X149751097Y-85506907D01*
X149750500Y-85494754D01*
X149750500Y-85451458D01*
X149742865Y-85413078D01*
X149742052Y-85408990D01*
X149740268Y-85396961D01*
X149736024Y-85353869D01*
X149736024Y-85353868D01*
X149723448Y-85312414D01*
X149720499Y-85300640D01*
X149712051Y-85258165D01*
X149695480Y-85218159D01*
X149691383Y-85206710D01*
X149678814Y-85165273D01*
X149658404Y-85127091D01*
X149653203Y-85116095D01*
X149636632Y-85076086D01*
X149612572Y-85040078D01*
X149606316Y-85029640D01*
X149585911Y-84991464D01*
X149585910Y-84991462D01*
X149558438Y-84957988D01*
X149551194Y-84948219D01*
X149527140Y-84912219D01*
X149527136Y-84912214D01*
X149496520Y-84881599D01*
X149488346Y-84872581D01*
X149460884Y-84839118D01*
X149427416Y-84811651D01*
X149418401Y-84803479D01*
X149387787Y-84772865D01*
X149387783Y-84772862D01*
X149387780Y-84772860D01*
X149371139Y-84761740D01*
X149351772Y-84748799D01*
X149342002Y-84741552D01*
X149308543Y-84714094D01*
X149308535Y-84714088D01*
X149291436Y-84704948D01*
X149270350Y-84693678D01*
X149259918Y-84687425D01*
X149223918Y-84663370D01*
X149223914Y-84663368D01*
X149183915Y-84646800D01*
X149172913Y-84641597D01*
X149134729Y-84621187D01*
X149134728Y-84621186D01*
X149134727Y-84621186D01*
X149093277Y-84608612D01*
X149081834Y-84604517D01*
X149041834Y-84587948D01*
X149041827Y-84587946D01*
X148999378Y-84579503D01*
X148987575Y-84576547D01*
X148946134Y-84563976D01*
X148946130Y-84563975D01*
X148903035Y-84559730D01*
X148891006Y-84557945D01*
X148848544Y-84549500D01*
X148848541Y-84549500D01*
X148805244Y-84549500D01*
X148793090Y-84548903D01*
X148750000Y-84544659D01*
X148706910Y-84548903D01*
X148694756Y-84549500D01*
X148651453Y-84549500D01*
X148608991Y-84557945D01*
X148596963Y-84559730D01*
X148553867Y-84563976D01*
X148512427Y-84576546D01*
X148500626Y-84579502D01*
X148458166Y-84587948D01*
X148458161Y-84587949D01*
X148418159Y-84604518D01*
X148406707Y-84608616D01*
X148365272Y-84621186D01*
X148327091Y-84641594D01*
X148316093Y-84646795D01*
X148276091Y-84663364D01*
X148240080Y-84687426D01*
X148229645Y-84693680D01*
X148191465Y-84714087D01*
X148191460Y-84714091D01*
X148157990Y-84741557D01*
X148148225Y-84748799D01*
X148112225Y-84772855D01*
X148112219Y-84772860D01*
X148081595Y-84803483D01*
X148072584Y-84811650D01*
X148039117Y-84839117D01*
X148011650Y-84872584D01*
X148003483Y-84881595D01*
X147972860Y-84912219D01*
X147972855Y-84912225D01*
X147948799Y-84948225D01*
X147941557Y-84957990D01*
X147914091Y-84991460D01*
X147914087Y-84991465D01*
X147893680Y-85029645D01*
X147887426Y-85040080D01*
X147863364Y-85076091D01*
X147846795Y-85116093D01*
X147841594Y-85127091D01*
X147821186Y-85165272D01*
X147808616Y-85206707D01*
X147804518Y-85218159D01*
X147787949Y-85258161D01*
X147787948Y-85258166D01*
X147779502Y-85300626D01*
X147776546Y-85312427D01*
X147763976Y-85353867D01*
X147759730Y-85396963D01*
X147757945Y-85408991D01*
X147749500Y-85451453D01*
X147749500Y-85494754D01*
X147748903Y-85506907D01*
X147744659Y-85549999D01*
X147748903Y-85593090D01*
X147749500Y-85605244D01*
X147749500Y-85675500D01*
X147729815Y-85742539D01*
X147677011Y-85788294D01*
X147625500Y-85799500D01*
X137754675Y-85799500D01*
X137754655Y-85799499D01*
X137748541Y-85799499D01*
X137551460Y-85799499D01*
X137551457Y-85799499D01*
X137358172Y-85837946D01*
X137358164Y-85837948D01*
X137176088Y-85913366D01*
X137176079Y-85913371D01*
X137012219Y-86022859D01*
X137012215Y-86022862D01*
X128439811Y-94595268D01*
X125612220Y-97422859D01*
X125612218Y-97422861D01*
X125542538Y-97492540D01*
X125472859Y-97562219D01*
X125363371Y-97726079D01*
X125363364Y-97726092D01*
X125319875Y-97831088D01*
X125319875Y-97831089D01*
X125289469Y-97904496D01*
X125289467Y-97904500D01*
X125287949Y-97908163D01*
X125249500Y-98101456D01*
X125249500Y-102975500D01*
X125229815Y-103042539D01*
X125177011Y-103088294D01*
X125125500Y-103099500D01*
X125105244Y-103099500D01*
X125093090Y-103098903D01*
X125050000Y-103094659D01*
X125006910Y-103098903D01*
X124994756Y-103099500D01*
X124951453Y-103099500D01*
X124908991Y-103107945D01*
X124896963Y-103109730D01*
X124853867Y-103113976D01*
X124812427Y-103126546D01*
X124800626Y-103129502D01*
X124758166Y-103137948D01*
X124758161Y-103137949D01*
X124718159Y-103154518D01*
X124706707Y-103158616D01*
X124665272Y-103171186D01*
X124627091Y-103191594D01*
X124616093Y-103196795D01*
X124576091Y-103213364D01*
X124540080Y-103237426D01*
X124529645Y-103243680D01*
X124491465Y-103264087D01*
X124491460Y-103264091D01*
X124457990Y-103291557D01*
X124448225Y-103298799D01*
X124412225Y-103322855D01*
X124412219Y-103322860D01*
X124381595Y-103353483D01*
X124372584Y-103361650D01*
X124339117Y-103389117D01*
X124311650Y-103422584D01*
X124303483Y-103431595D01*
X124272860Y-103462219D01*
X124272855Y-103462225D01*
X124248799Y-103498225D01*
X124241557Y-103507990D01*
X124214091Y-103541460D01*
X124214087Y-103541465D01*
X124193680Y-103579645D01*
X124187426Y-103590080D01*
X124163364Y-103626091D01*
X124146795Y-103666093D01*
X124141594Y-103677091D01*
X124121186Y-103715272D01*
X124108616Y-103756707D01*
X124104518Y-103768159D01*
X124087949Y-103808161D01*
X124087948Y-103808166D01*
X124079502Y-103850626D01*
X124076546Y-103862427D01*
X124063976Y-103903867D01*
X124059730Y-103946963D01*
X124057945Y-103958991D01*
X124049500Y-104001453D01*
X124049500Y-104044754D01*
X124048903Y-104056907D01*
X124044659Y-104099999D01*
X107669891Y-104099999D01*
X107654925Y-104078626D01*
X107654925Y-104078625D01*
X107022962Y-104710589D01*
X107005925Y-104647007D01*
X106940099Y-104532993D01*
X106847007Y-104439901D01*
X106732993Y-104374075D01*
X106669410Y-104357037D01*
X107301373Y-103725073D01*
X107301373Y-103725072D01*
X107225405Y-103671880D01*
X107181780Y-103617304D01*
X107174586Y-103547805D01*
X107206108Y-103485451D01*
X107225399Y-103468734D01*
X107411401Y-103338495D01*
X107578495Y-103171401D01*
X107714035Y-102977830D01*
X107813903Y-102763663D01*
X107875063Y-102535408D01*
X107895659Y-102300000D01*
X107875063Y-102064592D01*
X107813903Y-101836337D01*
X107714035Y-101622171D01*
X107708425Y-101614158D01*
X107578494Y-101428597D01*
X107411402Y-101261506D01*
X107411396Y-101261501D01*
X107225842Y-101131575D01*
X107182217Y-101076998D01*
X107175023Y-101007500D01*
X107206546Y-100945145D01*
X107225842Y-100928425D01*
X107329405Y-100855909D01*
X107411401Y-100798495D01*
X107578495Y-100631401D01*
X107714035Y-100437830D01*
X107813903Y-100223663D01*
X107875063Y-99995408D01*
X107895659Y-99760000D01*
X107877022Y-99546984D01*
X107890788Y-99478485D01*
X107912866Y-99448499D01*
X108832951Y-98528416D01*
X108915084Y-98405495D01*
X108971658Y-98268913D01*
X108997433Y-98139336D01*
X109000500Y-98123920D01*
X109000500Y-91362229D01*
X109020185Y-91295190D01*
X109036819Y-91274548D01*
X115184276Y-85127091D01*
X121332952Y-78978415D01*
X121360205Y-78937627D01*
X121415084Y-78855495D01*
X121469342Y-78724505D01*
X121471659Y-78718912D01*
X121500500Y-78573917D01*
X121500500Y-78426082D01*
X121500500Y-76038940D01*
X121520185Y-75971901D01*
X121572989Y-75926146D01*
X121585265Y-75921938D01*
X121585215Y-75921802D01*
X121727328Y-75868797D01*
X121727327Y-75868797D01*
X121727331Y-75868796D01*
X121842546Y-75782546D01*
X121928796Y-75667331D01*
X121979091Y-75532483D01*
X121985500Y-75472873D01*
X121985499Y-72607128D01*
X121979091Y-72547517D01*
X121928796Y-72412669D01*
X121862650Y-72324310D01*
X121838234Y-72258847D01*
X121853085Y-72190574D01*
X121862651Y-72175689D01*
X121928796Y-72087331D01*
X121979091Y-71952483D01*
X121985500Y-71892873D01*
X121985499Y-69027128D01*
X121979091Y-68967517D01*
X121969743Y-68942455D01*
X121928797Y-68832671D01*
X121928793Y-68832664D01*
X121842547Y-68717455D01*
X121842544Y-68717452D01*
X121727335Y-68631206D01*
X121727328Y-68631202D01*
X121592482Y-68580908D01*
X121592483Y-68580908D01*
X121532883Y-68574501D01*
X121532881Y-68574500D01*
X121532873Y-68574500D01*
X121532864Y-68574500D01*
X119967129Y-68574500D01*
X119967123Y-68574501D01*
X119907516Y-68580908D01*
X119772671Y-68631202D01*
X119772664Y-68631206D01*
X119657455Y-68717452D01*
X119657452Y-68717455D01*
X119571206Y-68832664D01*
X119571202Y-68832671D01*
X119520908Y-68967517D01*
X119514501Y-69027116D01*
X119514501Y-69027123D01*
X119514500Y-69027135D01*
X119514500Y-69585500D01*
X119494815Y-69652539D01*
X119442011Y-69698294D01*
X119390500Y-69709500D01*
X108074499Y-69709500D01*
X108007460Y-69689815D01*
X107961705Y-69637011D01*
X107950499Y-69585500D01*
X107950499Y-69252129D01*
X107950498Y-69252123D01*
X107950497Y-69252116D01*
X107944091Y-69192517D01*
X107893796Y-69057669D01*
X107893795Y-69057668D01*
X107893793Y-69057664D01*
X107807547Y-68942455D01*
X107807544Y-68942452D01*
X107692335Y-68856206D01*
X107692328Y-68856202D01*
X107557482Y-68805908D01*
X107557483Y-68805908D01*
X107497883Y-68799501D01*
X107497881Y-68799500D01*
X107497873Y-68799500D01*
X107497864Y-68799500D01*
X105002129Y-68799500D01*
X105002123Y-68799501D01*
X104942516Y-68805908D01*
X104807671Y-68856202D01*
X104807664Y-68856206D01*
X104692455Y-68942452D01*
X104692452Y-68942455D01*
X104606206Y-69057664D01*
X104606202Y-69057671D01*
X104555908Y-69192517D01*
X104549501Y-69252116D01*
X104549501Y-69252123D01*
X104549500Y-69252135D01*
X104549500Y-71747870D01*
X104549501Y-71747876D01*
X104555908Y-71807483D01*
X104606202Y-71942328D01*
X104606206Y-71942335D01*
X104692452Y-72057544D01*
X104692455Y-72057547D01*
X104807664Y-72143793D01*
X104807671Y-72143797D01*
X104942517Y-72194091D01*
X104942516Y-72194091D01*
X104949444Y-72194835D01*
X105002127Y-72200500D01*
X107497872Y-72200499D01*
X107557483Y-72194091D01*
X107692331Y-72143796D01*
X107807546Y-72057546D01*
X107893796Y-71942331D01*
X107944091Y-71807483D01*
X107950500Y-71747873D01*
X107950500Y-71334500D01*
X107970185Y-71267461D01*
X108022989Y-71221706D01*
X108074500Y-71210500D01*
X119390501Y-71210500D01*
X119457540Y-71230185D01*
X119503295Y-71282989D01*
X119514501Y-71334500D01*
X119514501Y-71892876D01*
X119520908Y-71952483D01*
X119571202Y-72087328D01*
X119571203Y-72087330D01*
X119637349Y-72175689D01*
X119661766Y-72241153D01*
X119646915Y-72309426D01*
X119637349Y-72324311D01*
X119571203Y-72412669D01*
X119571202Y-72412671D01*
X119520908Y-72547517D01*
X119514501Y-72607116D01*
X119514501Y-72607123D01*
X119514500Y-72607135D01*
X119514500Y-75472870D01*
X119514501Y-75472876D01*
X119520908Y-75532483D01*
X119571202Y-75667328D01*
X119571206Y-75667335D01*
X119657452Y-75782544D01*
X119657455Y-75782547D01*
X119772664Y-75868793D01*
X119772671Y-75868797D01*
X119914785Y-75921802D01*
X119913986Y-75923944D01*
X119964721Y-75952826D01*
X119997114Y-76014733D01*
X119999500Y-76038940D01*
X119999500Y-78137770D01*
X119979815Y-78204809D01*
X119963181Y-78225451D01*
X116462181Y-81726451D01*
X116400858Y-81759936D01*
X116331166Y-81754952D01*
X116275233Y-81713080D01*
X116250816Y-81647616D01*
X116250500Y-81638770D01*
X116250500Y-81078940D01*
X116270185Y-81011901D01*
X116322989Y-80966146D01*
X116335265Y-80961938D01*
X116335215Y-80961802D01*
X116477328Y-80908797D01*
X116477327Y-80908797D01*
X116477331Y-80908796D01*
X116592546Y-80822546D01*
X116678796Y-80707331D01*
X116729091Y-80572483D01*
X116735500Y-80512873D01*
X116735499Y-77647128D01*
X116729091Y-77587517D01*
X116678796Y-77452669D01*
X116612650Y-77364310D01*
X116588234Y-77298847D01*
X116603085Y-77230574D01*
X116612651Y-77215689D01*
X116678796Y-77127331D01*
X116729091Y-76992483D01*
X116735500Y-76932873D01*
X116735499Y-74067128D01*
X116729091Y-74007517D01*
X116693693Y-73912611D01*
X116678797Y-73872671D01*
X116678793Y-73872664D01*
X116592547Y-73757455D01*
X116592544Y-73757452D01*
X116477335Y-73671206D01*
X116477328Y-73671202D01*
X116342482Y-73620908D01*
X116342483Y-73620908D01*
X116282883Y-73614501D01*
X116282881Y-73614500D01*
X116282873Y-73614500D01*
X116282864Y-73614500D01*
X114717129Y-73614500D01*
X114717123Y-73614501D01*
X114657516Y-73620908D01*
X114522671Y-73671202D01*
X114522664Y-73671206D01*
X114407455Y-73757452D01*
X114407452Y-73757455D01*
X114321206Y-73872664D01*
X114321202Y-73872671D01*
X114270908Y-74007517D01*
X114269223Y-74023195D01*
X114264501Y-74067123D01*
X114264500Y-74067135D01*
X114264500Y-74625500D01*
X114244815Y-74692539D01*
X114192011Y-74738294D01*
X114140500Y-74749500D01*
X107851858Y-74749500D01*
X107784819Y-74729815D01*
X107744471Y-74687500D01*
X107708675Y-74625500D01*
X107658959Y-74539388D01*
X107500050Y-74340123D01*
X107313217Y-74166768D01*
X107102634Y-74023195D01*
X107102630Y-74023193D01*
X107102627Y-74023191D01*
X107102626Y-74023190D01*
X106873006Y-73912612D01*
X106873008Y-73912612D01*
X106629466Y-73837489D01*
X106629462Y-73837488D01*
X106629458Y-73837487D01*
X106508231Y-73819214D01*
X106377440Y-73799500D01*
X106377435Y-73799500D01*
X106122565Y-73799500D01*
X106122559Y-73799500D01*
X105965609Y-73823157D01*
X105870542Y-73837487D01*
X105870539Y-73837488D01*
X105870533Y-73837489D01*
X105626992Y-73912612D01*
X105397373Y-74023190D01*
X105397372Y-74023191D01*
X105186782Y-74166768D01*
X104999952Y-74340121D01*
X104999950Y-74340123D01*
X104841041Y-74539388D01*
X104713608Y-74760109D01*
X104620492Y-74997362D01*
X104620490Y-74997369D01*
X104563777Y-75245845D01*
X104544732Y-75499995D01*
X104544732Y-75500004D01*
X104563777Y-75754154D01*
X104613476Y-75971901D01*
X104620492Y-76002637D01*
X104713607Y-76239888D01*
X104841041Y-76460612D01*
X104999950Y-76659877D01*
X105186783Y-76833232D01*
X105397366Y-76976805D01*
X105397371Y-76976807D01*
X105397372Y-76976808D01*
X105397373Y-76976809D01*
X105519328Y-77035538D01*
X105626992Y-77087387D01*
X105626993Y-77087387D01*
X105626996Y-77087389D01*
X105870542Y-77162513D01*
X106122565Y-77200500D01*
X106377435Y-77200500D01*
X106629458Y-77162513D01*
X106873004Y-77087389D01*
X107102634Y-76976805D01*
X107313217Y-76833232D01*
X107500050Y-76659877D01*
X107658959Y-76460612D01*
X107744471Y-76312500D01*
X107795038Y-76264284D01*
X107851858Y-76250500D01*
X114140501Y-76250500D01*
X114207540Y-76270185D01*
X114253295Y-76322989D01*
X114264501Y-76374500D01*
X114264501Y-76932876D01*
X114270908Y-76992483D01*
X114321202Y-77127328D01*
X114321203Y-77127330D01*
X114387349Y-77215689D01*
X114411766Y-77281153D01*
X114396915Y-77349426D01*
X114387349Y-77364311D01*
X114321203Y-77452669D01*
X114321202Y-77452671D01*
X114270908Y-77587517D01*
X114264501Y-77647116D01*
X114264501Y-77647123D01*
X114264500Y-77647135D01*
X114264500Y-80512870D01*
X114264501Y-80512876D01*
X114270908Y-80572483D01*
X114321202Y-80707328D01*
X114321206Y-80707335D01*
X114407452Y-80822544D01*
X114407455Y-80822547D01*
X114522664Y-80908793D01*
X114522671Y-80908797D01*
X114664785Y-80961802D01*
X114663986Y-80963944D01*
X114714721Y-80992826D01*
X114747114Y-81054733D01*
X114749500Y-81078940D01*
X114749500Y-81637769D01*
X114729815Y-81704808D01*
X114713181Y-81725450D01*
X101917050Y-94521580D01*
X101917044Y-94521588D01*
X101867812Y-94595268D01*
X101867813Y-94595269D01*
X101834921Y-94644496D01*
X101834914Y-94644508D01*
X101778342Y-94781086D01*
X101778340Y-94781092D01*
X101749500Y-94926079D01*
X101749500Y-94926082D01*
X101749500Y-98333918D01*
X101749500Y-98333920D01*
X101749499Y-98333920D01*
X100500500Y-98333920D01*
X100500500Y-86999995D01*
X104545233Y-86999995D01*
X104545233Y-87000004D01*
X104564273Y-87254079D01*
X104620968Y-87502477D01*
X104620973Y-87502494D01*
X104714058Y-87739671D01*
X104714057Y-87739671D01*
X104841454Y-87960327D01*
X104841461Y-87960338D01*
X104883452Y-88012991D01*
X104883453Y-88012992D01*
X105685387Y-87211058D01*
X105690889Y-87231591D01*
X105769881Y-87368408D01*
X105881592Y-87480119D01*
X106018409Y-87559111D01*
X106038940Y-87564612D01*
X105236813Y-88366738D01*
X105397616Y-88476371D01*
X105397624Y-88476376D01*
X105627176Y-88586921D01*
X105627174Y-88586921D01*
X105870652Y-88662024D01*
X105870658Y-88662026D01*
X106122595Y-88699999D01*
X106122604Y-88700000D01*
X106377396Y-88700000D01*
X106377404Y-88699999D01*
X106629341Y-88662026D01*
X106629347Y-88662024D01*
X106872824Y-88586921D01*
X107102376Y-88476376D01*
X107102377Y-88476375D01*
X107263185Y-88366738D01*
X106461060Y-87564612D01*
X106481591Y-87559111D01*
X106618408Y-87480119D01*
X106730119Y-87368408D01*
X106809111Y-87231591D01*
X106814612Y-87211059D01*
X107616544Y-88012992D01*
X107616546Y-88012991D01*
X107658544Y-87960330D01*
X107785941Y-87739671D01*
X107879026Y-87502494D01*
X107879031Y-87502477D01*
X107935726Y-87254079D01*
X107954767Y-87000004D01*
X107954767Y-86999995D01*
X107935726Y-86745920D01*
X107879031Y-86497522D01*
X107879026Y-86497505D01*
X107785941Y-86260328D01*
X107785942Y-86260328D01*
X107658545Y-86039672D01*
X107616545Y-85987006D01*
X106814612Y-86788939D01*
X106809111Y-86768409D01*
X106730119Y-86631592D01*
X106618408Y-86519881D01*
X106481591Y-86440889D01*
X106461059Y-86435387D01*
X107263185Y-85633260D01*
X107102384Y-85523628D01*
X107102376Y-85523623D01*
X106872823Y-85413078D01*
X106872825Y-85413078D01*
X106629347Y-85337975D01*
X106629341Y-85337973D01*
X106377404Y-85300000D01*
X106122595Y-85300000D01*
X105870658Y-85337973D01*
X105870652Y-85337975D01*
X105627175Y-85413078D01*
X105397622Y-85523625D01*
X105397609Y-85523632D01*
X105236813Y-85633259D01*
X106038941Y-86435387D01*
X106018409Y-86440889D01*
X105881592Y-86519881D01*
X105769881Y-86631592D01*
X105690889Y-86768409D01*
X105685387Y-86788940D01*
X104883452Y-85987006D01*
X104841457Y-86039667D01*
X104714058Y-86260328D01*
X104620973Y-86497505D01*
X104620968Y-86497522D01*
X104564273Y-86745920D01*
X104545233Y-86999995D01*
X100500500Y-86999995D01*
X100500500Y-80752135D01*
X104549500Y-80752135D01*
X104549500Y-83247870D01*
X104549501Y-83247876D01*
X104555908Y-83307483D01*
X104606202Y-83442328D01*
X104606206Y-83442335D01*
X104692452Y-83557544D01*
X104692455Y-83557547D01*
X104807664Y-83643793D01*
X104807671Y-83643797D01*
X104942517Y-83694091D01*
X104942516Y-83694091D01*
X104949444Y-83694835D01*
X105002127Y-83700500D01*
X107497872Y-83700499D01*
X107557483Y-83694091D01*
X107692331Y-83643796D01*
X107807546Y-83557546D01*
X107893796Y-83442331D01*
X107944091Y-83307483D01*
X107950500Y-83247873D01*
X107950499Y-80752128D01*
X107944091Y-80692517D01*
X107899321Y-80572483D01*
X107893797Y-80557671D01*
X107893793Y-80557664D01*
X107807547Y-80442455D01*
X107807544Y-80442452D01*
X107692335Y-80356206D01*
X107692328Y-80356202D01*
X107557482Y-80305908D01*
X107557483Y-80305908D01*
X107497883Y-80299501D01*
X107497881Y-80299500D01*
X107497873Y-80299500D01*
X107497864Y-80299500D01*
X105002129Y-80299500D01*
X105002123Y-80299501D01*
X104942516Y-80305908D01*
X104807671Y-80356202D01*
X104807664Y-80356206D01*
X104692455Y-80442452D01*
X104692452Y-80442455D01*
X104606206Y-80557664D01*
X104606202Y-80557671D01*
X104555908Y-80692517D01*
X104549501Y-80752116D01*
X104549501Y-80752123D01*
X104549500Y-80752135D01*
X100500500Y-80752135D01*
X100500500Y-66624500D01*
X100520185Y-66557461D01*
X100572989Y-66511706D01*
X100624500Y-66500500D01*
X169375500Y-66500500D01*
X169442539Y-66520185D01*
G37*
G04 #@! TD.AperFunction*
M02*
