M48
; DRILL file {KiCad 8.0.3} date 2024-06-11T06:19:10-0400
; FORMAT={-:-/ absolute / metric / decimal}
; #@! TF.CreationDate,2024-06-11T06:19:10-04:00
; #@! TF.GenerationSoftware,Kicad,Pcbnew,8.0.3
; #@! TF.FileFunction,Plated,1,2,PTH
FMAT,2
METRIC
; #@! TA.AperFunction,Plated,PTH,ViaDrill
T1C0.500
; #@! TA.AperFunction,Plated,PTH,ComponentDrill
T2C1.000
; #@! TA.AperFunction,Plated,PTH,ComponentDrill
T3C1.200
%
G90
G05
T1
X102.0Y-122.0
X102.25Y-70.25
X110.3Y-83.8
X110.5Y-90.9
X110.75Y-98.0
X112.0Y-80.1
X114.0Y-67.5
X115.25Y-98.5
X115.25Y-121.5
X118.0Y-90.5
X118.2Y-68.8
X118.3Y-72.1
X118.4Y-76.2
X121.5Y-79.9
X122.5Y-121.5
X122.7Y-76.3
X124.0Y-84.0
X124.0Y-98.0
X124.0Y-108.75
X124.75Y-94.25
X125.05Y-104.1
X126.25Y-104.1
X126.75Y-67.5
X126.75Y-72.0
X127.45Y-104.1
X128.3Y-93.9
X128.75Y-108.75
X129.5Y-99.0
X130.25Y-117.5
X131.25Y-74.75
X132.9Y-104.65
X133.75Y-99.25
X134.7Y-114.2
X135.5Y-86.65
X135.75Y-91.0
X137.0Y-94.5
X137.0Y-98.0
X137.5Y-104.5
X138.75Y-109.5
X138.75Y-115.25
X140.65Y-102.8
X142.9Y-114.3
X144.0Y-96.25
X146.5Y-110.25
X147.0Y-93.0
X147.1Y-88.45
X147.15Y-85.15
X147.75Y-117.5
X148.75Y-85.55
X148.75Y-86.8
X148.75Y-88.05
X153.5Y-89.2
X154.5Y-100.5
X155.25Y-67.75
X155.35Y-95.3
X156.9Y-84.9
X168.0Y-97.0
X168.25Y-72.75
X168.25Y-121.75
T2
X104.0Y-97.22
X104.0Y-99.76
X104.0Y-102.3
X104.0Y-104.84
X104.0Y-107.38
X104.0Y-109.92
X104.0Y-112.46
X104.0Y-115.0
X106.54Y-97.22
X106.54Y-99.76
X106.54Y-102.3
X106.54Y-104.84
X106.54Y-107.38
X106.54Y-109.92
X106.54Y-112.46
X106.54Y-115.0
T3
X106.25Y-70.5
X106.25Y-75.5
X106.25Y-82.0
X106.25Y-87.0
X133.02Y-102.25
X135.56Y-102.25
X136.2Y-112.45
X138.1Y-102.25
X138.74Y-112.45
X141.28Y-112.45
X163.55Y-86.8
X163.55Y-91.8
M30
