G04 #@! TF.GenerationSoftware,KiCad,Pcbnew,8.0.3*
G04 #@! TF.CreationDate,2024-06-11T06:19:06-04:00*
G04 #@! TF.ProjectId,T41-2_Power,5434312d-325f-4506-9f77-65722e6b6963,rev?*
G04 #@! TF.SameCoordinates,Original*
G04 #@! TF.FileFunction,Legend,Top*
G04 #@! TF.FilePolarity,Positive*
%FSLAX46Y46*%
G04 Gerber Fmt 4.6, Leading zero omitted, Abs format (unit mm)*
G04 Created by KiCad (PCBNEW 8.0.3) date 2024-06-11 06:19:06*
%MOMM*%
%LPD*%
G01*
G04 APERTURE LIST*
G04 Aperture macros list*
%AMRoundRect*
0 Rectangle with rounded corners*
0 $1 Rounding radius*
0 $2 $3 $4 $5 $6 $7 $8 $9 X,Y pos of 4 corners*
0 Add a 4 corners polygon primitive as box body*
4,1,4,$2,$3,$4,$5,$6,$7,$8,$9,$2,$3,0*
0 Add four circle primitives for the rounded corners*
1,1,$1+$1,$2,$3*
1,1,$1+$1,$4,$5*
1,1,$1+$1,$6,$7*
1,1,$1+$1,$8,$9*
0 Add four rect primitives between the rounded corners*
20,1,$1+$1,$2,$3,$4,$5,0*
20,1,$1+$1,$4,$5,$6,$7,0*
20,1,$1+$1,$6,$7,$8,$9,0*
20,1,$1+$1,$8,$9,$2,$3,0*%
G04 Aperture macros list end*
%ADD10C,0.200000*%
%ADD11C,0.300000*%
%ADD12C,0.250000*%
%ADD13C,0.150000*%
%ADD14C,0.120000*%
%ADD15C,0.127000*%
%ADD16RoundRect,0.250000X-0.600000X-0.600000X0.600000X-0.600000X0.600000X0.600000X-0.600000X0.600000X0*%
%ADD17C,1.700000*%
%ADD18RoundRect,0.250000X0.650000X-0.325000X0.650000X0.325000X-0.650000X0.325000X-0.650000X-0.325000X0*%
%ADD19RoundRect,0.250000X-0.650000X0.325000X-0.650000X-0.325000X0.650000X-0.325000X0.650000X0.325000X0*%
%ADD20RoundRect,0.250000X0.550000X-1.500000X0.550000X1.500000X-0.550000X1.500000X-0.550000X-1.500000X0*%
%ADD21RoundRect,0.250000X0.325000X0.650000X-0.325000X0.650000X-0.325000X-0.650000X0.325000X-0.650000X0*%
%ADD22RoundRect,0.102000X1.385000X0.735000X-1.385000X0.735000X-1.385000X-0.735000X1.385000X-0.735000X0*%
%ADD23RoundRect,0.250000X1.400000X1.000000X-1.400000X1.000000X-1.400000X-1.000000X1.400000X-1.000000X0*%
%ADD24RoundRect,0.102000X-0.735000X1.385000X-0.735000X-1.385000X0.735000X-1.385000X0.735000X1.385000X0*%
%ADD25R,2.400000X2.400000*%
%ADD26C,2.400000*%
%ADD27RoundRect,0.102000X0.900000X0.900000X-0.900000X0.900000X-0.900000X-0.900000X0.900000X-0.900000X0*%
%ADD28C,2.004000*%
%ADD29RoundRect,0.250000X-0.550000X1.500000X-0.550000X-1.500000X0.550000X-1.500000X0.550000X1.500000X0*%
%ADD30RoundRect,0.102000X-1.385000X-0.735000X1.385000X-0.735000X1.385000X0.735000X-1.385000X0.735000X0*%
G04 APERTURE END LIST*
D10*
X157595863Y-70872457D02*
X157595863Y-67872457D01*
X159310149Y-70872457D02*
X158024435Y-69158171D01*
X159310149Y-67872457D02*
X157595863Y-69586742D01*
X161595863Y-69301028D02*
X160595863Y-69301028D01*
X160595863Y-70872457D02*
X160595863Y-67872457D01*
X160595863Y-67872457D02*
X162024435Y-67872457D01*
X164595864Y-67872457D02*
X163167292Y-67872457D01*
X163167292Y-67872457D02*
X163024435Y-69301028D01*
X163024435Y-69301028D02*
X163167292Y-69158171D01*
X163167292Y-69158171D02*
X163453007Y-69015314D01*
X163453007Y-69015314D02*
X164167292Y-69015314D01*
X164167292Y-69015314D02*
X164453007Y-69158171D01*
X164453007Y-69158171D02*
X164595864Y-69301028D01*
X164595864Y-69301028D02*
X164738721Y-69586742D01*
X164738721Y-69586742D02*
X164738721Y-70301028D01*
X164738721Y-70301028D02*
X164595864Y-70586742D01*
X164595864Y-70586742D02*
X164453007Y-70729600D01*
X164453007Y-70729600D02*
X164167292Y-70872457D01*
X164167292Y-70872457D02*
X163453007Y-70872457D01*
X163453007Y-70872457D02*
X163167292Y-70729600D01*
X163167292Y-70729600D02*
X163024435Y-70586742D01*
X166024435Y-70872457D02*
X166024435Y-67872457D01*
X166024435Y-67872457D02*
X167738721Y-70872457D01*
X167738721Y-70872457D02*
X167738721Y-67872457D01*
X143803006Y-98656028D02*
X143088720Y-98656028D01*
X143088720Y-98656028D02*
X143017292Y-99370314D01*
X143017292Y-99370314D02*
X143088720Y-99298885D01*
X143088720Y-99298885D02*
X143231578Y-99227457D01*
X143231578Y-99227457D02*
X143588720Y-99227457D01*
X143588720Y-99227457D02*
X143731578Y-99298885D01*
X143731578Y-99298885D02*
X143803006Y-99370314D01*
X143803006Y-99370314D02*
X143874435Y-99513171D01*
X143874435Y-99513171D02*
X143874435Y-99870314D01*
X143874435Y-99870314D02*
X143803006Y-100013171D01*
X143803006Y-100013171D02*
X143731578Y-100084600D01*
X143731578Y-100084600D02*
X143588720Y-100156028D01*
X143588720Y-100156028D02*
X143231578Y-100156028D01*
X143231578Y-100156028D02*
X143088720Y-100084600D01*
X143088720Y-100084600D02*
X143017292Y-100013171D01*
X144303006Y-98656028D02*
X144803006Y-100156028D01*
X144803006Y-100156028D02*
X145303006Y-98656028D01*
D11*
X144173558Y-82839638D02*
X144173558Y-80839638D01*
X144173558Y-80839638D02*
X144935463Y-80839638D01*
X144935463Y-80839638D02*
X145125939Y-80934876D01*
X145125939Y-80934876D02*
X145221177Y-81030114D01*
X145221177Y-81030114D02*
X145316415Y-81220590D01*
X145316415Y-81220590D02*
X145316415Y-81506304D01*
X145316415Y-81506304D02*
X145221177Y-81696780D01*
X145221177Y-81696780D02*
X145125939Y-81792019D01*
X145125939Y-81792019D02*
X144935463Y-81887257D01*
X144935463Y-81887257D02*
X144173558Y-81887257D01*
X147125939Y-82839638D02*
X146173558Y-82839638D01*
X146173558Y-82839638D02*
X146173558Y-80839638D01*
X147697368Y-82268209D02*
X148649749Y-82268209D01*
X147506892Y-82839638D02*
X148173558Y-80839638D01*
X148173558Y-80839638D02*
X148840225Y-82839638D01*
X149221178Y-80839638D02*
X150364035Y-80839638D01*
X149792606Y-82839638D02*
X149792606Y-80839638D01*
X151697369Y-81792019D02*
X151030702Y-81792019D01*
X151030702Y-82839638D02*
X151030702Y-80839638D01*
X151030702Y-80839638D02*
X151983083Y-80839638D01*
X153125940Y-80839638D02*
X153506893Y-80839638D01*
X153506893Y-80839638D02*
X153697369Y-80934876D01*
X153697369Y-80934876D02*
X153887845Y-81125352D01*
X153887845Y-81125352D02*
X153983083Y-81506304D01*
X153983083Y-81506304D02*
X153983083Y-82172971D01*
X153983083Y-82172971D02*
X153887845Y-82553923D01*
X153887845Y-82553923D02*
X153697369Y-82744400D01*
X153697369Y-82744400D02*
X153506893Y-82839638D01*
X153506893Y-82839638D02*
X153125940Y-82839638D01*
X153125940Y-82839638D02*
X152935464Y-82744400D01*
X152935464Y-82744400D02*
X152744988Y-82553923D01*
X152744988Y-82553923D02*
X152649750Y-82172971D01*
X152649750Y-82172971D02*
X152649750Y-81506304D01*
X152649750Y-81506304D02*
X152744988Y-81125352D01*
X152744988Y-81125352D02*
X152935464Y-80934876D01*
X152935464Y-80934876D02*
X153125940Y-80839638D01*
X155983083Y-82839638D02*
X155316416Y-81887257D01*
X154840226Y-82839638D02*
X154840226Y-80839638D01*
X154840226Y-80839638D02*
X155602131Y-80839638D01*
X155602131Y-80839638D02*
X155792607Y-80934876D01*
X155792607Y-80934876D02*
X155887845Y-81030114D01*
X155887845Y-81030114D02*
X155983083Y-81220590D01*
X155983083Y-81220590D02*
X155983083Y-81506304D01*
X155983083Y-81506304D02*
X155887845Y-81696780D01*
X155887845Y-81696780D02*
X155792607Y-81792019D01*
X155792607Y-81792019D02*
X155602131Y-81887257D01*
X155602131Y-81887257D02*
X154840226Y-81887257D01*
X156840226Y-82839638D02*
X156840226Y-80839638D01*
X156840226Y-80839638D02*
X157506893Y-82268209D01*
X157506893Y-82268209D02*
X158173559Y-80839638D01*
X158173559Y-80839638D02*
X158173559Y-82839638D01*
D10*
X143845863Y-119106028D02*
X144774435Y-119106028D01*
X144774435Y-119106028D02*
X144274435Y-119677457D01*
X144274435Y-119677457D02*
X144488720Y-119677457D01*
X144488720Y-119677457D02*
X144631578Y-119748885D01*
X144631578Y-119748885D02*
X144703006Y-119820314D01*
X144703006Y-119820314D02*
X144774435Y-119963171D01*
X144774435Y-119963171D02*
X144774435Y-120320314D01*
X144774435Y-120320314D02*
X144703006Y-120463171D01*
X144703006Y-120463171D02*
X144631578Y-120534600D01*
X144631578Y-120534600D02*
X144488720Y-120606028D01*
X144488720Y-120606028D02*
X144060149Y-120606028D01*
X144060149Y-120606028D02*
X143917292Y-120534600D01*
X143917292Y-120534600D02*
X143845863Y-120463171D01*
X145417291Y-120463171D02*
X145488720Y-120534600D01*
X145488720Y-120534600D02*
X145417291Y-120606028D01*
X145417291Y-120606028D02*
X145345863Y-120534600D01*
X145345863Y-120534600D02*
X145417291Y-120463171D01*
X145417291Y-120463171D02*
X145417291Y-120606028D01*
X145988720Y-119106028D02*
X146917292Y-119106028D01*
X146917292Y-119106028D02*
X146417292Y-119677457D01*
X146417292Y-119677457D02*
X146631577Y-119677457D01*
X146631577Y-119677457D02*
X146774435Y-119748885D01*
X146774435Y-119748885D02*
X146845863Y-119820314D01*
X146845863Y-119820314D02*
X146917292Y-119963171D01*
X146917292Y-119963171D02*
X146917292Y-120320314D01*
X146917292Y-120320314D02*
X146845863Y-120463171D01*
X146845863Y-120463171D02*
X146774435Y-120534600D01*
X146774435Y-120534600D02*
X146631577Y-120606028D01*
X146631577Y-120606028D02*
X146203006Y-120606028D01*
X146203006Y-120606028D02*
X146060149Y-120534600D01*
X146060149Y-120534600D02*
X145988720Y-120463171D01*
X147345863Y-119106028D02*
X147845863Y-120606028D01*
X147845863Y-120606028D02*
X148345863Y-119106028D01*
X159219673Y-81936266D02*
X159981578Y-81936266D01*
X159600625Y-82317219D02*
X159600625Y-81555314D01*
X160933958Y-81317219D02*
X160457768Y-81317219D01*
X160457768Y-81317219D02*
X160410149Y-81793409D01*
X160410149Y-81793409D02*
X160457768Y-81745790D01*
X160457768Y-81745790D02*
X160553006Y-81698171D01*
X160553006Y-81698171D02*
X160791101Y-81698171D01*
X160791101Y-81698171D02*
X160886339Y-81745790D01*
X160886339Y-81745790D02*
X160933958Y-81793409D01*
X160933958Y-81793409D02*
X160981577Y-81888647D01*
X160981577Y-81888647D02*
X160981577Y-82126742D01*
X160981577Y-82126742D02*
X160933958Y-82221980D01*
X160933958Y-82221980D02*
X160886339Y-82269600D01*
X160886339Y-82269600D02*
X160791101Y-82317219D01*
X160791101Y-82317219D02*
X160553006Y-82317219D01*
X160553006Y-82317219D02*
X160457768Y-82269600D01*
X160457768Y-82269600D02*
X160410149Y-82221980D01*
X161267292Y-81317219D02*
X161600625Y-82317219D01*
X161600625Y-82317219D02*
X161933958Y-81317219D01*
X163029197Y-82317219D02*
X163029197Y-81317219D01*
X163029197Y-81317219D02*
X163267292Y-81317219D01*
X163267292Y-81317219D02*
X163410149Y-81364838D01*
X163410149Y-81364838D02*
X163505387Y-81460076D01*
X163505387Y-81460076D02*
X163553006Y-81555314D01*
X163553006Y-81555314D02*
X163600625Y-81745790D01*
X163600625Y-81745790D02*
X163600625Y-81888647D01*
X163600625Y-81888647D02*
X163553006Y-82079123D01*
X163553006Y-82079123D02*
X163505387Y-82174361D01*
X163505387Y-82174361D02*
X163410149Y-82269600D01*
X163410149Y-82269600D02*
X163267292Y-82317219D01*
X163267292Y-82317219D02*
X163029197Y-82317219D01*
X164029197Y-82317219D02*
X164029197Y-81317219D01*
X164457768Y-82269600D02*
X164600625Y-82317219D01*
X164600625Y-82317219D02*
X164838720Y-82317219D01*
X164838720Y-82317219D02*
X164933958Y-82269600D01*
X164933958Y-82269600D02*
X164981577Y-82221980D01*
X164981577Y-82221980D02*
X165029196Y-82126742D01*
X165029196Y-82126742D02*
X165029196Y-82031504D01*
X165029196Y-82031504D02*
X164981577Y-81936266D01*
X164981577Y-81936266D02*
X164933958Y-81888647D01*
X164933958Y-81888647D02*
X164838720Y-81841028D01*
X164838720Y-81841028D02*
X164648244Y-81793409D01*
X164648244Y-81793409D02*
X164553006Y-81745790D01*
X164553006Y-81745790D02*
X164505387Y-81698171D01*
X164505387Y-81698171D02*
X164457768Y-81602933D01*
X164457768Y-81602933D02*
X164457768Y-81507695D01*
X164457768Y-81507695D02*
X164505387Y-81412457D01*
X164505387Y-81412457D02*
X164553006Y-81364838D01*
X164553006Y-81364838D02*
X164648244Y-81317219D01*
X164648244Y-81317219D02*
X164886339Y-81317219D01*
X164886339Y-81317219D02*
X165029196Y-81364838D01*
X165457768Y-82317219D02*
X165457768Y-81317219D01*
X165457768Y-81317219D02*
X165838720Y-81317219D01*
X165838720Y-81317219D02*
X165933958Y-81364838D01*
X165933958Y-81364838D02*
X165981577Y-81412457D01*
X165981577Y-81412457D02*
X166029196Y-81507695D01*
X166029196Y-81507695D02*
X166029196Y-81650552D01*
X166029196Y-81650552D02*
X165981577Y-81745790D01*
X165981577Y-81745790D02*
X165933958Y-81793409D01*
X165933958Y-81793409D02*
X165838720Y-81841028D01*
X165838720Y-81841028D02*
X165457768Y-81841028D01*
X166933958Y-82317219D02*
X166457768Y-82317219D01*
X166457768Y-82317219D02*
X166457768Y-81317219D01*
X167219673Y-82031504D02*
X167695863Y-82031504D01*
X167124435Y-82317219D02*
X167457768Y-81317219D01*
X167457768Y-81317219D02*
X167791101Y-82317219D01*
X168314911Y-81841028D02*
X168314911Y-82317219D01*
X167981578Y-81317219D02*
X168314911Y-81841028D01*
X168314911Y-81841028D02*
X168648244Y-81317219D01*
D11*
X133837844Y-74239638D02*
X134980701Y-74239638D01*
X134409272Y-76239638D02*
X134409272Y-74239638D01*
X136504511Y-74906304D02*
X136504511Y-76239638D01*
X136028320Y-74144400D02*
X135552130Y-75572971D01*
X135552130Y-75572971D02*
X136790225Y-75572971D01*
X138599749Y-76239638D02*
X137456892Y-76239638D01*
X138028320Y-76239638D02*
X138028320Y-74239638D01*
X138028320Y-74239638D02*
X137837844Y-74525352D01*
X137837844Y-74525352D02*
X137647368Y-74715828D01*
X137647368Y-74715828D02*
X137456892Y-74811066D01*
X139456892Y-75477733D02*
X140980702Y-75477733D01*
X141837844Y-74430114D02*
X141933082Y-74334876D01*
X141933082Y-74334876D02*
X142123558Y-74239638D01*
X142123558Y-74239638D02*
X142599749Y-74239638D01*
X142599749Y-74239638D02*
X142790225Y-74334876D01*
X142790225Y-74334876D02*
X142885463Y-74430114D01*
X142885463Y-74430114D02*
X142980701Y-74620590D01*
X142980701Y-74620590D02*
X142980701Y-74811066D01*
X142980701Y-74811066D02*
X142885463Y-75096780D01*
X142885463Y-75096780D02*
X141742606Y-76239638D01*
X141742606Y-76239638D02*
X142980701Y-76239638D01*
X145361654Y-76239638D02*
X145361654Y-74239638D01*
X145361654Y-74239638D02*
X146123559Y-74239638D01*
X146123559Y-74239638D02*
X146314035Y-74334876D01*
X146314035Y-74334876D02*
X146409273Y-74430114D01*
X146409273Y-74430114D02*
X146504511Y-74620590D01*
X146504511Y-74620590D02*
X146504511Y-74906304D01*
X146504511Y-74906304D02*
X146409273Y-75096780D01*
X146409273Y-75096780D02*
X146314035Y-75192019D01*
X146314035Y-75192019D02*
X146123559Y-75287257D01*
X146123559Y-75287257D02*
X145361654Y-75287257D01*
X147742606Y-74239638D02*
X148123559Y-74239638D01*
X148123559Y-74239638D02*
X148314035Y-74334876D01*
X148314035Y-74334876D02*
X148504511Y-74525352D01*
X148504511Y-74525352D02*
X148599749Y-74906304D01*
X148599749Y-74906304D02*
X148599749Y-75572971D01*
X148599749Y-75572971D02*
X148504511Y-75953923D01*
X148504511Y-75953923D02*
X148314035Y-76144400D01*
X148314035Y-76144400D02*
X148123559Y-76239638D01*
X148123559Y-76239638D02*
X147742606Y-76239638D01*
X147742606Y-76239638D02*
X147552130Y-76144400D01*
X147552130Y-76144400D02*
X147361654Y-75953923D01*
X147361654Y-75953923D02*
X147266416Y-75572971D01*
X147266416Y-75572971D02*
X147266416Y-74906304D01*
X147266416Y-74906304D02*
X147361654Y-74525352D01*
X147361654Y-74525352D02*
X147552130Y-74334876D01*
X147552130Y-74334876D02*
X147742606Y-74239638D01*
X149266416Y-74239638D02*
X149742606Y-76239638D01*
X149742606Y-76239638D02*
X150123559Y-74811066D01*
X150123559Y-74811066D02*
X150504511Y-76239638D01*
X150504511Y-76239638D02*
X150980702Y-74239638D01*
X151742606Y-75192019D02*
X152409273Y-75192019D01*
X152694987Y-76239638D02*
X151742606Y-76239638D01*
X151742606Y-76239638D02*
X151742606Y-74239638D01*
X151742606Y-74239638D02*
X152694987Y-74239638D01*
X154694987Y-76239638D02*
X154028320Y-75287257D01*
X153552130Y-76239638D02*
X153552130Y-74239638D01*
X153552130Y-74239638D02*
X154314035Y-74239638D01*
X154314035Y-74239638D02*
X154504511Y-74334876D01*
X154504511Y-74334876D02*
X154599749Y-74430114D01*
X154599749Y-74430114D02*
X154694987Y-74620590D01*
X154694987Y-74620590D02*
X154694987Y-74906304D01*
X154694987Y-74906304D02*
X154599749Y-75096780D01*
X154599749Y-75096780D02*
X154504511Y-75192019D01*
X154504511Y-75192019D02*
X154314035Y-75287257D01*
X154314035Y-75287257D02*
X153552130Y-75287257D01*
X156980702Y-76144400D02*
X157266416Y-76239638D01*
X157266416Y-76239638D02*
X157742607Y-76239638D01*
X157742607Y-76239638D02*
X157933083Y-76144400D01*
X157933083Y-76144400D02*
X158028321Y-76049161D01*
X158028321Y-76049161D02*
X158123559Y-75858685D01*
X158123559Y-75858685D02*
X158123559Y-75668209D01*
X158123559Y-75668209D02*
X158028321Y-75477733D01*
X158028321Y-75477733D02*
X157933083Y-75382495D01*
X157933083Y-75382495D02*
X157742607Y-75287257D01*
X157742607Y-75287257D02*
X157361654Y-75192019D01*
X157361654Y-75192019D02*
X157171178Y-75096780D01*
X157171178Y-75096780D02*
X157075940Y-75001542D01*
X157075940Y-75001542D02*
X156980702Y-74811066D01*
X156980702Y-74811066D02*
X156980702Y-74620590D01*
X156980702Y-74620590D02*
X157075940Y-74430114D01*
X157075940Y-74430114D02*
X157171178Y-74334876D01*
X157171178Y-74334876D02*
X157361654Y-74239638D01*
X157361654Y-74239638D02*
X157837845Y-74239638D01*
X157837845Y-74239638D02*
X158123559Y-74334876D01*
X158980702Y-74239638D02*
X158980702Y-75858685D01*
X158980702Y-75858685D02*
X159075940Y-76049161D01*
X159075940Y-76049161D02*
X159171178Y-76144400D01*
X159171178Y-76144400D02*
X159361654Y-76239638D01*
X159361654Y-76239638D02*
X159742607Y-76239638D01*
X159742607Y-76239638D02*
X159933083Y-76144400D01*
X159933083Y-76144400D02*
X160028321Y-76049161D01*
X160028321Y-76049161D02*
X160123559Y-75858685D01*
X160123559Y-75858685D02*
X160123559Y-74239638D01*
X161075940Y-76239638D02*
X161075940Y-74239638D01*
X161075940Y-74239638D02*
X161837845Y-74239638D01*
X161837845Y-74239638D02*
X162028321Y-74334876D01*
X162028321Y-74334876D02*
X162123559Y-74430114D01*
X162123559Y-74430114D02*
X162218797Y-74620590D01*
X162218797Y-74620590D02*
X162218797Y-74906304D01*
X162218797Y-74906304D02*
X162123559Y-75096780D01*
X162123559Y-75096780D02*
X162028321Y-75192019D01*
X162028321Y-75192019D02*
X161837845Y-75287257D01*
X161837845Y-75287257D02*
X161075940Y-75287257D01*
X163075940Y-76239638D02*
X163075940Y-74239638D01*
X163075940Y-74239638D02*
X163837845Y-74239638D01*
X163837845Y-74239638D02*
X164028321Y-74334876D01*
X164028321Y-74334876D02*
X164123559Y-74430114D01*
X164123559Y-74430114D02*
X164218797Y-74620590D01*
X164218797Y-74620590D02*
X164218797Y-74906304D01*
X164218797Y-74906304D02*
X164123559Y-75096780D01*
X164123559Y-75096780D02*
X164028321Y-75192019D01*
X164028321Y-75192019D02*
X163837845Y-75287257D01*
X163837845Y-75287257D02*
X163075940Y-75287257D01*
X166028321Y-76239638D02*
X165075940Y-76239638D01*
X165075940Y-76239638D02*
X165075940Y-74239638D01*
X167075940Y-75287257D02*
X167075940Y-76239638D01*
X166409274Y-74239638D02*
X167075940Y-75287257D01*
X167075940Y-75287257D02*
X167742607Y-74239638D01*
D10*
X112369673Y-86367219D02*
X112369673Y-85367219D01*
X112845863Y-86367219D02*
X112845863Y-85367219D01*
X112845863Y-85367219D02*
X113417291Y-86367219D01*
X113417291Y-86367219D02*
X113417291Y-85367219D01*
D12*
X112426377Y-84864619D02*
X111854949Y-84864619D01*
X112140663Y-84864619D02*
X112140663Y-83864619D01*
X112140663Y-83864619D02*
X112045425Y-84007476D01*
X112045425Y-84007476D02*
X111950187Y-84102714D01*
X111950187Y-84102714D02*
X111854949Y-84150333D01*
X112807330Y-83959857D02*
X112854949Y-83912238D01*
X112854949Y-83912238D02*
X112950187Y-83864619D01*
X112950187Y-83864619D02*
X113188282Y-83864619D01*
X113188282Y-83864619D02*
X113283520Y-83912238D01*
X113283520Y-83912238D02*
X113331139Y-83959857D01*
X113331139Y-83959857D02*
X113378758Y-84055095D01*
X113378758Y-84055095D02*
X113378758Y-84150333D01*
X113378758Y-84150333D02*
X113331139Y-84293190D01*
X113331139Y-84293190D02*
X112759711Y-84864619D01*
X112759711Y-84864619D02*
X113378758Y-84864619D01*
X113664473Y-83864619D02*
X113997806Y-84864619D01*
X113997806Y-84864619D02*
X114331139Y-83864619D01*
D11*
X111554510Y-82172400D02*
X114297368Y-82172400D01*
X112925939Y-83543828D02*
X112925939Y-80800971D01*
D12*
X119045425Y-71297000D02*
X119331139Y-71392238D01*
X119331139Y-71392238D02*
X119807330Y-71392238D01*
X119807330Y-71392238D02*
X119997806Y-71297000D01*
X119997806Y-71297000D02*
X120093044Y-71201761D01*
X120093044Y-71201761D02*
X120188282Y-71011285D01*
X120188282Y-71011285D02*
X120188282Y-70820809D01*
X120188282Y-70820809D02*
X120093044Y-70630333D01*
X120093044Y-70630333D02*
X119997806Y-70535095D01*
X119997806Y-70535095D02*
X119807330Y-70439857D01*
X119807330Y-70439857D02*
X119426377Y-70344619D01*
X119426377Y-70344619D02*
X119235901Y-70249380D01*
X119235901Y-70249380D02*
X119140663Y-70154142D01*
X119140663Y-70154142D02*
X119045425Y-69963666D01*
X119045425Y-69963666D02*
X119045425Y-69773190D01*
X119045425Y-69773190D02*
X119140663Y-69582714D01*
X119140663Y-69582714D02*
X119235901Y-69487476D01*
X119235901Y-69487476D02*
X119426377Y-69392238D01*
X119426377Y-69392238D02*
X119902568Y-69392238D01*
X119902568Y-69392238D02*
X120188282Y-69487476D01*
X121045425Y-71392238D02*
X121045425Y-69392238D01*
X121045425Y-69392238D02*
X121807330Y-69392238D01*
X121807330Y-69392238D02*
X121997806Y-69487476D01*
X121997806Y-69487476D02*
X122093044Y-69582714D01*
X122093044Y-69582714D02*
X122188282Y-69773190D01*
X122188282Y-69773190D02*
X122188282Y-70058904D01*
X122188282Y-70058904D02*
X122093044Y-70249380D01*
X122093044Y-70249380D02*
X121997806Y-70344619D01*
X121997806Y-70344619D02*
X121807330Y-70439857D01*
X121807330Y-70439857D02*
X121045425Y-70439857D01*
X123045425Y-70344619D02*
X123712092Y-70344619D01*
X123997806Y-71392238D02*
X123045425Y-71392238D01*
X123045425Y-71392238D02*
X123045425Y-69392238D01*
X123045425Y-69392238D02*
X123997806Y-69392238D01*
X124759711Y-70820809D02*
X125712092Y-70820809D01*
X124569235Y-71392238D02*
X125235901Y-69392238D01*
X125235901Y-69392238D02*
X125902568Y-71392238D01*
X126569235Y-71392238D02*
X126569235Y-69392238D01*
X127712092Y-71392238D02*
X126854949Y-70249380D01*
X127712092Y-69392238D02*
X126569235Y-70535095D01*
X128569235Y-70344619D02*
X129235902Y-70344619D01*
X129521616Y-71392238D02*
X128569235Y-71392238D01*
X128569235Y-71392238D02*
X128569235Y-69392238D01*
X128569235Y-69392238D02*
X129521616Y-69392238D01*
X131521616Y-71392238D02*
X130854949Y-70439857D01*
X130378759Y-71392238D02*
X130378759Y-69392238D01*
X130378759Y-69392238D02*
X131140664Y-69392238D01*
X131140664Y-69392238D02*
X131331140Y-69487476D01*
X131331140Y-69487476D02*
X131426378Y-69582714D01*
X131426378Y-69582714D02*
X131521616Y-69773190D01*
X131521616Y-69773190D02*
X131521616Y-70058904D01*
X131521616Y-70058904D02*
X131426378Y-70249380D01*
X131426378Y-70249380D02*
X131331140Y-70344619D01*
X131331140Y-70344619D02*
X131140664Y-70439857D01*
X131140664Y-70439857D02*
X130378759Y-70439857D01*
D11*
X160790225Y-99950828D02*
X161290225Y-101450828D01*
X161290225Y-101450828D02*
X161790225Y-99950828D01*
X163075939Y-101450828D02*
X162218796Y-101450828D01*
X162647367Y-101450828D02*
X162647367Y-99950828D01*
X162647367Y-99950828D02*
X162504510Y-100165114D01*
X162504510Y-100165114D02*
X162361653Y-100307971D01*
X162361653Y-100307971D02*
X162218796Y-100379400D01*
X163718795Y-101307971D02*
X163790224Y-101379400D01*
X163790224Y-101379400D02*
X163718795Y-101450828D01*
X163718795Y-101450828D02*
X163647367Y-101379400D01*
X163647367Y-101379400D02*
X163718795Y-101307971D01*
X163718795Y-101307971D02*
X163718795Y-101450828D01*
X164718796Y-99950828D02*
X164861653Y-99950828D01*
X164861653Y-99950828D02*
X165004510Y-100022257D01*
X165004510Y-100022257D02*
X165075939Y-100093685D01*
X165075939Y-100093685D02*
X165147367Y-100236542D01*
X165147367Y-100236542D02*
X165218796Y-100522257D01*
X165218796Y-100522257D02*
X165218796Y-100879400D01*
X165218796Y-100879400D02*
X165147367Y-101165114D01*
X165147367Y-101165114D02*
X165075939Y-101307971D01*
X165075939Y-101307971D02*
X165004510Y-101379400D01*
X165004510Y-101379400D02*
X164861653Y-101450828D01*
X164861653Y-101450828D02*
X164718796Y-101450828D01*
X164718796Y-101450828D02*
X164575939Y-101379400D01*
X164575939Y-101379400D02*
X164504510Y-101307971D01*
X164504510Y-101307971D02*
X164433081Y-101165114D01*
X164433081Y-101165114D02*
X164361653Y-100879400D01*
X164361653Y-100879400D02*
X164361653Y-100522257D01*
X164361653Y-100522257D02*
X164433081Y-100236542D01*
X164433081Y-100236542D02*
X164504510Y-100093685D01*
X164504510Y-100093685D02*
X164575939Y-100022257D01*
X164575939Y-100022257D02*
X164718796Y-99950828D01*
X133937844Y-77889638D02*
X135080701Y-77889638D01*
X134509272Y-79889638D02*
X134509272Y-77889638D01*
X136604511Y-78556304D02*
X136604511Y-79889638D01*
X136128320Y-77794400D02*
X135652130Y-79222971D01*
X135652130Y-79222971D02*
X136890225Y-79222971D01*
X138699749Y-79889638D02*
X137556892Y-79889638D01*
X138128320Y-79889638D02*
X138128320Y-77889638D01*
X138128320Y-77889638D02*
X137937844Y-78175352D01*
X137937844Y-78175352D02*
X137747368Y-78365828D01*
X137747368Y-78365828D02*
X137556892Y-78461066D01*
X141080702Y-78842019D02*
X141747369Y-78842019D01*
X142033083Y-79889638D02*
X141080702Y-79889638D01*
X141080702Y-79889638D02*
X141080702Y-77889638D01*
X141080702Y-77889638D02*
X142033083Y-77889638D01*
X142699750Y-77889638D02*
X144033083Y-79889638D01*
X144033083Y-77889638D02*
X142699750Y-79889638D01*
X144794988Y-79889638D02*
X144794988Y-77889638D01*
X144794988Y-77889638D02*
X145556893Y-77889638D01*
X145556893Y-77889638D02*
X145747369Y-77984876D01*
X145747369Y-77984876D02*
X145842607Y-78080114D01*
X145842607Y-78080114D02*
X145937845Y-78270590D01*
X145937845Y-78270590D02*
X145937845Y-78556304D01*
X145937845Y-78556304D02*
X145842607Y-78746780D01*
X145842607Y-78746780D02*
X145747369Y-78842019D01*
X145747369Y-78842019D02*
X145556893Y-78937257D01*
X145556893Y-78937257D02*
X144794988Y-78937257D01*
X146794988Y-78842019D02*
X147461655Y-78842019D01*
X147747369Y-79889638D02*
X146794988Y-79889638D01*
X146794988Y-79889638D02*
X146794988Y-77889638D01*
X146794988Y-77889638D02*
X147747369Y-77889638D01*
X149747369Y-79889638D02*
X149080702Y-78937257D01*
X148604512Y-79889638D02*
X148604512Y-77889638D01*
X148604512Y-77889638D02*
X149366417Y-77889638D01*
X149366417Y-77889638D02*
X149556893Y-77984876D01*
X149556893Y-77984876D02*
X149652131Y-78080114D01*
X149652131Y-78080114D02*
X149747369Y-78270590D01*
X149747369Y-78270590D02*
X149747369Y-78556304D01*
X149747369Y-78556304D02*
X149652131Y-78746780D01*
X149652131Y-78746780D02*
X149556893Y-78842019D01*
X149556893Y-78842019D02*
X149366417Y-78937257D01*
X149366417Y-78937257D02*
X148604512Y-78937257D01*
X150604512Y-79889638D02*
X150604512Y-77889638D01*
X151556893Y-79889638D02*
X151556893Y-77889638D01*
X151556893Y-77889638D02*
X152223560Y-79318209D01*
X152223560Y-79318209D02*
X152890226Y-77889638D01*
X152890226Y-77889638D02*
X152890226Y-79889638D01*
X153842607Y-78842019D02*
X154509274Y-78842019D01*
X154794988Y-79889638D02*
X153842607Y-79889638D01*
X153842607Y-79889638D02*
X153842607Y-77889638D01*
X153842607Y-77889638D02*
X154794988Y-77889638D01*
X155652131Y-79889638D02*
X155652131Y-77889638D01*
X155652131Y-77889638D02*
X156794988Y-79889638D01*
X156794988Y-79889638D02*
X156794988Y-77889638D01*
X157461655Y-77889638D02*
X158604512Y-77889638D01*
X158033083Y-79889638D02*
X158033083Y-77889638D01*
X159271179Y-78842019D02*
X159937846Y-78842019D01*
X160223560Y-79889638D02*
X159271179Y-79889638D01*
X159271179Y-79889638D02*
X159271179Y-77889638D01*
X159271179Y-77889638D02*
X160223560Y-77889638D01*
X162223560Y-79889638D02*
X161556893Y-78937257D01*
X161080703Y-79889638D02*
X161080703Y-77889638D01*
X161080703Y-77889638D02*
X161842608Y-77889638D01*
X161842608Y-77889638D02*
X162033084Y-77984876D01*
X162033084Y-77984876D02*
X162128322Y-78080114D01*
X162128322Y-78080114D02*
X162223560Y-78270590D01*
X162223560Y-78270590D02*
X162223560Y-78556304D01*
X162223560Y-78556304D02*
X162128322Y-78746780D01*
X162128322Y-78746780D02*
X162033084Y-78842019D01*
X162033084Y-78842019D02*
X161842608Y-78937257D01*
X161842608Y-78937257D02*
X161080703Y-78937257D01*
X162985465Y-79794400D02*
X163271179Y-79889638D01*
X163271179Y-79889638D02*
X163747370Y-79889638D01*
X163747370Y-79889638D02*
X163937846Y-79794400D01*
X163937846Y-79794400D02*
X164033084Y-79699161D01*
X164033084Y-79699161D02*
X164128322Y-79508685D01*
X164128322Y-79508685D02*
X164128322Y-79318209D01*
X164128322Y-79318209D02*
X164033084Y-79127733D01*
X164033084Y-79127733D02*
X163937846Y-79032495D01*
X163937846Y-79032495D02*
X163747370Y-78937257D01*
X163747370Y-78937257D02*
X163366417Y-78842019D01*
X163366417Y-78842019D02*
X163175941Y-78746780D01*
X163175941Y-78746780D02*
X163080703Y-78651542D01*
X163080703Y-78651542D02*
X162985465Y-78461066D01*
X162985465Y-78461066D02*
X162985465Y-78270590D01*
X162985465Y-78270590D02*
X163080703Y-78080114D01*
X163080703Y-78080114D02*
X163175941Y-77984876D01*
X163175941Y-77984876D02*
X163366417Y-77889638D01*
X163366417Y-77889638D02*
X163842608Y-77889638D01*
X163842608Y-77889638D02*
X164128322Y-77984876D01*
D13*
X110816666Y-92354819D02*
X110816666Y-93069104D01*
X110816666Y-93069104D02*
X110769047Y-93211961D01*
X110769047Y-93211961D02*
X110673809Y-93307200D01*
X110673809Y-93307200D02*
X110530952Y-93354819D01*
X110530952Y-93354819D02*
X110435714Y-93354819D01*
X111816666Y-93354819D02*
X111245238Y-93354819D01*
X111530952Y-93354819D02*
X111530952Y-92354819D01*
X111530952Y-92354819D02*
X111435714Y-92497676D01*
X111435714Y-92497676D02*
X111340476Y-92592914D01*
X111340476Y-92592914D02*
X111245238Y-92640533D01*
X124583333Y-117609580D02*
X124535714Y-117657200D01*
X124535714Y-117657200D02*
X124392857Y-117704819D01*
X124392857Y-117704819D02*
X124297619Y-117704819D01*
X124297619Y-117704819D02*
X124154762Y-117657200D01*
X124154762Y-117657200D02*
X124059524Y-117561961D01*
X124059524Y-117561961D02*
X124011905Y-117466723D01*
X124011905Y-117466723D02*
X123964286Y-117276247D01*
X123964286Y-117276247D02*
X123964286Y-117133390D01*
X123964286Y-117133390D02*
X124011905Y-116942914D01*
X124011905Y-116942914D02*
X124059524Y-116847676D01*
X124059524Y-116847676D02*
X124154762Y-116752438D01*
X124154762Y-116752438D02*
X124297619Y-116704819D01*
X124297619Y-116704819D02*
X124392857Y-116704819D01*
X124392857Y-116704819D02*
X124535714Y-116752438D01*
X124535714Y-116752438D02*
X124583333Y-116800057D01*
X125440476Y-117038152D02*
X125440476Y-117704819D01*
X125202381Y-116657200D02*
X124964286Y-117371485D01*
X124964286Y-117371485D02*
X125583333Y-117371485D01*
X124678571Y-119204819D02*
X124107143Y-119204819D01*
X124392857Y-119204819D02*
X124392857Y-118204819D01*
X124392857Y-118204819D02*
X124297619Y-118347676D01*
X124297619Y-118347676D02*
X124202381Y-118442914D01*
X124202381Y-118442914D02*
X124107143Y-118490533D01*
X125297619Y-118204819D02*
X125392857Y-118204819D01*
X125392857Y-118204819D02*
X125488095Y-118252438D01*
X125488095Y-118252438D02*
X125535714Y-118300057D01*
X125535714Y-118300057D02*
X125583333Y-118395295D01*
X125583333Y-118395295D02*
X125630952Y-118585771D01*
X125630952Y-118585771D02*
X125630952Y-118823866D01*
X125630952Y-118823866D02*
X125583333Y-119014342D01*
X125583333Y-119014342D02*
X125535714Y-119109580D01*
X125535714Y-119109580D02*
X125488095Y-119157200D01*
X125488095Y-119157200D02*
X125392857Y-119204819D01*
X125392857Y-119204819D02*
X125297619Y-119204819D01*
X125297619Y-119204819D02*
X125202381Y-119157200D01*
X125202381Y-119157200D02*
X125154762Y-119109580D01*
X125154762Y-119109580D02*
X125107143Y-119014342D01*
X125107143Y-119014342D02*
X125059524Y-118823866D01*
X125059524Y-118823866D02*
X125059524Y-118585771D01*
X125059524Y-118585771D02*
X125107143Y-118395295D01*
X125107143Y-118395295D02*
X125154762Y-118300057D01*
X125154762Y-118300057D02*
X125202381Y-118252438D01*
X125202381Y-118252438D02*
X125297619Y-118204819D01*
X126488095Y-118538152D02*
X126488095Y-119204819D01*
X126059524Y-118538152D02*
X126059524Y-119061961D01*
X126059524Y-119061961D02*
X126107143Y-119157200D01*
X126107143Y-119157200D02*
X126202381Y-119204819D01*
X126202381Y-119204819D02*
X126345238Y-119204819D01*
X126345238Y-119204819D02*
X126440476Y-119157200D01*
X126440476Y-119157200D02*
X126488095Y-119109580D01*
X127297619Y-118681009D02*
X126964286Y-118681009D01*
X126964286Y-119204819D02*
X126964286Y-118204819D01*
X126964286Y-118204819D02*
X127440476Y-118204819D01*
X124383333Y-100259580D02*
X124335714Y-100307200D01*
X124335714Y-100307200D02*
X124192857Y-100354819D01*
X124192857Y-100354819D02*
X124097619Y-100354819D01*
X124097619Y-100354819D02*
X123954762Y-100307200D01*
X123954762Y-100307200D02*
X123859524Y-100211961D01*
X123859524Y-100211961D02*
X123811905Y-100116723D01*
X123811905Y-100116723D02*
X123764286Y-99926247D01*
X123764286Y-99926247D02*
X123764286Y-99783390D01*
X123764286Y-99783390D02*
X123811905Y-99592914D01*
X123811905Y-99592914D02*
X123859524Y-99497676D01*
X123859524Y-99497676D02*
X123954762Y-99402438D01*
X123954762Y-99402438D02*
X124097619Y-99354819D01*
X124097619Y-99354819D02*
X124192857Y-99354819D01*
X124192857Y-99354819D02*
X124335714Y-99402438D01*
X124335714Y-99402438D02*
X124383333Y-99450057D01*
X125288095Y-99354819D02*
X124811905Y-99354819D01*
X124811905Y-99354819D02*
X124764286Y-99831009D01*
X124764286Y-99831009D02*
X124811905Y-99783390D01*
X124811905Y-99783390D02*
X124907143Y-99735771D01*
X124907143Y-99735771D02*
X125145238Y-99735771D01*
X125145238Y-99735771D02*
X125240476Y-99783390D01*
X125240476Y-99783390D02*
X125288095Y-99831009D01*
X125288095Y-99831009D02*
X125335714Y-99926247D01*
X125335714Y-99926247D02*
X125335714Y-100164342D01*
X125335714Y-100164342D02*
X125288095Y-100259580D01*
X125288095Y-100259580D02*
X125240476Y-100307200D01*
X125240476Y-100307200D02*
X125145238Y-100354819D01*
X125145238Y-100354819D02*
X124907143Y-100354819D01*
X124907143Y-100354819D02*
X124811905Y-100307200D01*
X124811905Y-100307200D02*
X124764286Y-100259580D01*
X125728571Y-98204819D02*
X125157143Y-98204819D01*
X125442857Y-98204819D02*
X125442857Y-97204819D01*
X125442857Y-97204819D02*
X125347619Y-97347676D01*
X125347619Y-97347676D02*
X125252381Y-97442914D01*
X125252381Y-97442914D02*
X125157143Y-97490533D01*
X126347619Y-97204819D02*
X126442857Y-97204819D01*
X126442857Y-97204819D02*
X126538095Y-97252438D01*
X126538095Y-97252438D02*
X126585714Y-97300057D01*
X126585714Y-97300057D02*
X126633333Y-97395295D01*
X126633333Y-97395295D02*
X126680952Y-97585771D01*
X126680952Y-97585771D02*
X126680952Y-97823866D01*
X126680952Y-97823866D02*
X126633333Y-98014342D01*
X126633333Y-98014342D02*
X126585714Y-98109580D01*
X126585714Y-98109580D02*
X126538095Y-98157200D01*
X126538095Y-98157200D02*
X126442857Y-98204819D01*
X126442857Y-98204819D02*
X126347619Y-98204819D01*
X126347619Y-98204819D02*
X126252381Y-98157200D01*
X126252381Y-98157200D02*
X126204762Y-98109580D01*
X126204762Y-98109580D02*
X126157143Y-98014342D01*
X126157143Y-98014342D02*
X126109524Y-97823866D01*
X126109524Y-97823866D02*
X126109524Y-97585771D01*
X126109524Y-97585771D02*
X126157143Y-97395295D01*
X126157143Y-97395295D02*
X126204762Y-97300057D01*
X126204762Y-97300057D02*
X126252381Y-97252438D01*
X126252381Y-97252438D02*
X126347619Y-97204819D01*
X127538095Y-97538152D02*
X127538095Y-98204819D01*
X127109524Y-97538152D02*
X127109524Y-98061961D01*
X127109524Y-98061961D02*
X127157143Y-98157200D01*
X127157143Y-98157200D02*
X127252381Y-98204819D01*
X127252381Y-98204819D02*
X127395238Y-98204819D01*
X127395238Y-98204819D02*
X127490476Y-98157200D01*
X127490476Y-98157200D02*
X127538095Y-98109580D01*
X128347619Y-97681009D02*
X128014286Y-97681009D01*
X128014286Y-98204819D02*
X128014286Y-97204819D01*
X128014286Y-97204819D02*
X128490476Y-97204819D01*
X110857142Y-109259580D02*
X110809523Y-109307200D01*
X110809523Y-109307200D02*
X110666666Y-109354819D01*
X110666666Y-109354819D02*
X110571428Y-109354819D01*
X110571428Y-109354819D02*
X110428571Y-109307200D01*
X110428571Y-109307200D02*
X110333333Y-109211961D01*
X110333333Y-109211961D02*
X110285714Y-109116723D01*
X110285714Y-109116723D02*
X110238095Y-108926247D01*
X110238095Y-108926247D02*
X110238095Y-108783390D01*
X110238095Y-108783390D02*
X110285714Y-108592914D01*
X110285714Y-108592914D02*
X110333333Y-108497676D01*
X110333333Y-108497676D02*
X110428571Y-108402438D01*
X110428571Y-108402438D02*
X110571428Y-108354819D01*
X110571428Y-108354819D02*
X110666666Y-108354819D01*
X110666666Y-108354819D02*
X110809523Y-108402438D01*
X110809523Y-108402438D02*
X110857142Y-108450057D01*
X111809523Y-109354819D02*
X111238095Y-109354819D01*
X111523809Y-109354819D02*
X111523809Y-108354819D01*
X111523809Y-108354819D02*
X111428571Y-108497676D01*
X111428571Y-108497676D02*
X111333333Y-108592914D01*
X111333333Y-108592914D02*
X111238095Y-108640533D01*
X112714285Y-108354819D02*
X112238095Y-108354819D01*
X112238095Y-108354819D02*
X112190476Y-108831009D01*
X112190476Y-108831009D02*
X112238095Y-108783390D01*
X112238095Y-108783390D02*
X112333333Y-108735771D01*
X112333333Y-108735771D02*
X112571428Y-108735771D01*
X112571428Y-108735771D02*
X112666666Y-108783390D01*
X112666666Y-108783390D02*
X112714285Y-108831009D01*
X112714285Y-108831009D02*
X112761904Y-108926247D01*
X112761904Y-108926247D02*
X112761904Y-109164342D01*
X112761904Y-109164342D02*
X112714285Y-109259580D01*
X112714285Y-109259580D02*
X112666666Y-109307200D01*
X112666666Y-109307200D02*
X112571428Y-109354819D01*
X112571428Y-109354819D02*
X112333333Y-109354819D01*
X112333333Y-109354819D02*
X112238095Y-109307200D01*
X112238095Y-109307200D02*
X112190476Y-109259580D01*
X117083333Y-108788152D02*
X117083333Y-109454819D01*
X116845238Y-108407200D02*
X116607143Y-109121485D01*
X116607143Y-109121485D02*
X117226190Y-109121485D01*
X117511905Y-108454819D02*
X118178571Y-108454819D01*
X118178571Y-108454819D02*
X117750000Y-109454819D01*
X118988095Y-108788152D02*
X118988095Y-109454819D01*
X118559524Y-108788152D02*
X118559524Y-109311961D01*
X118559524Y-109311961D02*
X118607143Y-109407200D01*
X118607143Y-109407200D02*
X118702381Y-109454819D01*
X118702381Y-109454819D02*
X118845238Y-109454819D01*
X118845238Y-109454819D02*
X118940476Y-109407200D01*
X118940476Y-109407200D02*
X118988095Y-109359580D01*
X119797619Y-108931009D02*
X119464286Y-108931009D01*
X119464286Y-109454819D02*
X119464286Y-108454819D01*
X119464286Y-108454819D02*
X119940476Y-108454819D01*
X138608333Y-122959580D02*
X138560714Y-123007200D01*
X138560714Y-123007200D02*
X138417857Y-123054819D01*
X138417857Y-123054819D02*
X138322619Y-123054819D01*
X138322619Y-123054819D02*
X138179762Y-123007200D01*
X138179762Y-123007200D02*
X138084524Y-122911961D01*
X138084524Y-122911961D02*
X138036905Y-122816723D01*
X138036905Y-122816723D02*
X137989286Y-122626247D01*
X137989286Y-122626247D02*
X137989286Y-122483390D01*
X137989286Y-122483390D02*
X138036905Y-122292914D01*
X138036905Y-122292914D02*
X138084524Y-122197676D01*
X138084524Y-122197676D02*
X138179762Y-122102438D01*
X138179762Y-122102438D02*
X138322619Y-122054819D01*
X138322619Y-122054819D02*
X138417857Y-122054819D01*
X138417857Y-122054819D02*
X138560714Y-122102438D01*
X138560714Y-122102438D02*
X138608333Y-122150057D01*
X139560714Y-123054819D02*
X138989286Y-123054819D01*
X139275000Y-123054819D02*
X139275000Y-122054819D01*
X139275000Y-122054819D02*
X139179762Y-122197676D01*
X139179762Y-122197676D02*
X139084524Y-122292914D01*
X139084524Y-122292914D02*
X138989286Y-122340533D01*
X136976190Y-124454819D02*
X136404762Y-124454819D01*
X136690476Y-124454819D02*
X136690476Y-123454819D01*
X136690476Y-123454819D02*
X136595238Y-123597676D01*
X136595238Y-123597676D02*
X136500000Y-123692914D01*
X136500000Y-123692914D02*
X136404762Y-123740533D01*
X137595238Y-123454819D02*
X137690476Y-123454819D01*
X137690476Y-123454819D02*
X137785714Y-123502438D01*
X137785714Y-123502438D02*
X137833333Y-123550057D01*
X137833333Y-123550057D02*
X137880952Y-123645295D01*
X137880952Y-123645295D02*
X137928571Y-123835771D01*
X137928571Y-123835771D02*
X137928571Y-124073866D01*
X137928571Y-124073866D02*
X137880952Y-124264342D01*
X137880952Y-124264342D02*
X137833333Y-124359580D01*
X137833333Y-124359580D02*
X137785714Y-124407200D01*
X137785714Y-124407200D02*
X137690476Y-124454819D01*
X137690476Y-124454819D02*
X137595238Y-124454819D01*
X137595238Y-124454819D02*
X137500000Y-124407200D01*
X137500000Y-124407200D02*
X137452381Y-124359580D01*
X137452381Y-124359580D02*
X137404762Y-124264342D01*
X137404762Y-124264342D02*
X137357143Y-124073866D01*
X137357143Y-124073866D02*
X137357143Y-123835771D01*
X137357143Y-123835771D02*
X137404762Y-123645295D01*
X137404762Y-123645295D02*
X137452381Y-123550057D01*
X137452381Y-123550057D02*
X137500000Y-123502438D01*
X137500000Y-123502438D02*
X137595238Y-123454819D01*
X138547619Y-123454819D02*
X138642857Y-123454819D01*
X138642857Y-123454819D02*
X138738095Y-123502438D01*
X138738095Y-123502438D02*
X138785714Y-123550057D01*
X138785714Y-123550057D02*
X138833333Y-123645295D01*
X138833333Y-123645295D02*
X138880952Y-123835771D01*
X138880952Y-123835771D02*
X138880952Y-124073866D01*
X138880952Y-124073866D02*
X138833333Y-124264342D01*
X138833333Y-124264342D02*
X138785714Y-124359580D01*
X138785714Y-124359580D02*
X138738095Y-124407200D01*
X138738095Y-124407200D02*
X138642857Y-124454819D01*
X138642857Y-124454819D02*
X138547619Y-124454819D01*
X138547619Y-124454819D02*
X138452381Y-124407200D01*
X138452381Y-124407200D02*
X138404762Y-124359580D01*
X138404762Y-124359580D02*
X138357143Y-124264342D01*
X138357143Y-124264342D02*
X138309524Y-124073866D01*
X138309524Y-124073866D02*
X138309524Y-123835771D01*
X138309524Y-123835771D02*
X138357143Y-123645295D01*
X138357143Y-123645295D02*
X138404762Y-123550057D01*
X138404762Y-123550057D02*
X138452381Y-123502438D01*
X138452381Y-123502438D02*
X138547619Y-123454819D01*
X139500000Y-123454819D02*
X139595238Y-123454819D01*
X139595238Y-123454819D02*
X139690476Y-123502438D01*
X139690476Y-123502438D02*
X139738095Y-123550057D01*
X139738095Y-123550057D02*
X139785714Y-123645295D01*
X139785714Y-123645295D02*
X139833333Y-123835771D01*
X139833333Y-123835771D02*
X139833333Y-124073866D01*
X139833333Y-124073866D02*
X139785714Y-124264342D01*
X139785714Y-124264342D02*
X139738095Y-124359580D01*
X139738095Y-124359580D02*
X139690476Y-124407200D01*
X139690476Y-124407200D02*
X139595238Y-124454819D01*
X139595238Y-124454819D02*
X139500000Y-124454819D01*
X139500000Y-124454819D02*
X139404762Y-124407200D01*
X139404762Y-124407200D02*
X139357143Y-124359580D01*
X139357143Y-124359580D02*
X139309524Y-124264342D01*
X139309524Y-124264342D02*
X139261905Y-124073866D01*
X139261905Y-124073866D02*
X139261905Y-123835771D01*
X139261905Y-123835771D02*
X139309524Y-123645295D01*
X139309524Y-123645295D02*
X139357143Y-123550057D01*
X139357143Y-123550057D02*
X139404762Y-123502438D01*
X139404762Y-123502438D02*
X139500000Y-123454819D01*
X140261905Y-123788152D02*
X140261905Y-124788152D01*
X140261905Y-123835771D02*
X140357143Y-123788152D01*
X140357143Y-123788152D02*
X140547619Y-123788152D01*
X140547619Y-123788152D02*
X140642857Y-123835771D01*
X140642857Y-123835771D02*
X140690476Y-123883390D01*
X140690476Y-123883390D02*
X140738095Y-123978628D01*
X140738095Y-123978628D02*
X140738095Y-124264342D01*
X140738095Y-124264342D02*
X140690476Y-124359580D01*
X140690476Y-124359580D02*
X140642857Y-124407200D01*
X140642857Y-124407200D02*
X140547619Y-124454819D01*
X140547619Y-124454819D02*
X140357143Y-124454819D01*
X140357143Y-124454819D02*
X140261905Y-124407200D01*
X141500000Y-123931009D02*
X141166667Y-123931009D01*
X141166667Y-124454819D02*
X141166667Y-123454819D01*
X141166667Y-123454819D02*
X141642857Y-123454819D01*
X118457142Y-73959580D02*
X118409523Y-74007200D01*
X118409523Y-74007200D02*
X118266666Y-74054819D01*
X118266666Y-74054819D02*
X118171428Y-74054819D01*
X118171428Y-74054819D02*
X118028571Y-74007200D01*
X118028571Y-74007200D02*
X117933333Y-73911961D01*
X117933333Y-73911961D02*
X117885714Y-73816723D01*
X117885714Y-73816723D02*
X117838095Y-73626247D01*
X117838095Y-73626247D02*
X117838095Y-73483390D01*
X117838095Y-73483390D02*
X117885714Y-73292914D01*
X117885714Y-73292914D02*
X117933333Y-73197676D01*
X117933333Y-73197676D02*
X118028571Y-73102438D01*
X118028571Y-73102438D02*
X118171428Y-73054819D01*
X118171428Y-73054819D02*
X118266666Y-73054819D01*
X118266666Y-73054819D02*
X118409523Y-73102438D01*
X118409523Y-73102438D02*
X118457142Y-73150057D01*
X119409523Y-74054819D02*
X118838095Y-74054819D01*
X119123809Y-74054819D02*
X119123809Y-73054819D01*
X119123809Y-73054819D02*
X119028571Y-73197676D01*
X119028571Y-73197676D02*
X118933333Y-73292914D01*
X118933333Y-73292914D02*
X118838095Y-73340533D01*
X120266666Y-73054819D02*
X120076190Y-73054819D01*
X120076190Y-73054819D02*
X119980952Y-73102438D01*
X119980952Y-73102438D02*
X119933333Y-73150057D01*
X119933333Y-73150057D02*
X119838095Y-73292914D01*
X119838095Y-73292914D02*
X119790476Y-73483390D01*
X119790476Y-73483390D02*
X119790476Y-73864342D01*
X119790476Y-73864342D02*
X119838095Y-73959580D01*
X119838095Y-73959580D02*
X119885714Y-74007200D01*
X119885714Y-74007200D02*
X119980952Y-74054819D01*
X119980952Y-74054819D02*
X120171428Y-74054819D01*
X120171428Y-74054819D02*
X120266666Y-74007200D01*
X120266666Y-74007200D02*
X120314285Y-73959580D01*
X120314285Y-73959580D02*
X120361904Y-73864342D01*
X120361904Y-73864342D02*
X120361904Y-73626247D01*
X120361904Y-73626247D02*
X120314285Y-73531009D01*
X120314285Y-73531009D02*
X120266666Y-73483390D01*
X120266666Y-73483390D02*
X120171428Y-73435771D01*
X120171428Y-73435771D02*
X119980952Y-73435771D01*
X119980952Y-73435771D02*
X119885714Y-73483390D01*
X119885714Y-73483390D02*
X119838095Y-73531009D01*
X119838095Y-73531009D02*
X119790476Y-73626247D01*
X118100000Y-74354819D02*
X118195238Y-74354819D01*
X118195238Y-74354819D02*
X118290476Y-74402438D01*
X118290476Y-74402438D02*
X118338095Y-74450057D01*
X118338095Y-74450057D02*
X118385714Y-74545295D01*
X118385714Y-74545295D02*
X118433333Y-74735771D01*
X118433333Y-74735771D02*
X118433333Y-74973866D01*
X118433333Y-74973866D02*
X118385714Y-75164342D01*
X118385714Y-75164342D02*
X118338095Y-75259580D01*
X118338095Y-75259580D02*
X118290476Y-75307200D01*
X118290476Y-75307200D02*
X118195238Y-75354819D01*
X118195238Y-75354819D02*
X118100000Y-75354819D01*
X118100000Y-75354819D02*
X118004762Y-75307200D01*
X118004762Y-75307200D02*
X117957143Y-75259580D01*
X117957143Y-75259580D02*
X117909524Y-75164342D01*
X117909524Y-75164342D02*
X117861905Y-74973866D01*
X117861905Y-74973866D02*
X117861905Y-74735771D01*
X117861905Y-74735771D02*
X117909524Y-74545295D01*
X117909524Y-74545295D02*
X117957143Y-74450057D01*
X117957143Y-74450057D02*
X118004762Y-74402438D01*
X118004762Y-74402438D02*
X118100000Y-74354819D01*
X118861905Y-75259580D02*
X118909524Y-75307200D01*
X118909524Y-75307200D02*
X118861905Y-75354819D01*
X118861905Y-75354819D02*
X118814286Y-75307200D01*
X118814286Y-75307200D02*
X118861905Y-75259580D01*
X118861905Y-75259580D02*
X118861905Y-75354819D01*
X119861904Y-75354819D02*
X119290476Y-75354819D01*
X119576190Y-75354819D02*
X119576190Y-74354819D01*
X119576190Y-74354819D02*
X119480952Y-74497676D01*
X119480952Y-74497676D02*
X119385714Y-74592914D01*
X119385714Y-74592914D02*
X119290476Y-74640533D01*
X120719047Y-74688152D02*
X120719047Y-75354819D01*
X120290476Y-74688152D02*
X120290476Y-75211961D01*
X120290476Y-75211961D02*
X120338095Y-75307200D01*
X120338095Y-75307200D02*
X120433333Y-75354819D01*
X120433333Y-75354819D02*
X120576190Y-75354819D01*
X120576190Y-75354819D02*
X120671428Y-75307200D01*
X120671428Y-75307200D02*
X120719047Y-75259580D01*
X121052381Y-74688152D02*
X121433333Y-74688152D01*
X121195238Y-75354819D02*
X121195238Y-74497676D01*
X121195238Y-74497676D02*
X121242857Y-74402438D01*
X121242857Y-74402438D02*
X121338095Y-74354819D01*
X121338095Y-74354819D02*
X121433333Y-74354819D01*
X152033333Y-102759580D02*
X151985714Y-102807200D01*
X151985714Y-102807200D02*
X151842857Y-102854819D01*
X151842857Y-102854819D02*
X151747619Y-102854819D01*
X151747619Y-102854819D02*
X151604762Y-102807200D01*
X151604762Y-102807200D02*
X151509524Y-102711961D01*
X151509524Y-102711961D02*
X151461905Y-102616723D01*
X151461905Y-102616723D02*
X151414286Y-102426247D01*
X151414286Y-102426247D02*
X151414286Y-102283390D01*
X151414286Y-102283390D02*
X151461905Y-102092914D01*
X151461905Y-102092914D02*
X151509524Y-101997676D01*
X151509524Y-101997676D02*
X151604762Y-101902438D01*
X151604762Y-101902438D02*
X151747619Y-101854819D01*
X151747619Y-101854819D02*
X151842857Y-101854819D01*
X151842857Y-101854819D02*
X151985714Y-101902438D01*
X151985714Y-101902438D02*
X152033333Y-101950057D01*
X152509524Y-102854819D02*
X152700000Y-102854819D01*
X152700000Y-102854819D02*
X152795238Y-102807200D01*
X152795238Y-102807200D02*
X152842857Y-102759580D01*
X152842857Y-102759580D02*
X152938095Y-102616723D01*
X152938095Y-102616723D02*
X152985714Y-102426247D01*
X152985714Y-102426247D02*
X152985714Y-102045295D01*
X152985714Y-102045295D02*
X152938095Y-101950057D01*
X152938095Y-101950057D02*
X152890476Y-101902438D01*
X152890476Y-101902438D02*
X152795238Y-101854819D01*
X152795238Y-101854819D02*
X152604762Y-101854819D01*
X152604762Y-101854819D02*
X152509524Y-101902438D01*
X152509524Y-101902438D02*
X152461905Y-101950057D01*
X152461905Y-101950057D02*
X152414286Y-102045295D01*
X152414286Y-102045295D02*
X152414286Y-102283390D01*
X152414286Y-102283390D02*
X152461905Y-102378628D01*
X152461905Y-102378628D02*
X152509524Y-102426247D01*
X152509524Y-102426247D02*
X152604762Y-102473866D01*
X152604762Y-102473866D02*
X152795238Y-102473866D01*
X152795238Y-102473866D02*
X152890476Y-102426247D01*
X152890476Y-102426247D02*
X152938095Y-102378628D01*
X152938095Y-102378628D02*
X152985714Y-102283390D01*
X151647618Y-98954819D02*
X151076190Y-98954819D01*
X151361904Y-98954819D02*
X151361904Y-97954819D01*
X151361904Y-97954819D02*
X151266666Y-98097676D01*
X151266666Y-98097676D02*
X151171428Y-98192914D01*
X151171428Y-98192914D02*
X151076190Y-98240533D01*
X152504761Y-98288152D02*
X152504761Y-98954819D01*
X152076190Y-98288152D02*
X152076190Y-98811961D01*
X152076190Y-98811961D02*
X152123809Y-98907200D01*
X152123809Y-98907200D02*
X152219047Y-98954819D01*
X152219047Y-98954819D02*
X152361904Y-98954819D01*
X152361904Y-98954819D02*
X152457142Y-98907200D01*
X152457142Y-98907200D02*
X152504761Y-98859580D01*
X152838095Y-98288152D02*
X153219047Y-98288152D01*
X152980952Y-98954819D02*
X152980952Y-98097676D01*
X152980952Y-98097676D02*
X153028571Y-98002438D01*
X153028571Y-98002438D02*
X153123809Y-97954819D01*
X153123809Y-97954819D02*
X153219047Y-97954819D01*
X153197619Y-84243247D02*
X153464285Y-84243247D01*
X153578571Y-84662295D02*
X153197619Y-84662295D01*
X153197619Y-84662295D02*
X153197619Y-83862295D01*
X153197619Y-83862295D02*
X153578571Y-83862295D01*
X153959524Y-84662295D02*
X154111905Y-84662295D01*
X154111905Y-84662295D02*
X154188095Y-84624200D01*
X154188095Y-84624200D02*
X154226191Y-84586104D01*
X154226191Y-84586104D02*
X154302381Y-84471819D01*
X154302381Y-84471819D02*
X154340476Y-84319438D01*
X154340476Y-84319438D02*
X154340476Y-84014676D01*
X154340476Y-84014676D02*
X154302381Y-83938485D01*
X154302381Y-83938485D02*
X154264286Y-83900390D01*
X154264286Y-83900390D02*
X154188095Y-83862295D01*
X154188095Y-83862295D02*
X154035714Y-83862295D01*
X154035714Y-83862295D02*
X153959524Y-83900390D01*
X153959524Y-83900390D02*
X153921429Y-83938485D01*
X153921429Y-83938485D02*
X153883333Y-84014676D01*
X153883333Y-84014676D02*
X153883333Y-84205152D01*
X153883333Y-84205152D02*
X153921429Y-84281342D01*
X153921429Y-84281342D02*
X153959524Y-84319438D01*
X153959524Y-84319438D02*
X154035714Y-84357533D01*
X154035714Y-84357533D02*
X154188095Y-84357533D01*
X154188095Y-84357533D02*
X154264286Y-84319438D01*
X154264286Y-84319438D02*
X154302381Y-84281342D01*
X154302381Y-84281342D02*
X154340476Y-84205152D01*
X130511905Y-79204819D02*
X130511905Y-78204819D01*
X130511905Y-78204819D02*
X130750000Y-78204819D01*
X130750000Y-78204819D02*
X130892857Y-78252438D01*
X130892857Y-78252438D02*
X130988095Y-78347676D01*
X130988095Y-78347676D02*
X131035714Y-78442914D01*
X131035714Y-78442914D02*
X131083333Y-78633390D01*
X131083333Y-78633390D02*
X131083333Y-78776247D01*
X131083333Y-78776247D02*
X131035714Y-78966723D01*
X131035714Y-78966723D02*
X130988095Y-79061961D01*
X130988095Y-79061961D02*
X130892857Y-79157200D01*
X130892857Y-79157200D02*
X130750000Y-79204819D01*
X130750000Y-79204819D02*
X130511905Y-79204819D01*
X131464286Y-78300057D02*
X131511905Y-78252438D01*
X131511905Y-78252438D02*
X131607143Y-78204819D01*
X131607143Y-78204819D02*
X131845238Y-78204819D01*
X131845238Y-78204819D02*
X131940476Y-78252438D01*
X131940476Y-78252438D02*
X131988095Y-78300057D01*
X131988095Y-78300057D02*
X132035714Y-78395295D01*
X132035714Y-78395295D02*
X132035714Y-78490533D01*
X132035714Y-78490533D02*
X131988095Y-78633390D01*
X131988095Y-78633390D02*
X131416667Y-79204819D01*
X131416667Y-79204819D02*
X132035714Y-79204819D01*
X120497619Y-99893247D02*
X120764285Y-99893247D01*
X120878571Y-100312295D02*
X120497619Y-100312295D01*
X120497619Y-100312295D02*
X120497619Y-99512295D01*
X120497619Y-99512295D02*
X120878571Y-99512295D01*
X121602381Y-99512295D02*
X121221429Y-99512295D01*
X121221429Y-99512295D02*
X121183333Y-99893247D01*
X121183333Y-99893247D02*
X121221429Y-99855152D01*
X121221429Y-99855152D02*
X121297619Y-99817057D01*
X121297619Y-99817057D02*
X121488095Y-99817057D01*
X121488095Y-99817057D02*
X121564286Y-99855152D01*
X121564286Y-99855152D02*
X121602381Y-99893247D01*
X121602381Y-99893247D02*
X121640476Y-99969438D01*
X121640476Y-99969438D02*
X121640476Y-100159914D01*
X121640476Y-100159914D02*
X121602381Y-100236104D01*
X121602381Y-100236104D02*
X121564286Y-100274200D01*
X121564286Y-100274200D02*
X121488095Y-100312295D01*
X121488095Y-100312295D02*
X121297619Y-100312295D01*
X121297619Y-100312295D02*
X121221429Y-100274200D01*
X121221429Y-100274200D02*
X121183333Y-100236104D01*
X112166666Y-88954819D02*
X112166666Y-89669104D01*
X112166666Y-89669104D02*
X112119047Y-89811961D01*
X112119047Y-89811961D02*
X112023809Y-89907200D01*
X112023809Y-89907200D02*
X111880952Y-89954819D01*
X111880952Y-89954819D02*
X111785714Y-89954819D01*
X112547619Y-88954819D02*
X113166666Y-88954819D01*
X113166666Y-88954819D02*
X112833333Y-89335771D01*
X112833333Y-89335771D02*
X112976190Y-89335771D01*
X112976190Y-89335771D02*
X113071428Y-89383390D01*
X113071428Y-89383390D02*
X113119047Y-89431009D01*
X113119047Y-89431009D02*
X113166666Y-89526247D01*
X113166666Y-89526247D02*
X113166666Y-89764342D01*
X113166666Y-89764342D02*
X113119047Y-89859580D01*
X113119047Y-89859580D02*
X113071428Y-89907200D01*
X113071428Y-89907200D02*
X112976190Y-89954819D01*
X112976190Y-89954819D02*
X112690476Y-89954819D01*
X112690476Y-89954819D02*
X112595238Y-89907200D01*
X112595238Y-89907200D02*
X112547619Y-89859580D01*
X137623095Y-108539819D02*
X137623095Y-109349342D01*
X137623095Y-109349342D02*
X137670714Y-109444580D01*
X137670714Y-109444580D02*
X137718333Y-109492200D01*
X137718333Y-109492200D02*
X137813571Y-109539819D01*
X137813571Y-109539819D02*
X138004047Y-109539819D01*
X138004047Y-109539819D02*
X138099285Y-109492200D01*
X138099285Y-109492200D02*
X138146904Y-109444580D01*
X138146904Y-109444580D02*
X138194523Y-109349342D01*
X138194523Y-109349342D02*
X138194523Y-108539819D01*
X138623095Y-108635057D02*
X138670714Y-108587438D01*
X138670714Y-108587438D02*
X138765952Y-108539819D01*
X138765952Y-108539819D02*
X139004047Y-108539819D01*
X139004047Y-108539819D02*
X139099285Y-108587438D01*
X139099285Y-108587438D02*
X139146904Y-108635057D01*
X139146904Y-108635057D02*
X139194523Y-108730295D01*
X139194523Y-108730295D02*
X139194523Y-108825533D01*
X139194523Y-108825533D02*
X139146904Y-108968390D01*
X139146904Y-108968390D02*
X138575476Y-109539819D01*
X138575476Y-109539819D02*
X139194523Y-109539819D01*
X114357142Y-89359580D02*
X114309523Y-89407200D01*
X114309523Y-89407200D02*
X114166666Y-89454819D01*
X114166666Y-89454819D02*
X114071428Y-89454819D01*
X114071428Y-89454819D02*
X113928571Y-89407200D01*
X113928571Y-89407200D02*
X113833333Y-89311961D01*
X113833333Y-89311961D02*
X113785714Y-89216723D01*
X113785714Y-89216723D02*
X113738095Y-89026247D01*
X113738095Y-89026247D02*
X113738095Y-88883390D01*
X113738095Y-88883390D02*
X113785714Y-88692914D01*
X113785714Y-88692914D02*
X113833333Y-88597676D01*
X113833333Y-88597676D02*
X113928571Y-88502438D01*
X113928571Y-88502438D02*
X114071428Y-88454819D01*
X114071428Y-88454819D02*
X114166666Y-88454819D01*
X114166666Y-88454819D02*
X114309523Y-88502438D01*
X114309523Y-88502438D02*
X114357142Y-88550057D01*
X115309523Y-89454819D02*
X114738095Y-89454819D01*
X115023809Y-89454819D02*
X115023809Y-88454819D01*
X115023809Y-88454819D02*
X114928571Y-88597676D01*
X114928571Y-88597676D02*
X114833333Y-88692914D01*
X114833333Y-88692914D02*
X114738095Y-88740533D01*
X115642857Y-88454819D02*
X116261904Y-88454819D01*
X116261904Y-88454819D02*
X115928571Y-88835771D01*
X115928571Y-88835771D02*
X116071428Y-88835771D01*
X116071428Y-88835771D02*
X116166666Y-88883390D01*
X116166666Y-88883390D02*
X116214285Y-88931009D01*
X116214285Y-88931009D02*
X116261904Y-89026247D01*
X116261904Y-89026247D02*
X116261904Y-89264342D01*
X116261904Y-89264342D02*
X116214285Y-89359580D01*
X116214285Y-89359580D02*
X116166666Y-89407200D01*
X116166666Y-89407200D02*
X116071428Y-89454819D01*
X116071428Y-89454819D02*
X115785714Y-89454819D01*
X115785714Y-89454819D02*
X115690476Y-89407200D01*
X115690476Y-89407200D02*
X115642857Y-89359580D01*
X120083333Y-88788152D02*
X120083333Y-89454819D01*
X119845238Y-88407200D02*
X119607143Y-89121485D01*
X119607143Y-89121485D02*
X120226190Y-89121485D01*
X120511905Y-88454819D02*
X121178571Y-88454819D01*
X121178571Y-88454819D02*
X120750000Y-89454819D01*
X121988095Y-88788152D02*
X121988095Y-89454819D01*
X121559524Y-88788152D02*
X121559524Y-89311961D01*
X121559524Y-89311961D02*
X121607143Y-89407200D01*
X121607143Y-89407200D02*
X121702381Y-89454819D01*
X121702381Y-89454819D02*
X121845238Y-89454819D01*
X121845238Y-89454819D02*
X121940476Y-89407200D01*
X121940476Y-89407200D02*
X121988095Y-89359580D01*
X122797619Y-88931009D02*
X122464286Y-88931009D01*
X122464286Y-89454819D02*
X122464286Y-88454819D01*
X122464286Y-88454819D02*
X122940476Y-88454819D01*
X111857142Y-120109580D02*
X111809523Y-120157200D01*
X111809523Y-120157200D02*
X111666666Y-120204819D01*
X111666666Y-120204819D02*
X111571428Y-120204819D01*
X111571428Y-120204819D02*
X111428571Y-120157200D01*
X111428571Y-120157200D02*
X111333333Y-120061961D01*
X111333333Y-120061961D02*
X111285714Y-119966723D01*
X111285714Y-119966723D02*
X111238095Y-119776247D01*
X111238095Y-119776247D02*
X111238095Y-119633390D01*
X111238095Y-119633390D02*
X111285714Y-119442914D01*
X111285714Y-119442914D02*
X111333333Y-119347676D01*
X111333333Y-119347676D02*
X111428571Y-119252438D01*
X111428571Y-119252438D02*
X111571428Y-119204819D01*
X111571428Y-119204819D02*
X111666666Y-119204819D01*
X111666666Y-119204819D02*
X111809523Y-119252438D01*
X111809523Y-119252438D02*
X111857142Y-119300057D01*
X112809523Y-120204819D02*
X112238095Y-120204819D01*
X112523809Y-120204819D02*
X112523809Y-119204819D01*
X112523809Y-119204819D02*
X112428571Y-119347676D01*
X112428571Y-119347676D02*
X112333333Y-119442914D01*
X112333333Y-119442914D02*
X112238095Y-119490533D01*
X113666666Y-119538152D02*
X113666666Y-120204819D01*
X113428571Y-119157200D02*
X113190476Y-119871485D01*
X113190476Y-119871485D02*
X113809523Y-119871485D01*
X117333333Y-119538152D02*
X117333333Y-120204819D01*
X117095238Y-119157200D02*
X116857143Y-119871485D01*
X116857143Y-119871485D02*
X117476190Y-119871485D01*
X117761905Y-119204819D02*
X118428571Y-119204819D01*
X118428571Y-119204819D02*
X118000000Y-120204819D01*
X119238095Y-119538152D02*
X119238095Y-120204819D01*
X118809524Y-119538152D02*
X118809524Y-120061961D01*
X118809524Y-120061961D02*
X118857143Y-120157200D01*
X118857143Y-120157200D02*
X118952381Y-120204819D01*
X118952381Y-120204819D02*
X119095238Y-120204819D01*
X119095238Y-120204819D02*
X119190476Y-120157200D01*
X119190476Y-120157200D02*
X119238095Y-120109580D01*
X120047619Y-119681009D02*
X119714286Y-119681009D01*
X119714286Y-120204819D02*
X119714286Y-119204819D01*
X119714286Y-119204819D02*
X120190476Y-119204819D01*
X133383333Y-90009580D02*
X133335714Y-90057200D01*
X133335714Y-90057200D02*
X133192857Y-90104819D01*
X133192857Y-90104819D02*
X133097619Y-90104819D01*
X133097619Y-90104819D02*
X132954762Y-90057200D01*
X132954762Y-90057200D02*
X132859524Y-89961961D01*
X132859524Y-89961961D02*
X132811905Y-89866723D01*
X132811905Y-89866723D02*
X132764286Y-89676247D01*
X132764286Y-89676247D02*
X132764286Y-89533390D01*
X132764286Y-89533390D02*
X132811905Y-89342914D01*
X132811905Y-89342914D02*
X132859524Y-89247676D01*
X132859524Y-89247676D02*
X132954762Y-89152438D01*
X132954762Y-89152438D02*
X133097619Y-89104819D01*
X133097619Y-89104819D02*
X133192857Y-89104819D01*
X133192857Y-89104819D02*
X133335714Y-89152438D01*
X133335714Y-89152438D02*
X133383333Y-89200057D01*
X133716667Y-89104819D02*
X134383333Y-89104819D01*
X134383333Y-89104819D02*
X133954762Y-90104819D01*
X133297618Y-91504819D02*
X132726190Y-91504819D01*
X133011904Y-91504819D02*
X133011904Y-90504819D01*
X133011904Y-90504819D02*
X132916666Y-90647676D01*
X132916666Y-90647676D02*
X132821428Y-90742914D01*
X132821428Y-90742914D02*
X132726190Y-90790533D01*
X134154761Y-90838152D02*
X134154761Y-91504819D01*
X133726190Y-90838152D02*
X133726190Y-91361961D01*
X133726190Y-91361961D02*
X133773809Y-91457200D01*
X133773809Y-91457200D02*
X133869047Y-91504819D01*
X133869047Y-91504819D02*
X134011904Y-91504819D01*
X134011904Y-91504819D02*
X134107142Y-91457200D01*
X134107142Y-91457200D02*
X134154761Y-91409580D01*
X134488095Y-90838152D02*
X134869047Y-90838152D01*
X134630952Y-91504819D02*
X134630952Y-90647676D01*
X134630952Y-90647676D02*
X134678571Y-90552438D01*
X134678571Y-90552438D02*
X134773809Y-90504819D01*
X134773809Y-90504819D02*
X134869047Y-90504819D01*
X130133333Y-109909580D02*
X130085714Y-109957200D01*
X130085714Y-109957200D02*
X129942857Y-110004819D01*
X129942857Y-110004819D02*
X129847619Y-110004819D01*
X129847619Y-110004819D02*
X129704762Y-109957200D01*
X129704762Y-109957200D02*
X129609524Y-109861961D01*
X129609524Y-109861961D02*
X129561905Y-109766723D01*
X129561905Y-109766723D02*
X129514286Y-109576247D01*
X129514286Y-109576247D02*
X129514286Y-109433390D01*
X129514286Y-109433390D02*
X129561905Y-109242914D01*
X129561905Y-109242914D02*
X129609524Y-109147676D01*
X129609524Y-109147676D02*
X129704762Y-109052438D01*
X129704762Y-109052438D02*
X129847619Y-109004819D01*
X129847619Y-109004819D02*
X129942857Y-109004819D01*
X129942857Y-109004819D02*
X130085714Y-109052438D01*
X130085714Y-109052438D02*
X130133333Y-109100057D01*
X130466667Y-109004819D02*
X131085714Y-109004819D01*
X131085714Y-109004819D02*
X130752381Y-109385771D01*
X130752381Y-109385771D02*
X130895238Y-109385771D01*
X130895238Y-109385771D02*
X130990476Y-109433390D01*
X130990476Y-109433390D02*
X131038095Y-109481009D01*
X131038095Y-109481009D02*
X131085714Y-109576247D01*
X131085714Y-109576247D02*
X131085714Y-109814342D01*
X131085714Y-109814342D02*
X131038095Y-109909580D01*
X131038095Y-109909580D02*
X130990476Y-109957200D01*
X130990476Y-109957200D02*
X130895238Y-110004819D01*
X130895238Y-110004819D02*
X130609524Y-110004819D01*
X130609524Y-110004819D02*
X130514286Y-109957200D01*
X130514286Y-109957200D02*
X130466667Y-109909580D01*
X129228571Y-111354819D02*
X128657143Y-111354819D01*
X128942857Y-111354819D02*
X128942857Y-110354819D01*
X128942857Y-110354819D02*
X128847619Y-110497676D01*
X128847619Y-110497676D02*
X128752381Y-110592914D01*
X128752381Y-110592914D02*
X128657143Y-110640533D01*
X129847619Y-110354819D02*
X129942857Y-110354819D01*
X129942857Y-110354819D02*
X130038095Y-110402438D01*
X130038095Y-110402438D02*
X130085714Y-110450057D01*
X130085714Y-110450057D02*
X130133333Y-110545295D01*
X130133333Y-110545295D02*
X130180952Y-110735771D01*
X130180952Y-110735771D02*
X130180952Y-110973866D01*
X130180952Y-110973866D02*
X130133333Y-111164342D01*
X130133333Y-111164342D02*
X130085714Y-111259580D01*
X130085714Y-111259580D02*
X130038095Y-111307200D01*
X130038095Y-111307200D02*
X129942857Y-111354819D01*
X129942857Y-111354819D02*
X129847619Y-111354819D01*
X129847619Y-111354819D02*
X129752381Y-111307200D01*
X129752381Y-111307200D02*
X129704762Y-111259580D01*
X129704762Y-111259580D02*
X129657143Y-111164342D01*
X129657143Y-111164342D02*
X129609524Y-110973866D01*
X129609524Y-110973866D02*
X129609524Y-110735771D01*
X129609524Y-110735771D02*
X129657143Y-110545295D01*
X129657143Y-110545295D02*
X129704762Y-110450057D01*
X129704762Y-110450057D02*
X129752381Y-110402438D01*
X129752381Y-110402438D02*
X129847619Y-110354819D01*
X131038095Y-110688152D02*
X131038095Y-111354819D01*
X130609524Y-110688152D02*
X130609524Y-111211961D01*
X130609524Y-111211961D02*
X130657143Y-111307200D01*
X130657143Y-111307200D02*
X130752381Y-111354819D01*
X130752381Y-111354819D02*
X130895238Y-111354819D01*
X130895238Y-111354819D02*
X130990476Y-111307200D01*
X130990476Y-111307200D02*
X131038095Y-111259580D01*
X131847619Y-110831009D02*
X131514286Y-110831009D01*
X131514286Y-111354819D02*
X131514286Y-110354819D01*
X131514286Y-110354819D02*
X131990476Y-110354819D01*
X149857142Y-113609580D02*
X149809523Y-113657200D01*
X149809523Y-113657200D02*
X149666666Y-113704819D01*
X149666666Y-113704819D02*
X149571428Y-113704819D01*
X149571428Y-113704819D02*
X149428571Y-113657200D01*
X149428571Y-113657200D02*
X149333333Y-113561961D01*
X149333333Y-113561961D02*
X149285714Y-113466723D01*
X149285714Y-113466723D02*
X149238095Y-113276247D01*
X149238095Y-113276247D02*
X149238095Y-113133390D01*
X149238095Y-113133390D02*
X149285714Y-112942914D01*
X149285714Y-112942914D02*
X149333333Y-112847676D01*
X149333333Y-112847676D02*
X149428571Y-112752438D01*
X149428571Y-112752438D02*
X149571428Y-112704819D01*
X149571428Y-112704819D02*
X149666666Y-112704819D01*
X149666666Y-112704819D02*
X149809523Y-112752438D01*
X149809523Y-112752438D02*
X149857142Y-112800057D01*
X150809523Y-113704819D02*
X150238095Y-113704819D01*
X150523809Y-113704819D02*
X150523809Y-112704819D01*
X150523809Y-112704819D02*
X150428571Y-112847676D01*
X150428571Y-112847676D02*
X150333333Y-112942914D01*
X150333333Y-112942914D02*
X150238095Y-112990533D01*
X151428571Y-112704819D02*
X151523809Y-112704819D01*
X151523809Y-112704819D02*
X151619047Y-112752438D01*
X151619047Y-112752438D02*
X151666666Y-112800057D01*
X151666666Y-112800057D02*
X151714285Y-112895295D01*
X151714285Y-112895295D02*
X151761904Y-113085771D01*
X151761904Y-113085771D02*
X151761904Y-113323866D01*
X151761904Y-113323866D02*
X151714285Y-113514342D01*
X151714285Y-113514342D02*
X151666666Y-113609580D01*
X151666666Y-113609580D02*
X151619047Y-113657200D01*
X151619047Y-113657200D02*
X151523809Y-113704819D01*
X151523809Y-113704819D02*
X151428571Y-113704819D01*
X151428571Y-113704819D02*
X151333333Y-113657200D01*
X151333333Y-113657200D02*
X151285714Y-113609580D01*
X151285714Y-113609580D02*
X151238095Y-113514342D01*
X151238095Y-113514342D02*
X151190476Y-113323866D01*
X151190476Y-113323866D02*
X151190476Y-113085771D01*
X151190476Y-113085771D02*
X151238095Y-112895295D01*
X151238095Y-112895295D02*
X151285714Y-112800057D01*
X151285714Y-112800057D02*
X151333333Y-112752438D01*
X151333333Y-112752438D02*
X151428571Y-112704819D01*
X149797618Y-115204819D02*
X149226190Y-115204819D01*
X149511904Y-115204819D02*
X149511904Y-114204819D01*
X149511904Y-114204819D02*
X149416666Y-114347676D01*
X149416666Y-114347676D02*
X149321428Y-114442914D01*
X149321428Y-114442914D02*
X149226190Y-114490533D01*
X150654761Y-114538152D02*
X150654761Y-115204819D01*
X150226190Y-114538152D02*
X150226190Y-115061961D01*
X150226190Y-115061961D02*
X150273809Y-115157200D01*
X150273809Y-115157200D02*
X150369047Y-115204819D01*
X150369047Y-115204819D02*
X150511904Y-115204819D01*
X150511904Y-115204819D02*
X150607142Y-115157200D01*
X150607142Y-115157200D02*
X150654761Y-115109580D01*
X150988095Y-114538152D02*
X151369047Y-114538152D01*
X151130952Y-115204819D02*
X151130952Y-114347676D01*
X151130952Y-114347676D02*
X151178571Y-114252438D01*
X151178571Y-114252438D02*
X151273809Y-114204819D01*
X151273809Y-114204819D02*
X151369047Y-114204819D01*
X123647619Y-87243247D02*
X123914285Y-87243247D01*
X124028571Y-87662295D02*
X123647619Y-87662295D01*
X123647619Y-87662295D02*
X123647619Y-86862295D01*
X123647619Y-86862295D02*
X124028571Y-86862295D01*
X124790476Y-87662295D02*
X124333333Y-87662295D01*
X124561905Y-87662295D02*
X124561905Y-86862295D01*
X124561905Y-86862295D02*
X124485714Y-86976580D01*
X124485714Y-86976580D02*
X124409524Y-87052771D01*
X124409524Y-87052771D02*
X124333333Y-87090866D01*
X125090619Y-114874647D02*
X125357285Y-114874647D01*
X125471571Y-115293695D02*
X125090619Y-115293695D01*
X125090619Y-115293695D02*
X125090619Y-114493695D01*
X125090619Y-114493695D02*
X125471571Y-114493695D01*
X126157286Y-114760361D02*
X126157286Y-115293695D01*
X125966810Y-114455600D02*
X125776333Y-115027028D01*
X125776333Y-115027028D02*
X126271572Y-115027028D01*
X113014619Y-93761847D02*
X113281285Y-93761847D01*
X113395571Y-94180895D02*
X113014619Y-94180895D01*
X113014619Y-94180895D02*
X113014619Y-93380895D01*
X113014619Y-93380895D02*
X113395571Y-93380895D01*
X114081286Y-93380895D02*
X113928905Y-93380895D01*
X113928905Y-93380895D02*
X113852714Y-93418990D01*
X113852714Y-93418990D02*
X113814619Y-93457085D01*
X113814619Y-93457085D02*
X113738429Y-93571371D01*
X113738429Y-93571371D02*
X113700333Y-93723752D01*
X113700333Y-93723752D02*
X113700333Y-94028514D01*
X113700333Y-94028514D02*
X113738429Y-94104704D01*
X113738429Y-94104704D02*
X113776524Y-94142800D01*
X113776524Y-94142800D02*
X113852714Y-94180895D01*
X113852714Y-94180895D02*
X114005095Y-94180895D01*
X114005095Y-94180895D02*
X114081286Y-94142800D01*
X114081286Y-94142800D02*
X114119381Y-94104704D01*
X114119381Y-94104704D02*
X114157476Y-94028514D01*
X114157476Y-94028514D02*
X114157476Y-93838038D01*
X114157476Y-93838038D02*
X114119381Y-93761847D01*
X114119381Y-93761847D02*
X114081286Y-93723752D01*
X114081286Y-93723752D02*
X114005095Y-93685657D01*
X114005095Y-93685657D02*
X113852714Y-93685657D01*
X113852714Y-93685657D02*
X113776524Y-93723752D01*
X113776524Y-93723752D02*
X113738429Y-93761847D01*
X113738429Y-93761847D02*
X113700333Y-93838038D01*
X116207142Y-77459580D02*
X116159523Y-77507200D01*
X116159523Y-77507200D02*
X116016666Y-77554819D01*
X116016666Y-77554819D02*
X115921428Y-77554819D01*
X115921428Y-77554819D02*
X115778571Y-77507200D01*
X115778571Y-77507200D02*
X115683333Y-77411961D01*
X115683333Y-77411961D02*
X115635714Y-77316723D01*
X115635714Y-77316723D02*
X115588095Y-77126247D01*
X115588095Y-77126247D02*
X115588095Y-76983390D01*
X115588095Y-76983390D02*
X115635714Y-76792914D01*
X115635714Y-76792914D02*
X115683333Y-76697676D01*
X115683333Y-76697676D02*
X115778571Y-76602438D01*
X115778571Y-76602438D02*
X115921428Y-76554819D01*
X115921428Y-76554819D02*
X116016666Y-76554819D01*
X116016666Y-76554819D02*
X116159523Y-76602438D01*
X116159523Y-76602438D02*
X116207142Y-76650057D01*
X117159523Y-77554819D02*
X116588095Y-77554819D01*
X116873809Y-77554819D02*
X116873809Y-76554819D01*
X116873809Y-76554819D02*
X116778571Y-76697676D01*
X116778571Y-76697676D02*
X116683333Y-76792914D01*
X116683333Y-76792914D02*
X116588095Y-76840533D01*
X118111904Y-77554819D02*
X117540476Y-77554819D01*
X117826190Y-77554819D02*
X117826190Y-76554819D01*
X117826190Y-76554819D02*
X117730952Y-76697676D01*
X117730952Y-76697676D02*
X117635714Y-76792914D01*
X117635714Y-76792914D02*
X117540476Y-76840533D01*
X115857143Y-77954819D02*
X115952381Y-77954819D01*
X115952381Y-77954819D02*
X116047619Y-78002438D01*
X116047619Y-78002438D02*
X116095238Y-78050057D01*
X116095238Y-78050057D02*
X116142857Y-78145295D01*
X116142857Y-78145295D02*
X116190476Y-78335771D01*
X116190476Y-78335771D02*
X116190476Y-78573866D01*
X116190476Y-78573866D02*
X116142857Y-78764342D01*
X116142857Y-78764342D02*
X116095238Y-78859580D01*
X116095238Y-78859580D02*
X116047619Y-78907200D01*
X116047619Y-78907200D02*
X115952381Y-78954819D01*
X115952381Y-78954819D02*
X115857143Y-78954819D01*
X115857143Y-78954819D02*
X115761905Y-78907200D01*
X115761905Y-78907200D02*
X115714286Y-78859580D01*
X115714286Y-78859580D02*
X115666667Y-78764342D01*
X115666667Y-78764342D02*
X115619048Y-78573866D01*
X115619048Y-78573866D02*
X115619048Y-78335771D01*
X115619048Y-78335771D02*
X115666667Y-78145295D01*
X115666667Y-78145295D02*
X115714286Y-78050057D01*
X115714286Y-78050057D02*
X115761905Y-78002438D01*
X115761905Y-78002438D02*
X115857143Y-77954819D01*
X116619048Y-78859580D02*
X116666667Y-78907200D01*
X116666667Y-78907200D02*
X116619048Y-78954819D01*
X116619048Y-78954819D02*
X116571429Y-78907200D01*
X116571429Y-78907200D02*
X116619048Y-78859580D01*
X116619048Y-78859580D02*
X116619048Y-78954819D01*
X117619047Y-78954819D02*
X117047619Y-78954819D01*
X117333333Y-78954819D02*
X117333333Y-77954819D01*
X117333333Y-77954819D02*
X117238095Y-78097676D01*
X117238095Y-78097676D02*
X117142857Y-78192914D01*
X117142857Y-78192914D02*
X117047619Y-78240533D01*
X118476190Y-78288152D02*
X118476190Y-78954819D01*
X118047619Y-78288152D02*
X118047619Y-78811961D01*
X118047619Y-78811961D02*
X118095238Y-78907200D01*
X118095238Y-78907200D02*
X118190476Y-78954819D01*
X118190476Y-78954819D02*
X118333333Y-78954819D01*
X118333333Y-78954819D02*
X118428571Y-78907200D01*
X118428571Y-78907200D02*
X118476190Y-78859580D01*
X119285714Y-78431009D02*
X118952381Y-78431009D01*
X118952381Y-78954819D02*
X118952381Y-77954819D01*
X118952381Y-77954819D02*
X119428571Y-77954819D01*
X132647619Y-93943247D02*
X132914285Y-93943247D01*
X133028571Y-94362295D02*
X132647619Y-94362295D01*
X132647619Y-94362295D02*
X132647619Y-93562295D01*
X132647619Y-93562295D02*
X133028571Y-93562295D01*
X133295238Y-93562295D02*
X133790476Y-93562295D01*
X133790476Y-93562295D02*
X133523810Y-93867057D01*
X133523810Y-93867057D02*
X133638095Y-93867057D01*
X133638095Y-93867057D02*
X133714286Y-93905152D01*
X133714286Y-93905152D02*
X133752381Y-93943247D01*
X133752381Y-93943247D02*
X133790476Y-94019438D01*
X133790476Y-94019438D02*
X133790476Y-94209914D01*
X133790476Y-94209914D02*
X133752381Y-94286104D01*
X133752381Y-94286104D02*
X133714286Y-94324200D01*
X133714286Y-94324200D02*
X133638095Y-94362295D01*
X133638095Y-94362295D02*
X133409524Y-94362295D01*
X133409524Y-94362295D02*
X133333333Y-94324200D01*
X133333333Y-94324200D02*
X133295238Y-94286104D01*
X132838095Y-118604819D02*
X132838095Y-119414342D01*
X132838095Y-119414342D02*
X132885714Y-119509580D01*
X132885714Y-119509580D02*
X132933333Y-119557200D01*
X132933333Y-119557200D02*
X133028571Y-119604819D01*
X133028571Y-119604819D02*
X133219047Y-119604819D01*
X133219047Y-119604819D02*
X133314285Y-119557200D01*
X133314285Y-119557200D02*
X133361904Y-119509580D01*
X133361904Y-119509580D02*
X133409523Y-119414342D01*
X133409523Y-119414342D02*
X133409523Y-118604819D01*
X134409523Y-119604819D02*
X133838095Y-119604819D01*
X134123809Y-119604819D02*
X134123809Y-118604819D01*
X134123809Y-118604819D02*
X134028571Y-118747676D01*
X134028571Y-118747676D02*
X133933333Y-118842914D01*
X133933333Y-118842914D02*
X133838095Y-118890533D01*
X120607142Y-92109580D02*
X120559523Y-92157200D01*
X120559523Y-92157200D02*
X120416666Y-92204819D01*
X120416666Y-92204819D02*
X120321428Y-92204819D01*
X120321428Y-92204819D02*
X120178571Y-92157200D01*
X120178571Y-92157200D02*
X120083333Y-92061961D01*
X120083333Y-92061961D02*
X120035714Y-91966723D01*
X120035714Y-91966723D02*
X119988095Y-91776247D01*
X119988095Y-91776247D02*
X119988095Y-91633390D01*
X119988095Y-91633390D02*
X120035714Y-91442914D01*
X120035714Y-91442914D02*
X120083333Y-91347676D01*
X120083333Y-91347676D02*
X120178571Y-91252438D01*
X120178571Y-91252438D02*
X120321428Y-91204819D01*
X120321428Y-91204819D02*
X120416666Y-91204819D01*
X120416666Y-91204819D02*
X120559523Y-91252438D01*
X120559523Y-91252438D02*
X120607142Y-91300057D01*
X121559523Y-92204819D02*
X120988095Y-92204819D01*
X121273809Y-92204819D02*
X121273809Y-91204819D01*
X121273809Y-91204819D02*
X121178571Y-91347676D01*
X121178571Y-91347676D02*
X121083333Y-91442914D01*
X121083333Y-91442914D02*
X120988095Y-91490533D01*
X121940476Y-91300057D02*
X121988095Y-91252438D01*
X121988095Y-91252438D02*
X122083333Y-91204819D01*
X122083333Y-91204819D02*
X122321428Y-91204819D01*
X122321428Y-91204819D02*
X122416666Y-91252438D01*
X122416666Y-91252438D02*
X122464285Y-91300057D01*
X122464285Y-91300057D02*
X122511904Y-91395295D01*
X122511904Y-91395295D02*
X122511904Y-91490533D01*
X122511904Y-91490533D02*
X122464285Y-91633390D01*
X122464285Y-91633390D02*
X121892857Y-92204819D01*
X121892857Y-92204819D02*
X122511904Y-92204819D01*
X120000000Y-97204819D02*
X120095238Y-97204819D01*
X120095238Y-97204819D02*
X120190476Y-97252438D01*
X120190476Y-97252438D02*
X120238095Y-97300057D01*
X120238095Y-97300057D02*
X120285714Y-97395295D01*
X120285714Y-97395295D02*
X120333333Y-97585771D01*
X120333333Y-97585771D02*
X120333333Y-97823866D01*
X120333333Y-97823866D02*
X120285714Y-98014342D01*
X120285714Y-98014342D02*
X120238095Y-98109580D01*
X120238095Y-98109580D02*
X120190476Y-98157200D01*
X120190476Y-98157200D02*
X120095238Y-98204819D01*
X120095238Y-98204819D02*
X120000000Y-98204819D01*
X120000000Y-98204819D02*
X119904762Y-98157200D01*
X119904762Y-98157200D02*
X119857143Y-98109580D01*
X119857143Y-98109580D02*
X119809524Y-98014342D01*
X119809524Y-98014342D02*
X119761905Y-97823866D01*
X119761905Y-97823866D02*
X119761905Y-97585771D01*
X119761905Y-97585771D02*
X119809524Y-97395295D01*
X119809524Y-97395295D02*
X119857143Y-97300057D01*
X119857143Y-97300057D02*
X119904762Y-97252438D01*
X119904762Y-97252438D02*
X120000000Y-97204819D01*
X120761905Y-98109580D02*
X120809524Y-98157200D01*
X120809524Y-98157200D02*
X120761905Y-98204819D01*
X120761905Y-98204819D02*
X120714286Y-98157200D01*
X120714286Y-98157200D02*
X120761905Y-98109580D01*
X120761905Y-98109580D02*
X120761905Y-98204819D01*
X121761904Y-98204819D02*
X121190476Y-98204819D01*
X121476190Y-98204819D02*
X121476190Y-97204819D01*
X121476190Y-97204819D02*
X121380952Y-97347676D01*
X121380952Y-97347676D02*
X121285714Y-97442914D01*
X121285714Y-97442914D02*
X121190476Y-97490533D01*
X122619047Y-97538152D02*
X122619047Y-98204819D01*
X122190476Y-97538152D02*
X122190476Y-98061961D01*
X122190476Y-98061961D02*
X122238095Y-98157200D01*
X122238095Y-98157200D02*
X122333333Y-98204819D01*
X122333333Y-98204819D02*
X122476190Y-98204819D01*
X122476190Y-98204819D02*
X122571428Y-98157200D01*
X122571428Y-98157200D02*
X122619047Y-98109580D01*
X122952381Y-97538152D02*
X123333333Y-97538152D01*
X123095238Y-98204819D02*
X123095238Y-97347676D01*
X123095238Y-97347676D02*
X123142857Y-97252438D01*
X123142857Y-97252438D02*
X123238095Y-97204819D01*
X123238095Y-97204819D02*
X123333333Y-97204819D01*
X114582142Y-72709580D02*
X114534523Y-72757200D01*
X114534523Y-72757200D02*
X114391666Y-72804819D01*
X114391666Y-72804819D02*
X114296428Y-72804819D01*
X114296428Y-72804819D02*
X114153571Y-72757200D01*
X114153571Y-72757200D02*
X114058333Y-72661961D01*
X114058333Y-72661961D02*
X114010714Y-72566723D01*
X114010714Y-72566723D02*
X113963095Y-72376247D01*
X113963095Y-72376247D02*
X113963095Y-72233390D01*
X113963095Y-72233390D02*
X114010714Y-72042914D01*
X114010714Y-72042914D02*
X114058333Y-71947676D01*
X114058333Y-71947676D02*
X114153571Y-71852438D01*
X114153571Y-71852438D02*
X114296428Y-71804819D01*
X114296428Y-71804819D02*
X114391666Y-71804819D01*
X114391666Y-71804819D02*
X114534523Y-71852438D01*
X114534523Y-71852438D02*
X114582142Y-71900057D01*
X115534523Y-72804819D02*
X114963095Y-72804819D01*
X115248809Y-72804819D02*
X115248809Y-71804819D01*
X115248809Y-71804819D02*
X115153571Y-71947676D01*
X115153571Y-71947676D02*
X115058333Y-72042914D01*
X115058333Y-72042914D02*
X114963095Y-72090533D01*
X115867857Y-71804819D02*
X116534523Y-71804819D01*
X116534523Y-71804819D02*
X116105952Y-72804819D01*
X113725000Y-68104819D02*
X113820238Y-68104819D01*
X113820238Y-68104819D02*
X113915476Y-68152438D01*
X113915476Y-68152438D02*
X113963095Y-68200057D01*
X113963095Y-68200057D02*
X114010714Y-68295295D01*
X114010714Y-68295295D02*
X114058333Y-68485771D01*
X114058333Y-68485771D02*
X114058333Y-68723866D01*
X114058333Y-68723866D02*
X114010714Y-68914342D01*
X114010714Y-68914342D02*
X113963095Y-69009580D01*
X113963095Y-69009580D02*
X113915476Y-69057200D01*
X113915476Y-69057200D02*
X113820238Y-69104819D01*
X113820238Y-69104819D02*
X113725000Y-69104819D01*
X113725000Y-69104819D02*
X113629762Y-69057200D01*
X113629762Y-69057200D02*
X113582143Y-69009580D01*
X113582143Y-69009580D02*
X113534524Y-68914342D01*
X113534524Y-68914342D02*
X113486905Y-68723866D01*
X113486905Y-68723866D02*
X113486905Y-68485771D01*
X113486905Y-68485771D02*
X113534524Y-68295295D01*
X113534524Y-68295295D02*
X113582143Y-68200057D01*
X113582143Y-68200057D02*
X113629762Y-68152438D01*
X113629762Y-68152438D02*
X113725000Y-68104819D01*
X114486905Y-69009580D02*
X114534524Y-69057200D01*
X114534524Y-69057200D02*
X114486905Y-69104819D01*
X114486905Y-69104819D02*
X114439286Y-69057200D01*
X114439286Y-69057200D02*
X114486905Y-69009580D01*
X114486905Y-69009580D02*
X114486905Y-69104819D01*
X115486904Y-69104819D02*
X114915476Y-69104819D01*
X115201190Y-69104819D02*
X115201190Y-68104819D01*
X115201190Y-68104819D02*
X115105952Y-68247676D01*
X115105952Y-68247676D02*
X115010714Y-68342914D01*
X115010714Y-68342914D02*
X114915476Y-68390533D01*
X116344047Y-68438152D02*
X116344047Y-69104819D01*
X115915476Y-68438152D02*
X115915476Y-68961961D01*
X115915476Y-68961961D02*
X115963095Y-69057200D01*
X115963095Y-69057200D02*
X116058333Y-69104819D01*
X116058333Y-69104819D02*
X116201190Y-69104819D01*
X116201190Y-69104819D02*
X116296428Y-69057200D01*
X116296428Y-69057200D02*
X116344047Y-69009580D01*
X116677381Y-68438152D02*
X117058333Y-68438152D01*
X116820238Y-69104819D02*
X116820238Y-68247676D01*
X116820238Y-68247676D02*
X116867857Y-68152438D01*
X116867857Y-68152438D02*
X116963095Y-68104819D01*
X116963095Y-68104819D02*
X117058333Y-68104819D01*
X151807142Y-91059580D02*
X151759523Y-91107200D01*
X151759523Y-91107200D02*
X151616666Y-91154819D01*
X151616666Y-91154819D02*
X151521428Y-91154819D01*
X151521428Y-91154819D02*
X151378571Y-91107200D01*
X151378571Y-91107200D02*
X151283333Y-91011961D01*
X151283333Y-91011961D02*
X151235714Y-90916723D01*
X151235714Y-90916723D02*
X151188095Y-90726247D01*
X151188095Y-90726247D02*
X151188095Y-90583390D01*
X151188095Y-90583390D02*
X151235714Y-90392914D01*
X151235714Y-90392914D02*
X151283333Y-90297676D01*
X151283333Y-90297676D02*
X151378571Y-90202438D01*
X151378571Y-90202438D02*
X151521428Y-90154819D01*
X151521428Y-90154819D02*
X151616666Y-90154819D01*
X151616666Y-90154819D02*
X151759523Y-90202438D01*
X151759523Y-90202438D02*
X151807142Y-90250057D01*
X152759523Y-91154819D02*
X152188095Y-91154819D01*
X152473809Y-91154819D02*
X152473809Y-90154819D01*
X152473809Y-90154819D02*
X152378571Y-90297676D01*
X152378571Y-90297676D02*
X152283333Y-90392914D01*
X152283333Y-90392914D02*
X152188095Y-90440533D01*
X153330952Y-90583390D02*
X153235714Y-90535771D01*
X153235714Y-90535771D02*
X153188095Y-90488152D01*
X153188095Y-90488152D02*
X153140476Y-90392914D01*
X153140476Y-90392914D02*
X153140476Y-90345295D01*
X153140476Y-90345295D02*
X153188095Y-90250057D01*
X153188095Y-90250057D02*
X153235714Y-90202438D01*
X153235714Y-90202438D02*
X153330952Y-90154819D01*
X153330952Y-90154819D02*
X153521428Y-90154819D01*
X153521428Y-90154819D02*
X153616666Y-90202438D01*
X153616666Y-90202438D02*
X153664285Y-90250057D01*
X153664285Y-90250057D02*
X153711904Y-90345295D01*
X153711904Y-90345295D02*
X153711904Y-90392914D01*
X153711904Y-90392914D02*
X153664285Y-90488152D01*
X153664285Y-90488152D02*
X153616666Y-90535771D01*
X153616666Y-90535771D02*
X153521428Y-90583390D01*
X153521428Y-90583390D02*
X153330952Y-90583390D01*
X153330952Y-90583390D02*
X153235714Y-90631009D01*
X153235714Y-90631009D02*
X153188095Y-90678628D01*
X153188095Y-90678628D02*
X153140476Y-90773866D01*
X153140476Y-90773866D02*
X153140476Y-90964342D01*
X153140476Y-90964342D02*
X153188095Y-91059580D01*
X153188095Y-91059580D02*
X153235714Y-91107200D01*
X153235714Y-91107200D02*
X153330952Y-91154819D01*
X153330952Y-91154819D02*
X153521428Y-91154819D01*
X153521428Y-91154819D02*
X153616666Y-91107200D01*
X153616666Y-91107200D02*
X153664285Y-91059580D01*
X153664285Y-91059580D02*
X153711904Y-90964342D01*
X153711904Y-90964342D02*
X153711904Y-90773866D01*
X153711904Y-90773866D02*
X153664285Y-90678628D01*
X153664285Y-90678628D02*
X153616666Y-90631009D01*
X153616666Y-90631009D02*
X153521428Y-90583390D01*
X150500000Y-91604819D02*
X150595238Y-91604819D01*
X150595238Y-91604819D02*
X150690476Y-91652438D01*
X150690476Y-91652438D02*
X150738095Y-91700057D01*
X150738095Y-91700057D02*
X150785714Y-91795295D01*
X150785714Y-91795295D02*
X150833333Y-91985771D01*
X150833333Y-91985771D02*
X150833333Y-92223866D01*
X150833333Y-92223866D02*
X150785714Y-92414342D01*
X150785714Y-92414342D02*
X150738095Y-92509580D01*
X150738095Y-92509580D02*
X150690476Y-92557200D01*
X150690476Y-92557200D02*
X150595238Y-92604819D01*
X150595238Y-92604819D02*
X150500000Y-92604819D01*
X150500000Y-92604819D02*
X150404762Y-92557200D01*
X150404762Y-92557200D02*
X150357143Y-92509580D01*
X150357143Y-92509580D02*
X150309524Y-92414342D01*
X150309524Y-92414342D02*
X150261905Y-92223866D01*
X150261905Y-92223866D02*
X150261905Y-91985771D01*
X150261905Y-91985771D02*
X150309524Y-91795295D01*
X150309524Y-91795295D02*
X150357143Y-91700057D01*
X150357143Y-91700057D02*
X150404762Y-91652438D01*
X150404762Y-91652438D02*
X150500000Y-91604819D01*
X151261905Y-92509580D02*
X151309524Y-92557200D01*
X151309524Y-92557200D02*
X151261905Y-92604819D01*
X151261905Y-92604819D02*
X151214286Y-92557200D01*
X151214286Y-92557200D02*
X151261905Y-92509580D01*
X151261905Y-92509580D02*
X151261905Y-92604819D01*
X152261904Y-92604819D02*
X151690476Y-92604819D01*
X151976190Y-92604819D02*
X151976190Y-91604819D01*
X151976190Y-91604819D02*
X151880952Y-91747676D01*
X151880952Y-91747676D02*
X151785714Y-91842914D01*
X151785714Y-91842914D02*
X151690476Y-91890533D01*
X153119047Y-91938152D02*
X153119047Y-92604819D01*
X152690476Y-91938152D02*
X152690476Y-92461961D01*
X152690476Y-92461961D02*
X152738095Y-92557200D01*
X152738095Y-92557200D02*
X152833333Y-92604819D01*
X152833333Y-92604819D02*
X152976190Y-92604819D01*
X152976190Y-92604819D02*
X153071428Y-92557200D01*
X153071428Y-92557200D02*
X153119047Y-92509580D01*
X153452381Y-91938152D02*
X153833333Y-91938152D01*
X153595238Y-92604819D02*
X153595238Y-91747676D01*
X153595238Y-91747676D02*
X153642857Y-91652438D01*
X153642857Y-91652438D02*
X153738095Y-91604819D01*
X153738095Y-91604819D02*
X153833333Y-91604819D01*
X151197619Y-106193247D02*
X151464285Y-106193247D01*
X151578571Y-106612295D02*
X151197619Y-106612295D01*
X151197619Y-106612295D02*
X151197619Y-105812295D01*
X151197619Y-105812295D02*
X151578571Y-105812295D01*
X151883333Y-105888485D02*
X151921429Y-105850390D01*
X151921429Y-105850390D02*
X151997619Y-105812295D01*
X151997619Y-105812295D02*
X152188095Y-105812295D01*
X152188095Y-105812295D02*
X152264286Y-105850390D01*
X152264286Y-105850390D02*
X152302381Y-105888485D01*
X152302381Y-105888485D02*
X152340476Y-105964676D01*
X152340476Y-105964676D02*
X152340476Y-106040866D01*
X152340476Y-106040866D02*
X152302381Y-106155152D01*
X152302381Y-106155152D02*
X151845238Y-106612295D01*
X151845238Y-106612295D02*
X152340476Y-106612295D01*
X123933333Y-107609580D02*
X123885714Y-107657200D01*
X123885714Y-107657200D02*
X123742857Y-107704819D01*
X123742857Y-107704819D02*
X123647619Y-107704819D01*
X123647619Y-107704819D02*
X123504762Y-107657200D01*
X123504762Y-107657200D02*
X123409524Y-107561961D01*
X123409524Y-107561961D02*
X123361905Y-107466723D01*
X123361905Y-107466723D02*
X123314286Y-107276247D01*
X123314286Y-107276247D02*
X123314286Y-107133390D01*
X123314286Y-107133390D02*
X123361905Y-106942914D01*
X123361905Y-106942914D02*
X123409524Y-106847676D01*
X123409524Y-106847676D02*
X123504762Y-106752438D01*
X123504762Y-106752438D02*
X123647619Y-106704819D01*
X123647619Y-106704819D02*
X123742857Y-106704819D01*
X123742857Y-106704819D02*
X123885714Y-106752438D01*
X123885714Y-106752438D02*
X123933333Y-106800057D01*
X124790476Y-106704819D02*
X124600000Y-106704819D01*
X124600000Y-106704819D02*
X124504762Y-106752438D01*
X124504762Y-106752438D02*
X124457143Y-106800057D01*
X124457143Y-106800057D02*
X124361905Y-106942914D01*
X124361905Y-106942914D02*
X124314286Y-107133390D01*
X124314286Y-107133390D02*
X124314286Y-107514342D01*
X124314286Y-107514342D02*
X124361905Y-107609580D01*
X124361905Y-107609580D02*
X124409524Y-107657200D01*
X124409524Y-107657200D02*
X124504762Y-107704819D01*
X124504762Y-107704819D02*
X124695238Y-107704819D01*
X124695238Y-107704819D02*
X124790476Y-107657200D01*
X124790476Y-107657200D02*
X124838095Y-107609580D01*
X124838095Y-107609580D02*
X124885714Y-107514342D01*
X124885714Y-107514342D02*
X124885714Y-107276247D01*
X124885714Y-107276247D02*
X124838095Y-107181009D01*
X124838095Y-107181009D02*
X124790476Y-107133390D01*
X124790476Y-107133390D02*
X124695238Y-107085771D01*
X124695238Y-107085771D02*
X124504762Y-107085771D01*
X124504762Y-107085771D02*
X124409524Y-107133390D01*
X124409524Y-107133390D02*
X124361905Y-107181009D01*
X124361905Y-107181009D02*
X124314286Y-107276247D01*
X122078571Y-109004819D02*
X121507143Y-109004819D01*
X121792857Y-109004819D02*
X121792857Y-108004819D01*
X121792857Y-108004819D02*
X121697619Y-108147676D01*
X121697619Y-108147676D02*
X121602381Y-108242914D01*
X121602381Y-108242914D02*
X121507143Y-108290533D01*
X122697619Y-108004819D02*
X122792857Y-108004819D01*
X122792857Y-108004819D02*
X122888095Y-108052438D01*
X122888095Y-108052438D02*
X122935714Y-108100057D01*
X122935714Y-108100057D02*
X122983333Y-108195295D01*
X122983333Y-108195295D02*
X123030952Y-108385771D01*
X123030952Y-108385771D02*
X123030952Y-108623866D01*
X123030952Y-108623866D02*
X122983333Y-108814342D01*
X122983333Y-108814342D02*
X122935714Y-108909580D01*
X122935714Y-108909580D02*
X122888095Y-108957200D01*
X122888095Y-108957200D02*
X122792857Y-109004819D01*
X122792857Y-109004819D02*
X122697619Y-109004819D01*
X122697619Y-109004819D02*
X122602381Y-108957200D01*
X122602381Y-108957200D02*
X122554762Y-108909580D01*
X122554762Y-108909580D02*
X122507143Y-108814342D01*
X122507143Y-108814342D02*
X122459524Y-108623866D01*
X122459524Y-108623866D02*
X122459524Y-108385771D01*
X122459524Y-108385771D02*
X122507143Y-108195295D01*
X122507143Y-108195295D02*
X122554762Y-108100057D01*
X122554762Y-108100057D02*
X122602381Y-108052438D01*
X122602381Y-108052438D02*
X122697619Y-108004819D01*
X123888095Y-108338152D02*
X123888095Y-109004819D01*
X123459524Y-108338152D02*
X123459524Y-108861961D01*
X123459524Y-108861961D02*
X123507143Y-108957200D01*
X123507143Y-108957200D02*
X123602381Y-109004819D01*
X123602381Y-109004819D02*
X123745238Y-109004819D01*
X123745238Y-109004819D02*
X123840476Y-108957200D01*
X123840476Y-108957200D02*
X123888095Y-108909580D01*
X124697619Y-108481009D02*
X124364286Y-108481009D01*
X124364286Y-109004819D02*
X124364286Y-108004819D01*
X124364286Y-108004819D02*
X124840476Y-108004819D01*
X144333333Y-102609580D02*
X144285714Y-102657200D01*
X144285714Y-102657200D02*
X144142857Y-102704819D01*
X144142857Y-102704819D02*
X144047619Y-102704819D01*
X144047619Y-102704819D02*
X143904762Y-102657200D01*
X143904762Y-102657200D02*
X143809524Y-102561961D01*
X143809524Y-102561961D02*
X143761905Y-102466723D01*
X143761905Y-102466723D02*
X143714286Y-102276247D01*
X143714286Y-102276247D02*
X143714286Y-102133390D01*
X143714286Y-102133390D02*
X143761905Y-101942914D01*
X143761905Y-101942914D02*
X143809524Y-101847676D01*
X143809524Y-101847676D02*
X143904762Y-101752438D01*
X143904762Y-101752438D02*
X144047619Y-101704819D01*
X144047619Y-101704819D02*
X144142857Y-101704819D01*
X144142857Y-101704819D02*
X144285714Y-101752438D01*
X144285714Y-101752438D02*
X144333333Y-101800057D01*
X144714286Y-101800057D02*
X144761905Y-101752438D01*
X144761905Y-101752438D02*
X144857143Y-101704819D01*
X144857143Y-101704819D02*
X145095238Y-101704819D01*
X145095238Y-101704819D02*
X145190476Y-101752438D01*
X145190476Y-101752438D02*
X145238095Y-101800057D01*
X145238095Y-101800057D02*
X145285714Y-101895295D01*
X145285714Y-101895295D02*
X145285714Y-101990533D01*
X145285714Y-101990533D02*
X145238095Y-102133390D01*
X145238095Y-102133390D02*
X144666667Y-102704819D01*
X144666667Y-102704819D02*
X145285714Y-102704819D01*
X142726190Y-104204819D02*
X142154762Y-104204819D01*
X142440476Y-104204819D02*
X142440476Y-103204819D01*
X142440476Y-103204819D02*
X142345238Y-103347676D01*
X142345238Y-103347676D02*
X142250000Y-103442914D01*
X142250000Y-103442914D02*
X142154762Y-103490533D01*
X143345238Y-103204819D02*
X143440476Y-103204819D01*
X143440476Y-103204819D02*
X143535714Y-103252438D01*
X143535714Y-103252438D02*
X143583333Y-103300057D01*
X143583333Y-103300057D02*
X143630952Y-103395295D01*
X143630952Y-103395295D02*
X143678571Y-103585771D01*
X143678571Y-103585771D02*
X143678571Y-103823866D01*
X143678571Y-103823866D02*
X143630952Y-104014342D01*
X143630952Y-104014342D02*
X143583333Y-104109580D01*
X143583333Y-104109580D02*
X143535714Y-104157200D01*
X143535714Y-104157200D02*
X143440476Y-104204819D01*
X143440476Y-104204819D02*
X143345238Y-104204819D01*
X143345238Y-104204819D02*
X143250000Y-104157200D01*
X143250000Y-104157200D02*
X143202381Y-104109580D01*
X143202381Y-104109580D02*
X143154762Y-104014342D01*
X143154762Y-104014342D02*
X143107143Y-103823866D01*
X143107143Y-103823866D02*
X143107143Y-103585771D01*
X143107143Y-103585771D02*
X143154762Y-103395295D01*
X143154762Y-103395295D02*
X143202381Y-103300057D01*
X143202381Y-103300057D02*
X143250000Y-103252438D01*
X143250000Y-103252438D02*
X143345238Y-103204819D01*
X144297619Y-103204819D02*
X144392857Y-103204819D01*
X144392857Y-103204819D02*
X144488095Y-103252438D01*
X144488095Y-103252438D02*
X144535714Y-103300057D01*
X144535714Y-103300057D02*
X144583333Y-103395295D01*
X144583333Y-103395295D02*
X144630952Y-103585771D01*
X144630952Y-103585771D02*
X144630952Y-103823866D01*
X144630952Y-103823866D02*
X144583333Y-104014342D01*
X144583333Y-104014342D02*
X144535714Y-104109580D01*
X144535714Y-104109580D02*
X144488095Y-104157200D01*
X144488095Y-104157200D02*
X144392857Y-104204819D01*
X144392857Y-104204819D02*
X144297619Y-104204819D01*
X144297619Y-104204819D02*
X144202381Y-104157200D01*
X144202381Y-104157200D02*
X144154762Y-104109580D01*
X144154762Y-104109580D02*
X144107143Y-104014342D01*
X144107143Y-104014342D02*
X144059524Y-103823866D01*
X144059524Y-103823866D02*
X144059524Y-103585771D01*
X144059524Y-103585771D02*
X144107143Y-103395295D01*
X144107143Y-103395295D02*
X144154762Y-103300057D01*
X144154762Y-103300057D02*
X144202381Y-103252438D01*
X144202381Y-103252438D02*
X144297619Y-103204819D01*
X145250000Y-103204819D02*
X145345238Y-103204819D01*
X145345238Y-103204819D02*
X145440476Y-103252438D01*
X145440476Y-103252438D02*
X145488095Y-103300057D01*
X145488095Y-103300057D02*
X145535714Y-103395295D01*
X145535714Y-103395295D02*
X145583333Y-103585771D01*
X145583333Y-103585771D02*
X145583333Y-103823866D01*
X145583333Y-103823866D02*
X145535714Y-104014342D01*
X145535714Y-104014342D02*
X145488095Y-104109580D01*
X145488095Y-104109580D02*
X145440476Y-104157200D01*
X145440476Y-104157200D02*
X145345238Y-104204819D01*
X145345238Y-104204819D02*
X145250000Y-104204819D01*
X145250000Y-104204819D02*
X145154762Y-104157200D01*
X145154762Y-104157200D02*
X145107143Y-104109580D01*
X145107143Y-104109580D02*
X145059524Y-104014342D01*
X145059524Y-104014342D02*
X145011905Y-103823866D01*
X145011905Y-103823866D02*
X145011905Y-103585771D01*
X145011905Y-103585771D02*
X145059524Y-103395295D01*
X145059524Y-103395295D02*
X145107143Y-103300057D01*
X145107143Y-103300057D02*
X145154762Y-103252438D01*
X145154762Y-103252438D02*
X145250000Y-103204819D01*
X146011905Y-103538152D02*
X146011905Y-104538152D01*
X146011905Y-103585771D02*
X146107143Y-103538152D01*
X146107143Y-103538152D02*
X146297619Y-103538152D01*
X146297619Y-103538152D02*
X146392857Y-103585771D01*
X146392857Y-103585771D02*
X146440476Y-103633390D01*
X146440476Y-103633390D02*
X146488095Y-103728628D01*
X146488095Y-103728628D02*
X146488095Y-104014342D01*
X146488095Y-104014342D02*
X146440476Y-104109580D01*
X146440476Y-104109580D02*
X146392857Y-104157200D01*
X146392857Y-104157200D02*
X146297619Y-104204819D01*
X146297619Y-104204819D02*
X146107143Y-104204819D01*
X146107143Y-104204819D02*
X146011905Y-104157200D01*
X147250000Y-103681009D02*
X146916667Y-103681009D01*
X146916667Y-104204819D02*
X146916667Y-103204819D01*
X146916667Y-103204819D02*
X147392857Y-103204819D01*
X112166666Y-71854819D02*
X112166666Y-72569104D01*
X112166666Y-72569104D02*
X112119047Y-72711961D01*
X112119047Y-72711961D02*
X112023809Y-72807200D01*
X112023809Y-72807200D02*
X111880952Y-72854819D01*
X111880952Y-72854819D02*
X111785714Y-72854819D01*
X112595238Y-71950057D02*
X112642857Y-71902438D01*
X112642857Y-71902438D02*
X112738095Y-71854819D01*
X112738095Y-71854819D02*
X112976190Y-71854819D01*
X112976190Y-71854819D02*
X113071428Y-71902438D01*
X113071428Y-71902438D02*
X113119047Y-71950057D01*
X113119047Y-71950057D02*
X113166666Y-72045295D01*
X113166666Y-72045295D02*
X113166666Y-72140533D01*
X113166666Y-72140533D02*
X113119047Y-72283390D01*
X113119047Y-72283390D02*
X112547619Y-72854819D01*
X112547619Y-72854819D02*
X113166666Y-72854819D01*
X163216666Y-95604819D02*
X163216666Y-96319104D01*
X163216666Y-96319104D02*
X163169047Y-96461961D01*
X163169047Y-96461961D02*
X163073809Y-96557200D01*
X163073809Y-96557200D02*
X162930952Y-96604819D01*
X162930952Y-96604819D02*
X162835714Y-96604819D01*
X164121428Y-95938152D02*
X164121428Y-96604819D01*
X163883333Y-95557200D02*
X163645238Y-96271485D01*
X163645238Y-96271485D02*
X164264285Y-96271485D01*
X140058333Y-98459580D02*
X140010714Y-98507200D01*
X140010714Y-98507200D02*
X139867857Y-98554819D01*
X139867857Y-98554819D02*
X139772619Y-98554819D01*
X139772619Y-98554819D02*
X139629762Y-98507200D01*
X139629762Y-98507200D02*
X139534524Y-98411961D01*
X139534524Y-98411961D02*
X139486905Y-98316723D01*
X139486905Y-98316723D02*
X139439286Y-98126247D01*
X139439286Y-98126247D02*
X139439286Y-97983390D01*
X139439286Y-97983390D02*
X139486905Y-97792914D01*
X139486905Y-97792914D02*
X139534524Y-97697676D01*
X139534524Y-97697676D02*
X139629762Y-97602438D01*
X139629762Y-97602438D02*
X139772619Y-97554819D01*
X139772619Y-97554819D02*
X139867857Y-97554819D01*
X139867857Y-97554819D02*
X140010714Y-97602438D01*
X140010714Y-97602438D02*
X140058333Y-97650057D01*
X140629762Y-97983390D02*
X140534524Y-97935771D01*
X140534524Y-97935771D02*
X140486905Y-97888152D01*
X140486905Y-97888152D02*
X140439286Y-97792914D01*
X140439286Y-97792914D02*
X140439286Y-97745295D01*
X140439286Y-97745295D02*
X140486905Y-97650057D01*
X140486905Y-97650057D02*
X140534524Y-97602438D01*
X140534524Y-97602438D02*
X140629762Y-97554819D01*
X140629762Y-97554819D02*
X140820238Y-97554819D01*
X140820238Y-97554819D02*
X140915476Y-97602438D01*
X140915476Y-97602438D02*
X140963095Y-97650057D01*
X140963095Y-97650057D02*
X141010714Y-97745295D01*
X141010714Y-97745295D02*
X141010714Y-97792914D01*
X141010714Y-97792914D02*
X140963095Y-97888152D01*
X140963095Y-97888152D02*
X140915476Y-97935771D01*
X140915476Y-97935771D02*
X140820238Y-97983390D01*
X140820238Y-97983390D02*
X140629762Y-97983390D01*
X140629762Y-97983390D02*
X140534524Y-98031009D01*
X140534524Y-98031009D02*
X140486905Y-98078628D01*
X140486905Y-98078628D02*
X140439286Y-98173866D01*
X140439286Y-98173866D02*
X140439286Y-98364342D01*
X140439286Y-98364342D02*
X140486905Y-98459580D01*
X140486905Y-98459580D02*
X140534524Y-98507200D01*
X140534524Y-98507200D02*
X140629762Y-98554819D01*
X140629762Y-98554819D02*
X140820238Y-98554819D01*
X140820238Y-98554819D02*
X140915476Y-98507200D01*
X140915476Y-98507200D02*
X140963095Y-98459580D01*
X140963095Y-98459580D02*
X141010714Y-98364342D01*
X141010714Y-98364342D02*
X141010714Y-98173866D01*
X141010714Y-98173866D02*
X140963095Y-98078628D01*
X140963095Y-98078628D02*
X140915476Y-98031009D01*
X140915476Y-98031009D02*
X140820238Y-97983390D01*
X139772618Y-94854819D02*
X139201190Y-94854819D01*
X139486904Y-94854819D02*
X139486904Y-93854819D01*
X139486904Y-93854819D02*
X139391666Y-93997676D01*
X139391666Y-93997676D02*
X139296428Y-94092914D01*
X139296428Y-94092914D02*
X139201190Y-94140533D01*
X140629761Y-94188152D02*
X140629761Y-94854819D01*
X140201190Y-94188152D02*
X140201190Y-94711961D01*
X140201190Y-94711961D02*
X140248809Y-94807200D01*
X140248809Y-94807200D02*
X140344047Y-94854819D01*
X140344047Y-94854819D02*
X140486904Y-94854819D01*
X140486904Y-94854819D02*
X140582142Y-94807200D01*
X140582142Y-94807200D02*
X140629761Y-94759580D01*
X140963095Y-94188152D02*
X141344047Y-94188152D01*
X141105952Y-94854819D02*
X141105952Y-93997676D01*
X141105952Y-93997676D02*
X141153571Y-93902438D01*
X141153571Y-93902438D02*
X141248809Y-93854819D01*
X141248809Y-93854819D02*
X141344047Y-93854819D01*
D14*
X100710000Y-92010000D02*
X109830000Y-92010000D01*
X100710000Y-104060000D02*
X102020000Y-104060000D01*
X100710000Y-120210000D02*
X100710000Y-92010000D01*
X102020000Y-93310000D02*
X108520000Y-93310000D01*
X102020000Y-104060000D02*
X102020000Y-93310000D01*
X102020000Y-108160000D02*
X100710000Y-108160000D01*
X102020000Y-108160000D02*
X102020000Y-108160000D01*
X102020000Y-118910000D02*
X102020000Y-108160000D01*
X108520000Y-93310000D02*
X108520000Y-118910000D01*
X108520000Y-118910000D02*
X102020000Y-118910000D01*
X109830000Y-92010000D02*
X109830000Y-120210000D01*
X109830000Y-120210000D02*
X100710000Y-120210000D01*
X121590000Y-118436252D02*
X121590000Y-117013748D01*
X123410000Y-118436252D02*
X123410000Y-117013748D01*
X125840000Y-100063748D02*
X125840000Y-101486252D01*
X127660000Y-100063748D02*
X127660000Y-101486252D01*
X111840000Y-101290000D02*
X114190000Y-101290000D01*
X111840000Y-107045563D02*
X111840000Y-101290000D01*
X112904437Y-108110000D02*
X111840000Y-107045563D01*
X112904437Y-108110000D02*
X114190000Y-108110000D01*
X113008750Y-108743750D02*
X113796250Y-108743750D01*
X113402500Y-109137500D02*
X113402500Y-108350000D01*
X117595563Y-108110000D02*
X116310000Y-108110000D01*
X117595563Y-108110000D02*
X118660000Y-107045563D01*
X118660000Y-101290000D02*
X116310000Y-101290000D01*
X118660000Y-107045563D02*
X118660000Y-101290000D01*
X139486252Y-119840000D02*
X138063748Y-119840000D01*
X139486252Y-121660000D02*
X138063748Y-121660000D01*
X115936252Y-73390000D02*
X114513748Y-73390000D01*
X115936252Y-75210000D02*
X114513748Y-75210000D01*
X151461252Y-99590000D02*
X150038748Y-99590000D01*
X151461252Y-101410000D02*
X150038748Y-101410000D01*
D15*
X155790000Y-85275000D02*
X151730000Y-85275000D01*
X155790000Y-88325000D02*
X151730000Y-88325000D01*
D14*
X123500000Y-83160000D02*
X123500000Y-74650000D01*
X130000000Y-83160000D02*
X123500000Y-83160000D01*
X130000000Y-83160000D02*
X130000000Y-74650000D01*
D15*
X120725000Y-102010000D02*
X120725000Y-106070000D01*
X123775000Y-102010000D02*
X123775000Y-106070000D01*
D14*
X100550000Y-79200000D02*
X100550000Y-79700000D01*
X100790000Y-79440000D02*
X100790000Y-89560000D01*
X101290000Y-79200000D02*
X100550000Y-79200000D01*
X101350000Y-79440000D02*
X101350000Y-89560000D01*
X102450000Y-79440000D02*
X102450000Y-89560000D01*
X111110000Y-79440000D02*
X100790000Y-79440000D01*
X111110000Y-79440000D02*
X111110000Y-89560000D01*
X111110000Y-89560000D02*
X100790000Y-89560000D01*
X104694507Y-82027011D02*
G75*
G02*
X104818000Y-81392000I1555481J27013D01*
G01*
X104818615Y-82607587D02*
G75*
G02*
X104695000Y-82000000I1431385J607587D01*
G01*
X105642258Y-80567891D02*
G75*
G02*
X106858000Y-80568000I607742J-1432109D01*
G01*
X106857742Y-83432109D02*
G75*
G02*
X105642000Y-83432000I-607743J1432112D01*
G01*
X107682109Y-81392258D02*
G75*
G02*
X107682000Y-82608000I-1432109J-607742D01*
G01*
X107805000Y-87000000D02*
G75*
G02*
X104695000Y-87000000I-1555000J0D01*
G01*
X104695000Y-87000000D02*
G75*
G02*
X107805000Y-87000000I1555000J0D01*
G01*
D15*
X129810000Y-100250000D02*
X129810000Y-107800000D01*
X129810000Y-100250000D02*
X141310000Y-100250000D01*
X129810000Y-107800000D02*
X141310000Y-107800000D01*
X141310000Y-107800000D02*
X141310000Y-100250000D01*
D10*
X138200000Y-99500000D02*
G75*
G02*
X138000000Y-99500000I-100000J0D01*
G01*
X138000000Y-99500000D02*
G75*
G02*
X138200000Y-99500000I100000J0D01*
G01*
D14*
X114590000Y-81904437D02*
X114590000Y-87660000D01*
X114590000Y-87660000D02*
X116940000Y-87660000D01*
X115654437Y-80840000D02*
X114590000Y-81904437D01*
X115654437Y-80840000D02*
X116940000Y-80840000D01*
X119847500Y-79812500D02*
X119847500Y-80600000D01*
X120241250Y-80206250D02*
X119453750Y-80206250D01*
X120345563Y-80840000D02*
X119060000Y-80840000D01*
X120345563Y-80840000D02*
X121410000Y-81904437D01*
X121410000Y-81904437D02*
X121410000Y-87660000D01*
X121410000Y-87660000D02*
X119060000Y-87660000D01*
X111840000Y-112854437D02*
X111840000Y-118610000D01*
X111840000Y-118610000D02*
X114190000Y-118610000D01*
X112904437Y-111790000D02*
X111840000Y-112854437D01*
X112904437Y-111790000D02*
X114190000Y-111790000D01*
X117097500Y-110762500D02*
X117097500Y-111550000D01*
X117491250Y-111156250D02*
X116703750Y-111156250D01*
X117595563Y-111790000D02*
X116310000Y-111790000D01*
X117595563Y-111790000D02*
X118660000Y-112854437D01*
X118660000Y-112854437D02*
X118660000Y-118610000D01*
X118660000Y-118610000D02*
X116310000Y-118610000D01*
X130340000Y-90513748D02*
X130340000Y-91936252D01*
X132160000Y-90513748D02*
X132160000Y-91936252D01*
X129340000Y-114686252D02*
X129340000Y-113263748D01*
X131160000Y-114686252D02*
X131160000Y-113263748D01*
X146840000Y-114711252D02*
X146840000Y-113288748D01*
X148660000Y-114711252D02*
X148660000Y-113288748D01*
D15*
X125225000Y-87270000D02*
X125225000Y-91330000D01*
X128275000Y-87270000D02*
X128275000Y-91330000D01*
X126280000Y-110975000D02*
X122220000Y-110975000D01*
X126280000Y-114025000D02*
X122220000Y-114025000D01*
X112930000Y-94725000D02*
X116990000Y-94725000D01*
X112930000Y-97775000D02*
X116990000Y-97775000D01*
D14*
X113190000Y-77788748D02*
X113190000Y-79211252D01*
X115010000Y-77788748D02*
X115010000Y-79211252D01*
D15*
X130430000Y-94725000D02*
X134490000Y-94725000D01*
X130430000Y-97775000D02*
X134490000Y-97775000D01*
X132990000Y-110450000D02*
X132990000Y-118000000D01*
X132990000Y-110450000D02*
X144490000Y-110450000D01*
X132990000Y-118000000D02*
X144490000Y-118000000D01*
X144490000Y-118000000D02*
X144490000Y-110450000D01*
D10*
X141380000Y-109700000D02*
G75*
G02*
X141180000Y-109700000I-100000J0D01*
G01*
X141180000Y-109700000D02*
G75*
G02*
X141380000Y-109700000I100000J0D01*
G01*
D14*
X120340000Y-94038748D02*
X120340000Y-95461252D01*
X122160000Y-94038748D02*
X122160000Y-95461252D01*
X115936252Y-69590000D02*
X114513748Y-69590000D01*
X115936252Y-71410000D02*
X114513748Y-71410000D01*
X154440000Y-92736252D02*
X154440000Y-91313748D01*
X156260000Y-92736252D02*
X156260000Y-91313748D01*
D15*
X147725000Y-104220000D02*
X147725000Y-108280000D01*
X150775000Y-104220000D02*
X150775000Y-108280000D01*
D14*
X125340000Y-107961252D02*
X125340000Y-106538748D01*
X127160000Y-107961252D02*
X127160000Y-106538748D01*
X143590000Y-106063748D02*
X143590000Y-107486252D01*
X145410000Y-106063748D02*
X145410000Y-107486252D01*
X100550000Y-67700000D02*
X100550000Y-68200000D01*
X100790000Y-67940000D02*
X100790000Y-78060000D01*
X101290000Y-67700000D02*
X100550000Y-67700000D01*
X101350000Y-67940000D02*
X101350000Y-78060000D01*
X102450000Y-67940000D02*
X102450000Y-78060000D01*
X111110000Y-67940000D02*
X100790000Y-67940000D01*
X111110000Y-67940000D02*
X111110000Y-78060000D01*
X111110000Y-78060000D02*
X100790000Y-78060000D01*
X104694507Y-70527011D02*
G75*
G02*
X104818000Y-69892000I1555481J27013D01*
G01*
X104818615Y-71107587D02*
G75*
G02*
X104695000Y-70500000I1431385J607587D01*
G01*
X105642258Y-69067891D02*
G75*
G02*
X106858000Y-69068000I607742J-1432109D01*
G01*
X106857742Y-71932109D02*
G75*
G02*
X105642000Y-71932000I-607743J1432112D01*
G01*
X107682109Y-69892258D02*
G75*
G02*
X107682000Y-71108000I-1432109J-607742D01*
G01*
X107805000Y-75500000D02*
G75*
G02*
X104695000Y-75500000I-1555000J0D01*
G01*
X104695000Y-75500000D02*
G75*
G02*
X107805000Y-75500000I1555000J0D01*
G01*
X158690000Y-84240000D02*
X169010000Y-84240000D01*
X158690000Y-94360000D02*
X158690000Y-84240000D01*
X158690000Y-94360000D02*
X169010000Y-94360000D01*
X167350000Y-94360000D02*
X167350000Y-84240000D01*
X168450000Y-94360000D02*
X168450000Y-84240000D01*
X168510000Y-94600000D02*
X169250000Y-94600000D01*
X169010000Y-94360000D02*
X169010000Y-84240000D01*
X169250000Y-94600000D02*
X169250000Y-94100000D01*
X162117891Y-92407742D02*
G75*
G02*
X162118000Y-91192000I1432109J607742D01*
G01*
X162942258Y-90367891D02*
G75*
G02*
X164158000Y-90368000I607743J-1432112D01*
G01*
X164157742Y-93232109D02*
G75*
G02*
X162942000Y-93232000I-607742J1432109D01*
G01*
X164981385Y-91192413D02*
G75*
G02*
X165105000Y-91800000I-1431385J-607587D01*
G01*
X165105493Y-91772989D02*
G75*
G02*
X164982000Y-92408000I-1555481J-27013D01*
G01*
X165105000Y-86800000D02*
G75*
G02*
X161995000Y-86800000I-1555000J0D01*
G01*
X161995000Y-86800000D02*
G75*
G02*
X165105000Y-86800000I1555000J0D01*
G01*
X140936252Y-95340000D02*
X139513748Y-95340000D01*
X140936252Y-97160000D02*
X139513748Y-97160000D01*
%LPC*%
D16*
X104000000Y-97220000D03*
D17*
X106540000Y-97220000D03*
X104000000Y-99760000D03*
X106540000Y-99760000D03*
X104000000Y-102300000D03*
X106540000Y-102300000D03*
X104000000Y-104840000D03*
X106540000Y-104840000D03*
X104000000Y-107380000D03*
X106540000Y-107380000D03*
X104000000Y-109920000D03*
X106540000Y-109920000D03*
X104000000Y-112460000D03*
X106540000Y-112460000D03*
X104000000Y-115000000D03*
X106540000Y-115000000D03*
D18*
X122500000Y-119200000D03*
X122500000Y-116250000D03*
D19*
X126750000Y-99300000D03*
X126750000Y-102250000D03*
D20*
X115250000Y-107400000D03*
X115250000Y-102000000D03*
D21*
X140250000Y-120750000D03*
X137300000Y-120750000D03*
X116700000Y-74300000D03*
X113750000Y-74300000D03*
X152225000Y-100500000D03*
X149275000Y-100500000D03*
D22*
X155550000Y-86800000D03*
X151970000Y-86800000D03*
D23*
X126750000Y-81650000D03*
X126750000Y-74850000D03*
D24*
X122250000Y-102250000D03*
X122250000Y-105830000D03*
D25*
X106250000Y-82000000D03*
D26*
X106250000Y-87000000D03*
D27*
X138100000Y-102250000D03*
D28*
X135560000Y-102250000D03*
X133020000Y-102250000D03*
D29*
X118000000Y-81550000D03*
X118000000Y-86950000D03*
X115250000Y-112500000D03*
X115250000Y-117900000D03*
D19*
X131250000Y-89750000D03*
X131250000Y-92700000D03*
D18*
X130250000Y-115450000D03*
X130250000Y-112500000D03*
X147750000Y-115475000D03*
X147750000Y-112525000D03*
D24*
X126750000Y-87510000D03*
X126750000Y-91090000D03*
D22*
X126040000Y-112500000D03*
X122460000Y-112500000D03*
D30*
X113170000Y-96250000D03*
X116750000Y-96250000D03*
D19*
X114100000Y-77025000D03*
X114100000Y-79975000D03*
D30*
X130670000Y-96250000D03*
X134250000Y-96250000D03*
D27*
X141280000Y-112450000D03*
D28*
X138740000Y-112450000D03*
X136200000Y-112450000D03*
D19*
X121250000Y-93275000D03*
X121250000Y-96225000D03*
D21*
X116700000Y-70500000D03*
X113750000Y-70500000D03*
D18*
X155350000Y-93500000D03*
X155350000Y-90550000D03*
D24*
X149250000Y-104460000D03*
X149250000Y-108040000D03*
D18*
X126250000Y-108725000D03*
X126250000Y-105775000D03*
D19*
X144500000Y-105300000D03*
X144500000Y-108250000D03*
D25*
X106250000Y-70500000D03*
D26*
X106250000Y-75500000D03*
D25*
X163550000Y-91800000D03*
D26*
X163550000Y-86800000D03*
D21*
X141700000Y-96250000D03*
X138750000Y-96250000D03*
%LPD*%
M02*
